<svg width="34" height="34" viewBox="0 0 34 34" fill="none" xmlns="http://www.w3.org/2000/svg">
<path d="M14.1668 5.66602H5.66683C4.09433 5.66602 2.8335 6.92685 2.8335 8.49935V25.4993C2.8335 26.2508 3.13201 26.9715 3.66336 27.5028C4.19471 28.0342 4.91538 28.3327 5.66683 28.3327H28.3335C29.0849 28.3327 29.8056 28.0342 30.337 27.5028C30.8683 26.9715 31.1668 26.2508 31.1668 25.4993V11.3327C31.1668 10.5812 30.8683 9.86057 30.337 9.32921C29.8056 8.79786 29.0849 8.49935 28.3335 8.49935H17.0002L14.1668 5.66602Z" fill="black"/>
<path d="M16.6134 19.463C16.861 19.2076 17 18.8614 17 18.5005C17 18.1395 16.861 17.7933 16.6134 17.5379L11.629 12.3991C11.381 12.1436 11.0446 12 10.6939 12C10.3432 12 10.0069 12.1436 9.75891 12.3991C9.51093 12.6546 9.37161 13.0012 9.37161 13.3626C9.37161 13.7239 9.51093 14.0705 9.75891 14.326L12.4873 17.1383L2.3219 17.1383C1.97131 17.1383 1.63508 17.2818 1.38718 17.5373C1.13927 17.7927 1 18.1392 1 18.5005C1 18.8617 1.13927 19.2082 1.38718 19.4636C1.63508 19.7191 1.97131 19.8626 2.3219 19.8626L12.4873 19.8626L9.75891 22.674C9.63612 22.8005 9.53872 22.9507 9.47227 23.116C9.40582 23.2813 9.37161 23.4585 9.37161 23.6374C9.37161 23.8164 9.40582 23.9936 9.47227 24.1589C9.53872 24.3242 9.63612 24.4744 9.75891 24.6009C9.8817 24.7274 10.0275 24.8278 10.1879 24.8963C10.3483 24.9648 10.5203 25 10.6939 25C10.8676 25 11.0395 24.9648 11.2 24.8963C11.3604 24.8278 11.5062 24.7274 11.629 24.6009L16.6134 19.463Z" fill="white"/>
</svg>
