<svg width="24" height="24" viewBox="0 0 24 24" fill="none" xmlns="http://www.w3.org/2000/svg">
<path d="M3.59961 10.8298C2.95279 10.8298 2.42844 11.3542 2.42844 12.001C2.42844 12.6478 2.95279 13.1721 3.59961 13.1721V10.8298ZM11.9996 13.1721C12.6464 13.1721 13.1708 12.6478 13.1708 12.001C13.1708 11.3542 12.6464 10.8298 11.9996 10.8298V13.1721ZM11.9989 10.8298C11.3521 10.8298 10.8277 11.3542 10.8277 12.001C10.8277 12.6478 11.3521 13.1721 11.9989 13.1721V10.8298ZM20.3989 13.1721C21.0457 13.1721 21.57 12.6478 21.57 12.001C21.57 11.3542 21.0457 10.8298 20.3989 10.8298V13.1721ZM13.1706 12.0004C13.1706 11.3536 12.6462 10.8293 11.9994 10.8293C11.3526 10.8293 10.8283 11.3536 10.8283 12.0004H13.1706ZM10.8283 20.4004C10.8283 21.0473 11.3526 21.5716 11.9994 21.5716C12.6462 21.5716 13.1706 21.0473 13.1706 20.4004H10.8283ZM10.8283 11.9996C10.8283 12.6464 11.3526 13.1708 11.9994 13.1708C12.6462 13.1708 13.1706 12.6464 13.1706 11.9996H10.8283ZM13.1706 3.59961C13.1706 2.95279 12.6462 2.42844 11.9994 2.42844C11.3526 2.42844 10.8283 2.95279 10.8283 3.59961H13.1706ZM3.59961 13.1721H11.9996V10.8298H3.59961V13.1721ZM11.9989 13.1721H20.3989V10.8298H11.9989V13.1721ZM11.9994 12.0004H10.8283V12.0004C10.8283 12.0004 10.8283 12.0004 10.8283 12.0004C10.8283 12.0004 10.8283 12.0004 10.8283 12.0005C10.8283 12.0005 10.8283 12.0005 10.8283 12.0005C10.8283 12.0005 10.8283 12.0005 10.8283 12.0005C10.8283 12.0005 10.8283 12.0005 10.8283 12.0005C10.8283 12.0005 10.8283 12.0005 10.8283 12.0005C10.8283 12.0005 10.8283 12.0005 10.8283 12.0005C10.8283 12.0005 10.8283 12.0005 10.8283 12.0005C10.8283 12.0005 10.8283 12.0005 10.8283 12.0006C10.8283 12.0006 10.8283 12.0006 10.8283 12.0006C10.8283 12.0006 10.8283 12.0006 10.8283 12.0006C10.8283 12.0006 10.8283 12.0006 10.8283 12.0007C10.8283 12.0007 10.8283 12.0007 10.8283 12.0007C10.8283 12.0007 10.8283 12.0007 10.8283 12.0007C10.8283 12.0008 10.8283 12.0008 10.8283 12.0008C10.8283 12.0008 10.8283 12.0008 10.8283 12.0009C10.8283 12.0009 10.8283 12.0009 10.8283 12.0009C10.8283 12.001 10.8283 12.001 10.8283 12.001C10.8283 12.001 10.8283 12.0011 10.8283 12.0011C10.8283 12.0011 10.8283 12.0012 10.8283 12.0012C10.8283 12.0012 10.8283 12.0013 10.8283 12.0013C10.8283 12.0013 10.8283 12.0014 10.8283 12.0014C10.8283 12.0015 10.8283 12.0015 10.8283 12.0015C10.8283 12.0016 10.8283 12.0016 10.8283 12.0017C10.8283 12.0017 10.8283 12.0018 10.8283 12.0018C10.8283 12.0019 10.8283 12.0019 10.8283 12.002C10.8283 12.002 10.8283 12.0021 10.8283 12.0021C10.8283 12.0022 10.8283 12.0022 10.8283 12.0023C10.8283 12.0024 10.8283 12.0024 10.8283 12.0025C10.8283 12.0026 10.8283 12.0026 10.8283 12.0027C10.8283 12.0028 10.8283 12.0028 10.8283 12.0029C10.8283 12.003 10.8283 12.003 10.8283 12.0031C10.8283 12.0032 10.8283 12.0033 10.8283 12.0034C10.8283 12.0034 10.8283 12.0035 10.8283 12.0036C10.8283 12.0037 10.8283 12.0038 10.8283 12.0039C10.8283 12.004 10.8283 12.0041 10.8283 12.0042C10.8283 12.0042 10.8283 12.0043 10.8283 12.0044C10.8283 12.0045 10.8283 12.0047 10.8283 12.0048C10.8283 12.0049 10.8283 12.005 10.8283 12.0051C10.8283 12.0052 10.8283 12.0053 10.8283 12.0054C10.8283 12.0055 10.8283 12.0057 10.8283 12.0058C10.8283 12.0059 10.8283 12.006 10.8283 12.0061C10.8283 12.0063 10.8283 12.0064 10.8283 12.0065C10.8283 12.0067 10.8283 12.0068 10.8283 12.0069C10.8283 12.0071 10.8283 12.0072 10.8283 12.0074C10.8283 12.0075 10.8283 12.0077 10.8283 12.0078C10.8283 12.008 10.8283 12.0081 10.8283 12.0083C10.8283 12.0084 10.8283 12.0086 10.8283 12.0087C10.8283 12.0089 10.8283 12.0091 10.8283 12.0092C10.8283 12.0094 10.8283 12.0096 10.8283 12.0098C10.8283 12.0099 10.8283 12.0101 10.8283 12.0103C10.8283 12.0105 10.8283 12.0107 10.8283 12.0109C10.8283 12.011 10.8283 12.0112 10.8283 12.0114C10.8283 12.0116 10.8283 12.0118 10.8283 12.012C10.8283 12.0122 10.8283 12.0124 10.8283 12.0127C10.8283 12.0129 10.8283 12.0131 10.8283 12.0133C10.8283 12.0135 10.8283 12.0137 10.8283 12.014C10.8283 12.0142 10.8283 12.0144 10.8283 12.0146C10.8283 12.0149 10.8283 12.0151 10.8283 12.0154C10.8283 12.0156 10.8283 12.0158 10.8283 12.0161C10.8283 12.0163 10.8283 12.0166 10.8283 12.0168C10.8283 12.0171 10.8283 12.0174 10.8283 12.0176C10.8283 12.0179 10.8283 12.0182 10.8283 12.0184C10.8283 12.0187 10.8283 12.019 10.8283 12.0193C10.8283 12.0195 10.8283 12.0198 10.8283 12.0201C10.8283 12.0204 10.8283 12.0207 10.8283 12.021C10.8283 12.0213 10.8283 12.0216 10.8283 12.0219C10.8283 12.0222 10.8283 12.0225 10.8283 12.0228C10.8283 12.0232 10.8283 12.0235 10.8283 12.0238C10.8283 12.0241 10.8283 12.0245 10.8283 12.0248C10.8283 12.0251 10.8283 12.0255 10.8283 12.0258C10.8283 12.0261 10.8283 12.0265 10.8283 12.0268C10.8283 12.0272 10.8283 12.0276 10.8283 12.0279C10.8283 12.0283 10.8283 12.0286 10.8283 12.029C10.8283 12.0294 10.8283 12.0298 10.8283 12.0301C10.8283 12.0305 10.8283 12.0309 10.8283 12.0313C10.8283 12.0317 10.8283 12.0321 10.8283 12.0325C10.8283 12.0329 10.8283 12.0333 10.8283 12.0337C10.8283 12.0341 10.8283 12.0345 10.8283 12.0349C10.8283 12.0354 10.8283 12.0358 10.8283 12.0362C10.8283 12.0367 10.8283 12.0371 10.8283 12.0375C10.8283 12.038 10.8283 12.0384 10.8283 12.0389C10.8283 12.0393 10.8283 12.0398 10.8283 12.0402C10.8283 12.0407 10.8283 12.0412 10.8283 12.0417C10.8283 12.0421 10.8283 12.0426 10.8283 12.0431C10.8283 12.0436 10.8283 12.0441 10.8283 12.0446C10.8283 12.0451 10.8283 12.0456 10.8283 12.0461C10.8283 12.0466 10.8283 12.0471 10.8283 12.0476C10.8283 12.0481 10.8283 12.0486 10.8283 12.0492C10.8283 12.0497 10.8283 12.0502 10.8283 12.0508C10.8283 12.0513 10.8283 12.0519 10.8283 12.0524C10.8283 12.053 10.8283 12.0535 10.8283 12.0541C10.8283 12.0547 10.8283 12.0552 10.8283 12.0558C10.8283 12.0564 10.8283 12.057 10.8283 12.0576C10.8283 12.0582 10.8283 12.0587 10.8283 12.0593C10.8283 12.0599 10.8283 12.0606 10.8283 12.0612C10.8283 12.0618 10.8283 12.0624 10.8283 12.063C10.8283 12.0637 10.8283 12.0643 10.8283 12.0649C10.8283 12.0656 10.8283 12.0662 10.8283 12.0669C10.8283 12.0675 10.8283 12.0682 10.8283 12.0688C10.8283 12.0695 10.8283 12.0702 10.8283 12.0708C10.8283 12.0715 10.8283 12.0722 10.8283 12.0729C10.8283 12.0736 10.8283 12.0743 10.8283 12.075C10.8283 12.0757 10.8283 12.0764 10.8283 12.0771C10.8283 12.0778 10.8283 12.0786 10.8283 12.0793C10.8283 12.08 10.8283 12.0807 10.8283 12.0815C10.8283 12.0822 10.8283 12.083 10.8283 12.0837C10.8283 12.0845 10.8283 12.0853 10.8283 12.086C10.8283 12.0868 10.8283 12.0876 10.8283 12.0884C10.8283 12.0892 10.8283 12.0899 10.8283 12.0907C10.8283 12.0915 10.8283 12.0924 10.8283 12.0932C10.8283 12.094 10.8283 12.0948 10.8283 12.0956C10.8283 12.0965 10.8283 12.0973 10.8283 12.0981C10.8283 12.099 10.8283 12.0998 10.8283 12.1007C10.8283 12.1015 10.8283 12.1024 10.8283 12.1033C10.8283 12.1041 10.8283 12.105 10.8283 12.1059C10.8283 12.1068 10.8283 12.1077 10.8283 12.1086C10.8283 12.1095 10.8283 12.1104 10.8283 12.1113C10.8283 12.1122 10.8283 12.1132 10.8283 12.1141C10.8283 12.115 10.8283 12.116 10.8283 12.1169C10.8283 12.1179 10.8283 12.1188 10.8283 12.1198C10.8283 12.1207 10.8283 12.1217 10.8283 12.1227C10.8283 12.1237 10.8283 12.1246 10.8283 12.1256C10.8283 12.1266 10.8283 12.1276 10.8283 12.1286C10.8283 12.1296 10.8283 12.1307 10.8283 12.1317C10.8283 12.1327 10.8283 12.1338 10.8283 12.1348C10.8283 12.1358 10.8283 12.1369 10.8283 12.1379C10.8283 12.139 10.8283 12.1401 10.8283 12.1411C10.8283 12.1422 10.8283 12.1433 10.8283 12.1444C10.8283 12.1455 10.8283 12.1466 10.8283 12.1477C10.8283 12.1488 10.8283 12.1499 10.8283 12.151C10.8283 12.1522 10.8283 12.1533 10.8283 12.1544C10.8283 12.1556 10.8283 12.1567 10.8283 12.1579C10.8283 12.159 10.8283 12.1602 10.8283 12.1614C10.8283 12.1625 10.8283 12.1637 10.8283 12.1649C10.8283 12.1661 10.8283 12.1673 10.8283 12.1685C10.8283 12.1697 10.8283 12.1709 10.8283 12.1722C10.8283 12.1734 10.8283 12.1746 10.8283 12.1759C10.8283 12.1771 10.8283 12.1784 10.8283 12.1796C10.8283 12.1809 10.8283 12.1822 10.8283 12.1835C10.8283 12.1847 10.8283 12.186 10.8283 12.1873C10.8283 12.1886 10.8283 12.1899 10.8283 12.1912C10.8283 12.1926 10.8283 12.1939 10.8283 12.1952C10.8283 12.1965 10.8283 12.1979 10.8283 12.1992C10.8283 12.2006 10.8283 12.202 10.8283 12.2033C10.8283 12.2047 10.8283 12.2061 10.8283 12.2075C10.8283 12.2089 10.8283 12.2103 10.8283 12.2117C10.8283 12.2131 10.8283 12.2145 10.8283 12.2159C10.8283 12.2173 10.8283 12.2188 10.8283 12.2202C10.8283 12.2217 10.8283 12.2231 10.8283 12.2246C10.8283 12.2261 10.8283 12.2275 10.8283 12.229C10.8283 12.2305 10.8283 12.232 10.8283 12.2335C10.8283 12.235 10.8283 12.2365 10.8283 12.238C10.8283 12.2396 10.8283 12.2411 10.8283 12.2426C10.8283 12.2442 10.8283 12.2457 10.8283 12.2473C10.8283 12.2489 10.8283 12.2504 10.8283 12.252C10.8283 12.2536 10.8283 12.2552 10.8283 12.2568C10.8283 12.2584 10.8283 12.26 10.8283 12.2616C10.8283 12.2632 10.8283 12.2649 10.8283 12.2665C10.8283 12.2682 10.8283 12.2698 10.8283 12.2715C10.8283 12.2731 10.8283 12.2748 10.8283 12.2765C10.8283 12.2782 10.8283 12.2799 10.8283 12.2816C10.8283 12.2833 10.8283 12.285 10.8283 12.2867C10.8283 12.2884 10.8283 12.2902 10.8283 12.2919C10.8283 12.2937 10.8283 12.2954 10.8283 12.2972C10.8283 12.299 10.8283 12.3007 10.8283 12.3025C10.8283 12.3043 10.8283 12.3061 10.8283 12.3079C10.8283 12.3097 10.8283 12.3115 10.8283 12.3134C10.8283 12.3152 10.8283 12.317 10.8283 12.3189C10.8283 12.3208 10.8283 12.3226 10.8283 12.3245C10.8283 12.3264 10.8283 12.3282 10.8283 12.3301C10.8283 12.332 10.8283 12.3339 10.8283 12.3359C10.8283 12.3378 10.8283 12.3397 10.8283 12.3416C10.8283 12.3436 10.8283 12.3455 10.8283 12.3475C10.8283 12.3495 10.8283 12.3514 10.8283 12.3534C10.8283 12.3554 10.8283 12.3574 10.8283 12.3594C10.8283 12.3614 10.8283 12.3634 10.8283 12.3654C10.8283 12.3675 10.8283 12.3695 10.8283 12.3716C10.8283 12.3736 10.8283 12.3757 10.8283 12.3777C10.8283 12.3798 10.8283 12.3819 10.8283 12.384C10.8283 12.3861 10.8283 12.3882 10.8283 12.3903C10.8283 12.3924 10.8283 12.3946 10.8283 12.3967C10.8283 12.3988 10.8283 12.401 10.8283 12.4032C10.8283 12.4053 10.8283 12.4075 10.8283 12.4097C10.8283 12.4119 10.8283 12.4141 10.8283 12.4163C10.8283 12.4185 10.8283 12.4207 10.8283 12.423C10.8283 12.4252 10.8283 12.4275 10.8283 12.4297C10.8283 12.432 10.8283 12.4342 10.8283 12.4365C10.8283 12.4388 10.8283 12.4411 10.8283 12.4434C10.8283 12.4457 10.8283 12.448 10.8283 12.4504C10.8283 12.4527 10.8283 12.455 10.8283 12.4574C10.8283 12.4598 10.8283 12.4621 10.8283 12.4645C10.8283 12.4669 10.8283 12.4693 10.8283 12.4717C10.8283 12.4741 10.8283 12.4765 10.8283 12.4789C10.8283 12.4814 10.8283 12.4838 10.8283 12.4862C10.8283 12.4887 10.8283 12.4912 10.8283 12.4936C10.8283 12.4961 10.8283 12.4986 10.8283 12.5011C10.8283 12.5036 10.8283 12.5061 10.8283 12.5087C10.8283 12.5112 10.8283 12.5137 10.8283 12.5163C10.8283 12.5188 10.8283 12.5214 10.8283 12.524C10.8283 12.5266 10.8283 12.5292 10.8283 12.5318C10.8283 12.5344 10.8283 12.537 10.8283 12.5396C10.8283 12.5422 10.8283 12.5449 10.8283 12.5475C10.8283 12.5502 10.8283 12.5529 10.8283 12.5556C10.8283 12.5582 10.8283 12.5609 10.8283 12.5636C10.8283 12.5663 10.8283 12.5691 10.8283 12.5718C10.8283 12.5745 10.8283 12.5773 10.8283 12.58C10.8283 12.5828 10.8283 12.5856 10.8283 12.5884C10.8283 12.5911 10.8283 12.5939 10.8283 12.5968C10.8283 12.5996 10.8283 12.6024 10.8283 12.6052C10.8283 12.6081 10.8283 12.6109 10.8283 12.6138C10.8283 12.6167 10.8283 12.6195 10.8283 12.6224C10.8283 12.6253 10.8283 12.6282 10.8283 12.6312C10.8283 12.6341 10.8283 12.637 10.8283 12.64C10.8283 12.6429 10.8283 12.6459 10.8283 12.6488C10.8283 12.6518 10.8283 12.6548 10.8283 12.6578C10.8283 12.6608 10.8283 12.6638 10.8283 12.6668C10.8283 12.6699 10.8283 12.6729 10.8283 12.676C10.8283 12.679 10.8283 12.6821 10.8283 12.6852C10.8283 12.6883 10.8283 12.6914 10.8283 12.6945C10.8283 12.6976 10.8283 12.7007 10.8283 12.7039C10.8283 12.707 10.8283 12.7102 10.8283 12.7133C10.8283 12.7165 10.8283 12.7197 10.8283 12.7229C10.8283 12.7261 10.8283 12.7293 10.8283 12.7325C10.8283 12.7357 10.8283 12.739 10.8283 12.7422C10.8283 12.7455 10.8283 12.7487 10.8283 12.752C10.8283 12.7553 10.8283 12.7586 10.8283 12.7619C10.8283 12.7652 10.8283 12.7685 10.8283 12.7719C10.8283 12.7752 10.8283 12.7786 10.8283 12.7819C10.8283 12.7853 10.8283 12.7887 10.8283 12.7921C10.8283 12.7955 10.8283 12.7989 10.8283 12.8023C10.8283 12.8058 10.8283 12.8092 10.8283 12.8127C10.8283 12.8161 10.8283 12.8196 10.8283 12.8231C10.8283 12.8266 10.8283 12.8301 10.8283 12.8336C10.8283 12.8371 10.8283 12.8406 10.8283 12.8442C10.8283 12.8477 10.8283 12.8513 10.8283 12.8548C10.8283 12.8584 10.8283 12.862 10.8283 12.8656C10.8283 12.8692 10.8283 12.8728 10.8283 12.8765C10.8283 12.8801 10.8283 12.8838 10.8283 12.8874C10.8283 12.8911 10.8283 12.8948 10.8283 12.8985C10.8283 12.9022 10.8283 12.9059 10.8283 12.9096C10.8283 12.9133 10.8283 12.9171 10.8283 12.9208C10.8283 12.9246 10.8283 12.9284 10.8283 12.9321C10.8283 12.9359 10.8283 12.9397 10.8283 12.9435C10.8283 12.9474 10.8283 12.9512 10.8283 12.955C10.8283 12.9589 10.8283 12.9628 10.8283 12.9666C10.8283 12.9705 10.8283 12.9744 10.8283 12.9783C10.8283 12.9822 10.8283 12.9862 10.8283 12.9901C10.8283 12.9941 10.8283 12.998 10.8283 13.002C10.8283 13.006 10.8283 13.01 10.8283 13.014C10.8283 13.018 10.8283 13.022 10.8283 13.026C10.8283 13.0301 10.8283 13.0341 10.8283 13.0382C10.8283 13.0423 10.8283 13.0463 10.8283 13.0504C10.8283 13.0545 10.8283 13.0587 10.8283 13.0628C10.8283 13.0669 10.8283 13.0711 10.8283 13.0752C10.8283 13.0794 10.8283 13.0836 10.8283 13.0878C10.8283 13.092 10.8283 13.0962 10.8283 13.1004C10.8283 13.1047 10.8283 13.1089 10.8283 13.1132C10.8283 13.1174 10.8283 13.1217 10.8283 13.126C10.8283 13.1303 10.8283 13.1346 10.8283 13.139C10.8283 13.1433 10.8283 13.1476 10.8283 13.152C10.8283 13.1563 10.8283 13.1607 10.8283 13.1651C10.8283 13.1695 10.8283 13.1739 10.8283 13.1784C10.8283 13.1828 10.8283 13.1872 10.8283 13.1917C10.8283 13.1962 10.8283 13.2006 10.8283 13.2051C10.8283 13.2096 10.8283 13.2141 10.8283 13.2187C10.8283 13.2232 10.8283 13.2277 10.8283 13.2323C10.8283 13.2369 10.8283 13.2414 10.8283 13.246C10.8283 13.2506 10.8283 13.2552 10.8283 13.2599C10.8283 13.2645 10.8283 13.2692 10.8283 13.2738C10.8283 13.2785 10.8283 13.2832 10.8283 13.2879C10.8283 13.2926 10.8283 13.2973 10.8283 13.302C10.8283 13.3067 10.8283 13.3115 10.8283 13.3163C10.8283 13.321 10.8283 13.3258 10.8283 13.3306C10.8283 13.3354 10.8283 13.3402 10.8283 13.3451C10.8283 13.3499 10.8283 13.3548 10.8283 13.3596C10.8283 13.3645 10.8283 13.3694 10.8283 13.3743C10.8283 13.3792 10.8283 13.3841 10.8283 13.3891C10.8283 13.394 10.8283 13.399 10.8283 13.404C10.8283 13.4089 10.8283 13.4139 10.8283 13.4189C10.8283 13.424 10.8283 13.429 10.8283 13.434C10.8283 13.4391 10.8283 13.4441 10.8283 13.4492C10.8283 13.4543 10.8283 13.4594 10.8283 13.4645C10.8283 13.4697 10.8283 13.4748 10.8283 13.4799C10.8283 13.4851 10.8283 13.4903 10.8283 13.4955C10.8283 13.5007 10.8283 13.5059 10.8283 13.5111C10.8283 13.5163 10.8283 13.5216 10.8283 13.5268C10.8283 13.5321 10.8283 13.5374 10.8283 13.5427C10.8283 13.548 10.8283 13.5533 10.8283 13.5586C10.8283 13.564 10.8283 13.5693 10.8283 13.5747C10.8283 13.5801 10.8283 13.5855 10.8283 13.5909C10.8283 13.5963 10.8283 13.6017 10.8283 13.6071C10.8283 13.6126 10.8283 13.6181 10.8283 13.6235C10.8283 13.629 10.8283 13.6345 10.8283 13.64C10.8283 13.6456 10.8283 13.6511 10.8283 13.6567C10.8283 13.6622 10.8283 13.6678 10.8283 13.6734C10.8283 13.679 10.8283 13.6846 10.8283 13.6902C10.8283 13.6959 10.8283 13.7015 10.8283 13.7072C10.8283 13.7129 10.8283 13.7185 10.8283 13.7243C10.8283 13.73 10.8283 13.7357 10.8283 13.7414C10.8283 13.7472 10.8283 13.7529 10.8283 13.7587C10.8283 13.7645 10.8283 13.7703 10.8283 13.7761C10.8283 13.782 10.8283 13.7878 10.8283 13.7937C10.8283 13.7995 10.8283 13.8054 10.8283 13.8113C10.8283 13.8172 10.8283 13.8231 10.8283 13.8291C10.8283 13.835 10.8283 13.8409 10.8283 13.8469C10.8283 13.8529 10.8283 13.8589 10.8283 13.8649C10.8283 13.8709 10.8283 13.877 10.8283 13.883C10.8283 13.8891 10.8283 13.8951 10.8283 13.9012C10.8283 13.9073 10.8283 13.9134 10.8283 13.9196C10.8283 13.9257 10.8283 13.9318 10.8283 13.938C10.8283 13.9442 10.8283 13.9504 10.8283 13.9566C10.8283 13.9628 10.8283 13.969 10.8283 13.9753C10.8283 13.9815 10.8283 13.9878 10.8283 13.9941C10.8283 14.0004 10.8283 14.0067 10.8283 14.013C10.8283 14.0193 10.8283 14.0257 10.8283 14.0321C10.8283 14.0384 10.8283 14.0448 10.8283 14.0512C10.8283 14.0576 10.8283 14.0641 10.8283 14.0705C10.8283 14.077 10.8283 14.0834 10.8283 14.0899C10.8283 14.0964 10.8283 14.1029 10.8283 14.1094C10.8283 14.116 10.8283 14.1225 10.8283 14.1291C10.8283 14.1357 10.8283 14.1423 10.8283 14.1489C10.8283 14.1555 10.8283 14.1621 10.8283 14.1688C10.8283 14.1754 10.8283 14.1821 10.8283 14.1888C10.8283 14.1955 10.8283 14.2022 10.8283 14.2089C10.8283 14.2156 10.8283 14.2224 10.8283 14.2292C10.8283 14.2359 10.8283 14.2427 10.8283 14.2496C10.8283 14.2564 10.8283 14.2632 10.8283 14.2701C10.8283 14.2769 10.8283 14.2838 10.8283 14.2907C10.8283 14.2976 10.8283 14.3045 10.8283 14.3115C10.8283 14.3184 10.8283 14.3254 10.8283 14.3323C10.8283 14.3393 10.8283 14.3463 10.8283 14.3533C10.8283 14.3604 10.8283 14.3674 10.8283 14.3745C10.8283 14.3815 10.8283 14.3886 10.8283 14.3957C10.8283 14.4028 10.8283 14.41 10.8283 14.4171C10.8283 14.4243 10.8283 14.4314 10.8283 14.4386C10.8283 14.4458 10.8283 14.453 10.8283 14.4603C10.8283 14.4675 10.8283 14.4748 10.8283 14.482C10.8283 14.4893 10.8283 14.4966 10.8283 14.5039C10.8283 14.5113 10.8283 14.5186 10.8283 14.526C10.8283 14.5333 10.8283 14.5407 10.8283 14.5481C10.8283 14.5555 10.8283 14.563 10.8283 14.5704C10.8283 14.5779 10.8283 14.5853 10.8283 14.5928C10.8283 14.6003 10.8283 14.6078 10.8283 14.6154C10.8283 14.6229 10.8283 14.6305 10.8283 14.638C10.8283 14.6456 10.8283 14.6532 10.8283 14.6608C10.8283 14.6685 10.8283 14.6761 10.8283 14.6838C10.8283 14.6914 10.8283 14.6991 10.8283 14.7068C10.8283 14.7145 10.8283 14.7223 10.8283 14.73C10.8283 14.7378 10.8283 14.7456 10.8283 14.7534C10.8283 14.7612 10.8283 14.769 10.8283 14.7768C10.8283 14.7847 10.8283 14.7925 10.8283 14.8004C10.8283 14.8083 10.8283 14.8162 10.8283 14.8241C10.8283 14.8321 10.8283 14.84 10.8283 14.848C10.8283 14.856 10.8283 14.864 10.8283 14.872C10.8283 14.88 10.8283 14.8881 10.8283 14.8961C10.8283 14.9042 10.8283 14.9123 10.8283 14.9204C10.8283 14.9285 10.8283 14.9366 10.8283 14.9448C10.8283 14.953 10.8283 14.9611 10.8283 14.9693C10.8283 14.9775 10.8283 14.9858 10.8283 14.994C10.8283 15.0023 10.8283 15.0105 10.8283 15.0188C10.8283 15.0271 10.8283 15.0354 10.8283 15.0438C10.8283 15.0521 10.8283 15.0605 10.8283 15.0688C10.8283 15.0772 10.8283 15.0856 10.8283 15.0941C10.8283 15.1025 10.8283 15.1109 10.8283 15.1194C10.8283 15.1279 10.8283 15.1364 10.8283 15.1449C10.8283 15.1534 10.8283 15.162 10.8283 15.1706C10.8283 15.1791 10.8283 15.1877 10.8283 15.1963C10.8283 15.2049 10.8283 15.2136 10.8283 15.2222C10.8283 15.2309 10.8283 15.2396 10.8283 15.2483C10.8283 15.257 10.8283 15.2657 10.8283 15.2745C10.8283 15.2832 10.8283 15.292 10.8283 15.3008C10.8283 15.3096 10.8283 15.3184 10.8283 15.3273C10.8283 15.3361 10.8283 15.345 10.8283 15.3539C10.8283 15.3628 10.8283 15.3717 10.8283 15.3807C10.8283 15.3896 10.8283 15.3986 10.8283 15.4076C10.8283 15.4165 10.8283 15.4256 10.8283 15.4346C10.8283 15.4436 10.8283 15.4527 10.8283 15.4618C10.8283 15.4709 10.8283 15.48 10.8283 15.4891C10.8283 15.4982 10.8283 15.5074 10.8283 15.5166C10.8283 15.5258 10.8283 15.535 10.8283 15.5442C10.8283 15.5534 10.8283 15.5627 10.8283 15.5719C10.8283 15.5812 10.8283 15.5905 10.8283 15.5999C10.8283 15.6092 10.8283 15.6185 10.8283 15.6279C10.8283 15.6373 10.8283 15.6467 10.8283 15.6561C10.8283 15.6655 10.8283 15.675 10.8283 15.6844C10.8283 15.6939 10.8283 15.7034 10.8283 15.7129C10.8283 15.7224 10.8283 15.732 10.8283 15.7415C10.8283 15.7511 10.8283 15.7607 10.8283 15.7703C10.8283 15.7799 10.8283 15.7896 10.8283 15.7992C10.8283 15.8089 10.8283 15.8186 10.8283 15.8283C10.8283 15.838 10.8283 15.8478 10.8283 15.8575C10.8283 15.8673 10.8283 15.8771 10.8283 15.8869C10.8283 15.8967 10.8283 15.9066 10.8283 15.9164C10.8283 15.9263 10.8283 15.9362 10.8283 15.9461C10.8283 15.956 10.8283 15.9659 10.8283 15.9759C10.8283 15.9859 10.8283 15.9959 10.8283 16.0059C10.8283 16.0159 10.8283 16.0259 10.8283 16.036C10.8283 16.0461 10.8283 16.0561 10.8283 16.0663C10.8283 16.0764 10.8283 16.0865 10.8283 16.0967C10.8283 16.1068 10.8283 16.117 10.8283 16.1272C10.8283 16.1375 10.8283 16.1477 10.8283 16.158C10.8283 16.1682 10.8283 16.1785 10.8283 16.1888C10.8283 16.1992 10.8283 16.2095 10.8283 16.2199C10.8283 16.2302 10.8283 16.2406 10.8283 16.251C10.8283 16.2615 10.8283 16.2719 10.8283 16.2824C10.8283 16.2928 10.8283 16.3033 10.8283 16.3139C10.8283 16.3244 10.8283 16.3349 10.8283 16.3455C10.8283 16.3561 10.8283 16.3667 10.8283 16.3773C10.8283 16.3879 10.8283 16.3986 10.8283 16.4092C10.8283 16.4199 10.8283 16.4306 10.8283 16.4413C10.8283 16.4521 10.8283 16.4628 10.8283 16.4736C10.8283 16.4844 10.8283 16.4952 10.8283 16.506C10.8283 16.5168 10.8283 16.5277 10.8283 16.5386C10.8283 16.5495 10.8283 16.5604 10.8283 16.5713C10.8283 16.5822 10.8283 16.5932 10.8283 16.6042C10.8283 16.6152 10.8283 16.6262 10.8283 16.6372C10.8283 16.6483 10.8283 16.6593 10.8283 16.6704C10.8283 16.6815 10.8283 16.6926 10.8283 16.7038C10.8283 16.7149 10.8283 16.7261 10.8283 16.7373C10.8283 16.7485 10.8283 16.7597 10.8283 16.771C10.8283 16.7822 10.8283 16.7935 10.8283 16.8048C10.8283 16.8161 10.8283 16.8274 10.8283 16.8388C10.8283 16.8502 10.8283 16.8615 10.8283 16.873C10.8283 16.8844 10.8283 16.8958 10.8283 16.9073C10.8283 16.9187 10.8283 16.9302 10.8283 16.9417C10.8283 16.9533 10.8283 16.9648 10.8283 16.9764C10.8283 16.9879 10.8283 16.9995 10.8283 17.0112C10.8283 17.0228 10.8283 17.0345 10.8283 17.0461C10.8283 17.0578 10.8283 17.0695 10.8283 17.0813C10.8283 17.093 10.8283 17.1047 10.8283 17.1165C10.8283 17.1283 10.8283 17.1401 10.8283 17.152C10.8283 17.1638 10.8283 17.1757 10.8283 17.1876C10.8283 17.1995 10.8283 17.2114 10.8283 17.2234C10.8283 17.2353 10.8283 17.2473 10.8283 17.2593C10.8283 17.2713 10.8283 17.2833 10.8283 17.2954C10.8283 17.3075 10.8283 17.3196 10.8283 17.3317C10.8283 17.3438 10.8283 17.3559 10.8283 17.3681C10.8283 17.3803 10.8283 17.3925 10.8283 17.4047C10.8283 17.4169 10.8283 17.4292 10.8283 17.4415C10.8283 17.4537 10.8283 17.4661 10.8283 17.4784C10.8283 17.4907 10.8283 17.5031 10.8283 17.5155C10.8283 17.5279 10.8283 17.5403 10.8283 17.5528C10.8283 17.5652 10.8283 17.5777 10.8283 17.5902C10.8283 17.6027 10.8283 17.6152 10.8283 17.6278C10.8283 17.6403 10.8283 17.6529 10.8283 17.6656C10.8283 17.6782 10.8283 17.6908 10.8283 17.7035C10.8283 17.7162 10.8283 17.7289 10.8283 17.7416C10.8283 17.7543 10.8283 17.7671 10.8283 17.7799C10.8283 17.7927 10.8283 17.8055 10.8283 17.8183C10.8283 17.8312 10.8283 17.844 10.8283 17.8569C10.8283 17.8698 10.8283 17.8828 10.8283 17.8957C10.8283 17.9087 10.8283 17.9217 10.8283 17.9347C10.8283 17.9477 10.8283 17.9607 10.8283 17.9738C10.8283 17.9869 10.8283 18 10.8283 18.0131C10.8283 18.0262 10.8283 18.0394 10.8283 18.0526C10.8283 18.0657 10.8283 18.079 10.8283 18.0922C10.8283 18.1054 10.8283 18.1187 10.8283 18.132C10.8283 18.1453 10.8283 18.1586 10.8283 18.172C10.8283 18.1854 10.8283 18.1988 10.8283 18.2122C10.8283 18.2256 10.8283 18.239 10.8283 18.2525C10.8283 18.266 10.8283 18.2795 10.8283 18.293C10.8283 18.3065 10.8283 18.3201 10.8283 18.3337C10.8283 18.3473 10.8283 18.3609 10.8283 18.3746C10.8283 18.3882 10.8283 18.4019 10.8283 18.4156C10.8283 18.4293 10.8283 18.443 10.8283 18.4568C10.8283 18.4706 10.8283 18.4844 10.8283 18.4982C10.8283 18.512 10.8283 18.5259 10.8283 18.5398C10.8283 18.5536 10.8283 18.5676 10.8283 18.5815C10.8283 18.5954 10.8283 18.6094 10.8283 18.6234C10.8283 18.6374 10.8283 18.6514 10.8283 18.6655C10.8283 18.6796 10.8283 18.6937 10.8283 18.7078C10.8283 18.7219 10.8283 18.7361 10.8283 18.7502C10.8283 18.7644 10.8283 18.7786 10.8283 18.7929C10.8283 18.8071 10.8283 18.8214 10.8283 18.8357C10.8283 18.85 10.8283 18.8643 10.8283 18.8787C10.8283 18.893 10.8283 18.9074 10.8283 18.9218C10.8283 18.9362 10.8283 18.9507 10.8283 18.9652C10.8283 18.9797 10.8283 18.9942 10.8283 19.0087C10.8283 19.0232 10.8283 19.0378 10.8283 19.0524C10.8283 19.067 10.8283 19.0816 10.8283 19.0963C10.8283 19.111 10.8283 19.1257 10.8283 19.1404C10.8283 19.1551 10.8283 19.1699 10.8283 19.1846C10.8283 19.1994 10.8283 19.2142 10.8283 19.2291C10.8283 19.2439 10.8283 19.2588 10.8283 19.2737C10.8283 19.2886 10.8283 19.3035 10.8283 19.3185C10.8283 19.3335 10.8283 19.3485 10.8283 19.3635C10.8283 19.3785 10.8283 19.3936 10.8283 19.4087C10.8283 19.4237 10.8283 19.4389 10.8283 19.454C10.8283 19.4692 10.8283 19.4843 10.8283 19.4996C10.8283 19.5148 10.8283 19.53 10.8283 19.5453C10.8283 19.5606 10.8283 19.5759 10.8283 19.5912C10.8283 19.6065 10.8283 19.6219 10.8283 19.6373C10.8283 19.6527 10.8283 19.6681 10.8283 19.6836C10.8283 19.699 10.8283 19.7145 10.8283 19.73C10.8283 19.7456 10.8283 19.7611 10.8283 19.7767C10.8283 19.7923 10.8283 19.8079 10.8283 19.8236C10.8283 19.8392 10.8283 19.8549 10.8283 19.8706C10.8283 19.8863 10.8283 19.902 10.8283 19.9178C10.8283 19.9336 10.8283 19.9494 10.8283 19.9652C10.8283 19.981 10.8283 19.9969 10.8283 20.0128C10.8283 20.0287 10.8283 20.0446 10.8283 20.0606C10.8283 20.0766 10.8283 20.0926 10.8283 20.1086C10.8283 20.1246 10.8283 20.1407 10.8283 20.1567C10.8283 20.1728 10.8283 20.1889 10.8283 20.2051C10.8283 20.2213 10.8283 20.2374 10.8283 20.2536C10.8283 20.2699 10.8283 20.2861 10.8283 20.3024C10.8283 20.3187 10.8283 20.335 10.8283 20.3513C10.8283 20.3677 10.8283 20.384 10.8283 20.4004H13.1706C13.1706 20.384 13.1706 20.3677 13.1706 20.3513C13.1706 20.335 13.1706 20.3187 13.1706 20.3024C13.1706 20.2861 13.1706 20.2699 13.1706 20.2536C13.1706 20.2374 13.1706 20.2213 13.1706 20.2051C13.1706 20.1889 13.1706 20.1728 13.1706 20.1567C13.1706 20.1407 13.1706 20.1246 13.1706 20.1086C13.1706 20.0926 13.1706 20.0766 13.1706 20.0606C13.1706 20.0446 13.1706 20.0287 13.1706 20.0128C13.1706 19.9969 13.1706 19.981 13.1706 19.9652C13.1706 19.9494 13.1706 19.9336 13.1706 19.9178C13.1706 19.902 13.1706 19.8863 13.1706 19.8706C13.1706 19.8549 13.1706 19.8392 13.1706 19.8236C13.1706 19.8079 13.1706 19.7923 13.1706 19.7767C13.1706 19.7611 13.1706 19.7456 13.1706 19.73C13.1706 19.7145 13.1706 19.699 13.1706 19.6836C13.1706 19.6681 13.1706 19.6527 13.1706 19.6373C13.1706 19.6219 13.1706 19.6065 13.1706 19.5912C13.1706 19.5759 13.1706 19.5606 13.1706 19.5453C13.1706 19.53 13.1706 19.5148 13.1706 19.4996C13.1706 19.4843 13.1706 19.4692 13.1706 19.454C13.1706 19.4389 13.1706 19.4237 13.1706 19.4087C13.1706 19.3936 13.1706 19.3785 13.1706 19.3635C13.1706 19.3485 13.1706 19.3335 13.1706 19.3185C13.1706 19.3035 13.1706 19.2886 13.1706 19.2737C13.1706 19.2588 13.1706 19.2439 13.1706 19.2291C13.1706 19.2142 13.1706 19.1994 13.1706 19.1846C13.1706 19.1699 13.1706 19.1551 13.1706 19.1404C13.1706 19.1257 13.1706 19.111 13.1706 19.0963C13.1706 19.0816 13.1706 19.067 13.1706 19.0524C13.1706 19.0378 13.1706 19.0232 13.1706 19.0087C13.1706 18.9942 13.1706 18.9797 13.1706 18.9652C13.1706 18.9507 13.1706 18.9362 13.1706 18.9218C13.1706 18.9074 13.1706 18.893 13.1706 18.8787C13.1706 18.8643 13.1706 18.85 13.1706 18.8357C13.1706 18.8214 13.1706 18.8071 13.1706 18.7929C13.1706 18.7786 13.1706 18.7644 13.1706 18.7502C13.1706 18.7361 13.1706 18.7219 13.1706 18.7078C13.1706 18.6937 13.1706 18.6796 13.1706 18.6655C13.1706 18.6514 13.1706 18.6374 13.1706 18.6234C13.1706 18.6094 13.1706 18.5954 13.1706 18.5815C13.1706 18.5676 13.1706 18.5536 13.1706 18.5398C13.1706 18.5259 13.1706 18.512 13.1706 18.4982C13.1706 18.4844 13.1706 18.4706 13.1706 18.4568C13.1706 18.443 13.1706 18.4293 13.1706 18.4156C13.1706 18.4019 13.1706 18.3882 13.1706 18.3746C13.1706 18.3609 13.1706 18.3473 13.1706 18.3337C13.1706 18.3201 13.1706 18.3065 13.1706 18.293C13.1706 18.2795 13.1706 18.266 13.1706 18.2525C13.1706 18.239 13.1706 18.2256 13.1706 18.2122C13.1706 18.1988 13.1706 18.1854 13.1706 18.172C13.1706 18.1586 13.1706 18.1453 13.1706 18.132C13.1706 18.1187 13.1706 18.1054 13.1706 18.0922C13.1706 18.079 13.1706 18.0657 13.1706 18.0526C13.1706 18.0394 13.1706 18.0262 13.1706 18.0131C13.1706 18 13.1706 17.9869 13.1706 17.9738C13.1706 17.9607 13.1706 17.9477 13.1706 17.9347C13.1706 17.9217 13.1706 17.9087 13.1706 17.8957C13.1706 17.8828 13.1706 17.8698 13.1706 17.8569C13.1706 17.844 13.1706 17.8312 13.1706 17.8183C13.1706 17.8055 13.1706 17.7927 13.1706 17.7799C13.1706 17.7671 13.1706 17.7543 13.1706 17.7416C13.1706 17.7289 13.1706 17.7162 13.1706 17.7035C13.1706 17.6908 13.1706 17.6782 13.1706 17.6656C13.1706 17.6529 13.1706 17.6403 13.1706 17.6278C13.1706 17.6152 13.1706 17.6027 13.1706 17.5902C13.1706 17.5777 13.1706 17.5652 13.1706 17.5528C13.1706 17.5403 13.1706 17.5279 13.1706 17.5155C13.1706 17.5031 13.1706 17.4907 13.1706 17.4784C13.1706 17.4661 13.1706 17.4537 13.1706 17.4415C13.1706 17.4292 13.1706 17.4169 13.1706 17.4047C13.1706 17.3925 13.1706 17.3803 13.1706 17.3681C13.1706 17.3559 13.1706 17.3438 13.1706 17.3317C13.1706 17.3196 13.1706 17.3075 13.1706 17.2954C13.1706 17.2833 13.1706 17.2713 13.1706 17.2593C13.1706 17.2473 13.1706 17.2353 13.1706 17.2234C13.1706 17.2114 13.1706 17.1995 13.1706 17.1876C13.1706 17.1757 13.1706 17.1638 13.1706 17.152C13.1706 17.1401 13.1706 17.1283 13.1706 17.1165C13.1706 17.1047 13.1706 17.093 13.1706 17.0813C13.1706 17.0695 13.1706 17.0578 13.1706 17.0461C13.1706 17.0345 13.1706 17.0228 13.1706 17.0112C13.1706 16.9995 13.1706 16.9879 13.1706 16.9764C13.1706 16.9648 13.1706 16.9533 13.1706 16.9417C13.1706 16.9302 13.1706 16.9187 13.1706 16.9073C13.1706 16.8958 13.1706 16.8844 13.1706 16.873C13.1706 16.8615 13.1706 16.8502 13.1706 16.8388C13.1706 16.8274 13.1706 16.8161 13.1706 16.8048C13.1706 16.7935 13.1706 16.7822 13.1706 16.771C13.1706 16.7597 13.1706 16.7485 13.1706 16.7373C13.1706 16.7261 13.1706 16.7149 13.1706 16.7038C13.1706 16.6926 13.1706 16.6815 13.1706 16.6704C13.1706 16.6593 13.1706 16.6483 13.1706 16.6372C13.1706 16.6262 13.1706 16.6152 13.1706 16.6042C13.1706 16.5932 13.1706 16.5822 13.1706 16.5713C13.1706 16.5604 13.1706 16.5495 13.1706 16.5386C13.1706 16.5277 13.1706 16.5168 13.1706 16.506C13.1706 16.4952 13.1706 16.4844 13.1706 16.4736C13.1706 16.4628 13.1706 16.4521 13.1706 16.4413C13.1706 16.4306 13.1706 16.4199 13.1706 16.4092C13.1706 16.3986 13.1706 16.3879 13.1706 16.3773C13.1706 16.3667 13.1706 16.3561 13.1706 16.3455C13.1706 16.3349 13.1706 16.3244 13.1706 16.3139C13.1706 16.3033 13.1706 16.2928 13.1706 16.2824C13.1706 16.2719 13.1706 16.2615 13.1706 16.251C13.1706 16.2406 13.1706 16.2302 13.1706 16.2199C13.1706 16.2095 13.1706 16.1992 13.1706 16.1888C13.1706 16.1785 13.1706 16.1682 13.1706 16.158C13.1706 16.1477 13.1706 16.1375 13.1706 16.1272C13.1706 16.117 13.1706 16.1068 13.1706 16.0967C13.1706 16.0865 13.1706 16.0764 13.1706 16.0663C13.1706 16.0561 13.1706 16.0461 13.1706 16.036C13.1706 16.0259 13.1706 16.0159 13.1706 16.0059C13.1706 15.9959 13.1706 15.9859 13.1706 15.9759C13.1706 15.9659 13.1706 15.956 13.1706 15.9461C13.1706 15.9362 13.1706 15.9263 13.1706 15.9164C13.1706 15.9066 13.1706 15.8967 13.1706 15.8869C13.1706 15.8771 13.1706 15.8673 13.1706 15.8575C13.1706 15.8478 13.1706 15.838 13.1706 15.8283C13.1706 15.8186 13.1706 15.8089 13.1706 15.7992C13.1706 15.7896 13.1706 15.7799 13.1706 15.7703C13.1706 15.7607 13.1706 15.7511 13.1706 15.7415C13.1706 15.732 13.1706 15.7224 13.1706 15.7129C13.1706 15.7034 13.1706 15.6939 13.1706 15.6844C13.1706 15.675 13.1706 15.6655 13.1706 15.6561C13.1706 15.6467 13.1706 15.6373 13.1706 15.6279C13.1706 15.6185 13.1706 15.6092 13.1706 15.5999C13.1706 15.5905 13.1706 15.5812 13.1706 15.5719C13.1706 15.5627 13.1706 15.5534 13.1706 15.5442C13.1706 15.535 13.1706 15.5258 13.1706 15.5166C13.1706 15.5074 13.1706 15.4982 13.1706 15.4891C13.1706 15.48 13.1706 15.4709 13.1706 15.4618C13.1706 15.4527 13.1706 15.4436 13.1706 15.4346C13.1706 15.4256 13.1706 15.4165 13.1706 15.4076C13.1706 15.3986 13.1706 15.3896 13.1706 15.3807C13.1706 15.3717 13.1706 15.3628 13.1706 15.3539C13.1706 15.345 13.1706 15.3361 13.1706 15.3273C13.1706 15.3184 13.1706 15.3096 13.1706 15.3008C13.1706 15.292 13.1706 15.2832 13.1706 15.2745C13.1706 15.2657 13.1706 15.257 13.1706 15.2483C13.1706 15.2396 13.1706 15.2309 13.1706 15.2222C13.1706 15.2136 13.1706 15.2049 13.1706 15.1963C13.1706 15.1877 13.1706 15.1791 13.1706 15.1706C13.1706 15.162 13.1706 15.1534 13.1706 15.1449C13.1706 15.1364 13.1706 15.1279 13.1706 15.1194C13.1706 15.1109 13.1706 15.1025 13.1706 15.0941C13.1706 15.0856 13.1706 15.0772 13.1706 15.0688C13.1706 15.0605 13.1706 15.0521 13.1706 15.0438C13.1706 15.0354 13.1706 15.0271 13.1706 15.0188C13.1706 15.0105 13.1706 15.0023 13.1706 14.994C13.1706 14.9858 13.1706 14.9775 13.1706 14.9693C13.1706 14.9611 13.1706 14.953 13.1706 14.9448C13.1706 14.9366 13.1706 14.9285 13.1706 14.9204C13.1706 14.9123 13.1706 14.9042 13.1706 14.8961C13.1706 14.8881 13.1706 14.88 13.1706 14.872C13.1706 14.864 13.1706 14.856 13.1706 14.848C13.1706 14.84 13.1706 14.8321 13.1706 14.8241C13.1706 14.8162 13.1706 14.8083 13.1706 14.8004C13.1706 14.7925 13.1706 14.7847 13.1706 14.7768C13.1706 14.769 13.1706 14.7612 13.1706 14.7534C13.1706 14.7456 13.1706 14.7378 13.1706 14.73C13.1706 14.7223 13.1706 14.7145 13.1706 14.7068C13.1706 14.6991 13.1706 14.6914 13.1706 14.6838C13.1706 14.6761 13.1706 14.6685 13.1706 14.6608C13.1706 14.6532 13.1706 14.6456 13.1706 14.638C13.1706 14.6305 13.1706 14.6229 13.1706 14.6154C13.1706 14.6078 13.1706 14.6003 13.1706 14.5928C13.1706 14.5853 13.1706 14.5779 13.1706 14.5704C13.1706 14.563 13.1706 14.5555 13.1706 14.5481C13.1706 14.5407 13.1706 14.5333 13.1706 14.526C13.1706 14.5186 13.1706 14.5113 13.1706 14.5039C13.1706 14.4966 13.1706 14.4893 13.1706 14.482C13.1706 14.4748 13.1706 14.4675 13.1706 14.4603C13.1706 14.453 13.1706 14.4458 13.1706 14.4386C13.1706 14.4314 13.1706 14.4243 13.1706 14.4171C13.1706 14.41 13.1706 14.4028 13.1706 14.3957C13.1706 14.3886 13.1706 14.3815 13.1706 14.3745C13.1706 14.3674 13.1706 14.3604 13.1706 14.3533C13.1706 14.3463 13.1706 14.3393 13.1706 14.3323C13.1706 14.3254 13.1706 14.3184 13.1706 14.3115C13.1706 14.3045 13.1706 14.2976 13.1706 14.2907C13.1706 14.2838 13.1706 14.2769 13.1706 14.2701C13.1706 14.2632 13.1706 14.2564 13.1706 14.2496C13.1706 14.2427 13.1706 14.2359 13.1706 14.2292C13.1706 14.2224 13.1706 14.2156 13.1706 14.2089C13.1706 14.2022 13.1706 14.1955 13.1706 14.1888C13.1706 14.1821 13.1706 14.1754 13.1706 14.1688C13.1706 14.1621 13.1706 14.1555 13.1706 14.1489C13.1706 14.1423 13.1706 14.1357 13.1706 14.1291C13.1706 14.1225 13.1706 14.116 13.1706 14.1094C13.1706 14.1029 13.1706 14.0964 13.1706 14.0899C13.1706 14.0834 13.1706 14.077 13.1706 14.0705C13.1706 14.0641 13.1706 14.0576 13.1706 14.0512C13.1706 14.0448 13.1706 14.0384 13.1706 14.0321C13.1706 14.0257 13.1706 14.0193 13.1706 14.013C13.1706 14.0067 13.1706 14.0004 13.1706 13.9941C13.1706 13.9878 13.1706 13.9815 13.1706 13.9753C13.1706 13.969 13.1706 13.9628 13.1706 13.9566C13.1706 13.9504 13.1706 13.9442 13.1706 13.938C13.1706 13.9318 13.1706 13.9257 13.1706 13.9196C13.1706 13.9134 13.1706 13.9073 13.1706 13.9012C13.1706 13.8951 13.1706 13.8891 13.1706 13.883C13.1706 13.877 13.1706 13.8709 13.1706 13.8649C13.1706 13.8589 13.1706 13.8529 13.1706 13.8469C13.1706 13.8409 13.1706 13.835 13.1706 13.8291C13.1706 13.8231 13.1706 13.8172 13.1706 13.8113C13.1706 13.8054 13.1706 13.7995 13.1706 13.7937C13.1706 13.7878 13.1706 13.782 13.1706 13.7761C13.1706 13.7703 13.1706 13.7645 13.1706 13.7587C13.1706 13.7529 13.1706 13.7472 13.1706 13.7414C13.1706 13.7357 13.1706 13.73 13.1706 13.7243C13.1706 13.7185 13.1706 13.7129 13.1706 13.7072C13.1706 13.7015 13.1706 13.6959 13.1706 13.6902C13.1706 13.6846 13.1706 13.679 13.1706 13.6734C13.1706 13.6678 13.1706 13.6622 13.1706 13.6567C13.1706 13.6511 13.1706 13.6456 13.1706 13.64C13.1706 13.6345 13.1706 13.629 13.1706 13.6235C13.1706 13.6181 13.1706 13.6126 13.1706 13.6071C13.1706 13.6017 13.1706 13.5963 13.1706 13.5909C13.1706 13.5855 13.1706 13.5801 13.1706 13.5747C13.1706 13.5693 13.1706 13.564 13.1706 13.5586C13.1706 13.5533 13.1706 13.548 13.1706 13.5427C13.1706 13.5374 13.1706 13.5321 13.1706 13.5268C13.1706 13.5216 13.1706 13.5163 13.1706 13.5111C13.1706 13.5059 13.1706 13.5007 13.1706 13.4955C13.1706 13.4903 13.1706 13.4851 13.1706 13.4799C13.1706 13.4748 13.1706 13.4697 13.1706 13.4645C13.1706 13.4594 13.1706 13.4543 13.1706 13.4492C13.1706 13.4441 13.1706 13.4391 13.1706 13.434C13.1706 13.429 13.1706 13.424 13.1706 13.4189C13.1706 13.4139 13.1706 13.4089 13.1706 13.404C13.1706 13.399 13.1706 13.394 13.1706 13.3891C13.1706 13.3841 13.1706 13.3792 13.1706 13.3743C13.1706 13.3694 13.1706 13.3645 13.1706 13.3596C13.1706 13.3548 13.1706 13.3499 13.1706 13.3451C13.1706 13.3402 13.1706 13.3354 13.1706 13.3306C13.1706 13.3258 13.1706 13.321 13.1706 13.3163C13.1706 13.3115 13.1706 13.3067 13.1706 13.302C13.1706 13.2973 13.1706 13.2926 13.1706 13.2879C13.1706 13.2832 13.1706 13.2785 13.1706 13.2738C13.1706 13.2692 13.1706 13.2645 13.1706 13.2599C13.1706 13.2552 13.1706 13.2506 13.1706 13.246C13.1706 13.2414 13.1706 13.2369 13.1706 13.2323C13.1706 13.2277 13.1706 13.2232 13.1706 13.2187C13.1706 13.2141 13.1706 13.2096 13.1706 13.2051C13.1706 13.2006 13.1706 13.1962 13.1706 13.1917C13.1706 13.1872 13.1706 13.1828 13.1706 13.1784C13.1706 13.1739 13.1706 13.1695 13.1706 13.1651C13.1706 13.1607 13.1706 13.1563 13.1706 13.152C13.1706 13.1476 13.1706 13.1433 13.1706 13.139C13.1706 13.1346 13.1706 13.1303 13.1706 13.126C13.1706 13.1217 13.1706 13.1174 13.1706 13.1132C13.1706 13.1089 13.1706 13.1047 13.1706 13.1004C13.1706 13.0962 13.1706 13.092 13.1706 13.0878C13.1706 13.0836 13.1706 13.0794 13.1706 13.0752C13.1706 13.0711 13.1706 13.0669 13.1706 13.0628C13.1706 13.0587 13.1706 13.0545 13.1706 13.0504C13.1706 13.0463 13.1706 13.0423 13.1706 13.0382C13.1706 13.0341 13.1706 13.0301 13.1706 13.026C13.1706 13.022 13.1706 13.018 13.1706 13.014C13.1706 13.01 13.1706 13.006 13.1706 13.002C13.1706 12.998 13.1706 12.9941 13.1706 12.9901C13.1706 12.9862 13.1706 12.9822 13.1706 12.9783C13.1706 12.9744 13.1706 12.9705 13.1706 12.9666C13.1706 12.9628 13.1706 12.9589 13.1706 12.955C13.1706 12.9512 13.1706 12.9474 13.1706 12.9435C13.1706 12.9397 13.1706 12.9359 13.1706 12.9321C13.1706 12.9284 13.1706 12.9246 13.1706 12.9208C13.1706 12.9171 13.1706 12.9133 13.1706 12.9096C13.1706 12.9059 13.1706 12.9022 13.1706 12.8985C13.1706 12.8948 13.1706 12.8911 13.1706 12.8874C13.1706 12.8838 13.1706 12.8801 13.1706 12.8765C13.1706 12.8728 13.1706 12.8692 13.1706 12.8656C13.1706 12.862 13.1706 12.8584 13.1706 12.8548C13.1706 12.8513 13.1706 12.8477 13.1706 12.8442C13.1706 12.8406 13.1706 12.8371 13.1706 12.8336C13.1706 12.8301 13.1706 12.8266 13.1706 12.8231C13.1706 12.8196 13.1706 12.8161 13.1706 12.8127C13.1706 12.8092 13.1706 12.8058 13.1706 12.8023C13.1706 12.7989 13.1706 12.7955 13.1706 12.7921C13.1706 12.7887 13.1706 12.7853 13.1706 12.7819C13.1706 12.7786 13.1706 12.7752 13.1706 12.7719C13.1706 12.7685 13.1706 12.7652 13.1706 12.7619C13.1706 12.7586 13.1706 12.7553 13.1706 12.752C13.1706 12.7487 13.1706 12.7455 13.1706 12.7422C13.1706 12.739 13.1706 12.7357 13.1706 12.7325C13.1706 12.7293 13.1706 12.7261 13.1706 12.7229C13.1706 12.7197 13.1706 12.7165 13.1706 12.7133C13.1706 12.7102 13.1706 12.707 13.1706 12.7039C13.1706 12.7007 13.1706 12.6976 13.1706 12.6945C13.1706 12.6914 13.1706 12.6883 13.1706 12.6852C13.1706 12.6821 13.1706 12.679 13.1706 12.676C13.1706 12.6729 13.1706 12.6699 13.1706 12.6668C13.1706 12.6638 13.1706 12.6608 13.1706 12.6578C13.1706 12.6548 13.1706 12.6518 13.1706 12.6488C13.1706 12.6459 13.1706 12.6429 13.1706 12.64C13.1706 12.637 13.1706 12.6341 13.1706 12.6312C13.1706 12.6282 13.1706 12.6253 13.1706 12.6224C13.1706 12.6195 13.1706 12.6167 13.1706 12.6138C13.1706 12.6109 13.1706 12.6081 13.1706 12.6052C13.1706 12.6024 13.1706 12.5996 13.1706 12.5968C13.1706 12.5939 13.1706 12.5911 13.1706 12.5884C13.1706 12.5856 13.1706 12.5828 13.1706 12.58C13.1706 12.5773 13.1706 12.5745 13.1706 12.5718C13.1706 12.5691 13.1706 12.5663 13.1706 12.5636C13.1706 12.5609 13.1706 12.5582 13.1706 12.5556C13.1706 12.5529 13.1706 12.5502 13.1706 12.5475C13.1706 12.5449 13.1706 12.5422 13.1706 12.5396C13.1706 12.537 13.1706 12.5344 13.1706 12.5318C13.1706 12.5292 13.1706 12.5266 13.1706 12.524C13.1706 12.5214 13.1706 12.5188 13.1706 12.5163C13.1706 12.5137 13.1706 12.5112 13.1706 12.5087C13.1706 12.5061 13.1706 12.5036 13.1706 12.5011C13.1706 12.4986 13.1706 12.4961 13.1706 12.4936C13.1706 12.4912 13.1706 12.4887 13.1706 12.4862C13.1706 12.4838 13.1706 12.4814 13.1706 12.4789C13.1706 12.4765 13.1706 12.4741 13.1706 12.4717C13.1706 12.4693 13.1706 12.4669 13.1706 12.4645C13.1706 12.4621 13.1706 12.4598 13.1706 12.4574C13.1706 12.455 13.1706 12.4527 13.1706 12.4504C13.1706 12.448 13.1706 12.4457 13.1706 12.4434C13.1706 12.4411 13.1706 12.4388 13.1706 12.4365C13.1706 12.4342 13.1706 12.432 13.1706 12.4297C13.1706 12.4275 13.1706 12.4252 13.1706 12.423C13.1706 12.4207 13.1706 12.4185 13.1706 12.4163C13.1706 12.4141 13.1706 12.4119 13.1706 12.4097C13.1706 12.4075 13.1706 12.4053 13.1706 12.4032C13.1706 12.401 13.1706 12.3988 13.1706 12.3967C13.1706 12.3946 13.1706 12.3924 13.1706 12.3903C13.1706 12.3882 13.1706 12.3861 13.1706 12.384C13.1706 12.3819 13.1706 12.3798 13.1706 12.3777C13.1706 12.3757 13.1706 12.3736 13.1706 12.3716C13.1706 12.3695 13.1706 12.3675 13.1706 12.3654C13.1706 12.3634 13.1706 12.3614 13.1706 12.3594C13.1706 12.3574 13.1706 12.3554 13.1706 12.3534C13.1706 12.3514 13.1706 12.3495 13.1706 12.3475C13.1706 12.3455 13.1706 12.3436 13.1706 12.3416C13.1706 12.3397 13.1706 12.3378 13.1706 12.3359C13.1706 12.3339 13.1706 12.332 13.1706 12.3301C13.1706 12.3282 13.1706 12.3264 13.1706 12.3245C13.1706 12.3226 13.1706 12.3208 13.1706 12.3189C13.1706 12.317 13.1706 12.3152 13.1706 12.3134C13.1706 12.3115 13.1706 12.3097 13.1706 12.3079C13.1706 12.3061 13.1706 12.3043 13.1706 12.3025C13.1706 12.3007 13.1706 12.299 13.1706 12.2972C13.1706 12.2954 13.1706 12.2937 13.1706 12.2919C13.1706 12.2902 13.1706 12.2884 13.1706 12.2867C13.1706 12.285 13.1706 12.2833 13.1706 12.2816C13.1706 12.2799 13.1706 12.2782 13.1706 12.2765C13.1706 12.2748 13.1706 12.2731 13.1706 12.2715C13.1706 12.2698 13.1706 12.2682 13.1706 12.2665C13.1706 12.2649 13.1706 12.2632 13.1706 12.2616C13.1706 12.26 13.1706 12.2584 13.1706 12.2568C13.1706 12.2552 13.1706 12.2536 13.1706 12.252C13.1706 12.2504 13.1706 12.2489 13.1706 12.2473C13.1706 12.2457 13.1706 12.2442 13.1706 12.2426C13.1706 12.2411 13.1706 12.2396 13.1706 12.238C13.1706 12.2365 13.1706 12.235 13.1706 12.2335C13.1706 12.232 13.1706 12.2305 13.1706 12.229C13.1706 12.2275 13.1706 12.2261 13.1706 12.2246C13.1706 12.2231 13.1706 12.2217 13.1706 12.2202C13.1706 12.2188 13.1706 12.2173 13.1706 12.2159C13.1706 12.2145 13.1706 12.2131 13.1706 12.2117C13.1706 12.2103 13.1706 12.2089 13.1706 12.2075C13.1706 12.2061 13.1706 12.2047 13.1706 12.2033C13.1706 12.202 13.1706 12.2006 13.1706 12.1992C13.1706 12.1979 13.1706 12.1965 13.1706 12.1952C13.1706 12.1939 13.1706 12.1926 13.1706 12.1912C13.1706 12.1899 13.1706 12.1886 13.1706 12.1873C13.1706 12.186 13.1706 12.1847 13.1706 12.1835C13.1706 12.1822 13.1706 12.1809 13.1706 12.1796C13.1706 12.1784 13.1706 12.1771 13.1706 12.1759C13.1706 12.1746 13.1706 12.1734 13.1706 12.1722C13.1706 12.1709 13.1706 12.1697 13.1706 12.1685C13.1706 12.1673 13.1706 12.1661 13.1706 12.1649C13.1706 12.1637 13.1706 12.1625 13.1706 12.1614C13.1706 12.1602 13.1706 12.159 13.1706 12.1579C13.1706 12.1567 13.1706 12.1556 13.1706 12.1544C13.1706 12.1533 13.1706 12.1522 13.1706 12.151C13.1706 12.1499 13.1706 12.1488 13.1706 12.1477C13.1706 12.1466 13.1706 12.1455 13.1706 12.1444C13.1706 12.1433 13.1706 12.1422 13.1706 12.1411C13.1706 12.1401 13.1706 12.139 13.1706 12.1379C13.1706 12.1369 13.1706 12.1358 13.1706 12.1348C13.1706 12.1338 13.1706 12.1327 13.1706 12.1317C13.1706 12.1307 13.1706 12.1296 13.1706 12.1286C13.1706 12.1276 13.1706 12.1266 13.1706 12.1256C13.1706 12.1246 13.1706 12.1237 13.1706 12.1227C13.1706 12.1217 13.1706 12.1207 13.1706 12.1198C13.1706 12.1188 13.1706 12.1179 13.1706 12.1169C13.1706 12.116 13.1706 12.115 13.1706 12.1141C13.1706 12.1132 13.1706 12.1122 13.1706 12.1113C13.1706 12.1104 13.1706 12.1095 13.1706 12.1086C13.1706 12.1077 13.1706 12.1068 13.1706 12.1059C13.1706 12.105 13.1706 12.1041 13.1706 12.1033C13.1706 12.1024 13.1706 12.1015 13.1706 12.1007C13.1706 12.0998 13.1706 12.099 13.1706 12.0981C13.1706 12.0973 13.1706 12.0965 13.1706 12.0956C13.1706 12.0948 13.1706 12.094 13.1706 12.0932C13.1706 12.0924 13.1706 12.0915 13.1706 12.0907C13.1706 12.0899 13.1706 12.0892 13.1706 12.0884C13.1706 12.0876 13.1706 12.0868 13.1706 12.086C13.1706 12.0853 13.1706 12.0845 13.1706 12.0837C13.1706 12.083 13.1706 12.0822 13.1706 12.0815C13.1706 12.0807 13.1706 12.08 13.1706 12.0793C13.1706 12.0786 13.1706 12.0778 13.1706 12.0771C13.1706 12.0764 13.1706 12.0757 13.1706 12.075C13.1706 12.0743 13.1706 12.0736 13.1706 12.0729C13.1706 12.0722 13.1706 12.0715 13.1706 12.0708C13.1706 12.0702 13.1706 12.0695 13.1706 12.0688C13.1706 12.0682 13.1706 12.0675 13.1706 12.0669C13.1706 12.0662 13.1706 12.0656 13.1706 12.0649C13.1706 12.0643 13.1706 12.0637 13.1706 12.063C13.1706 12.0624 13.1706 12.0618 13.1706 12.0612C13.1706 12.0606 13.1706 12.0599 13.1706 12.0593C13.1706 12.0587 13.1706 12.0582 13.1706 12.0576C13.1706 12.057 13.1706 12.0564 13.1706 12.0558C13.1706 12.0552 13.1706 12.0547 13.1706 12.0541C13.1706 12.0535 13.1706 12.053 13.1706 12.0524C13.1706 12.0519 13.1706 12.0513 13.1706 12.0508C13.1706 12.0502 13.1706 12.0497 13.1706 12.0492C13.1706 12.0486 13.1706 12.0481 13.1706 12.0476C13.1706 12.0471 13.1706 12.0466 13.1706 12.0461C13.1706 12.0456 13.1706 12.0451 13.1706 12.0446C13.1706 12.0441 13.1706 12.0436 13.1706 12.0431C13.1706 12.0426 13.1706 12.0421 13.1706 12.0417C13.1706 12.0412 13.1706 12.0407 13.1706 12.0402C13.1706 12.0398 13.1706 12.0393 13.1706 12.0389C13.1706 12.0384 13.1706 12.038 13.1706 12.0375C13.1706 12.0371 13.1706 12.0367 13.1706 12.0362C13.1706 12.0358 13.1706 12.0354 13.1706 12.0349C13.1706 12.0345 13.1706 12.0341 13.1706 12.0337C13.1706 12.0333 13.1706 12.0329 13.1706 12.0325C13.1706 12.0321 13.1706 12.0317 13.1706 12.0313C13.1706 12.0309 13.1706 12.0305 13.1706 12.0301C13.1706 12.0298 13.1706 12.0294 13.1706 12.029C13.1706 12.0286 13.1706 12.0283 13.1706 12.0279C13.1706 12.0276 13.1706 12.0272 13.1706 12.0268C13.1706 12.0265 13.1706 12.0261 13.1706 12.0258C13.1706 12.0255 13.1706 12.0251 13.1706 12.0248C13.1706 12.0245 13.1706 12.0241 13.1706 12.0238C13.1706 12.0235 13.1706 12.0232 13.1706 12.0228C13.1706 12.0225 13.1706 12.0222 13.1706 12.0219C13.1706 12.0216 13.1706 12.0213 13.1706 12.021C13.1706 12.0207 13.1706 12.0204 13.1706 12.0201C13.1706 12.0198 13.1706 12.0195 13.1706 12.0193C13.1706 12.019 13.1706 12.0187 13.1706 12.0184C13.1706 12.0182 13.1706 12.0179 13.1706 12.0176C13.1706 12.0174 13.1706 12.0171 13.1706 12.0168C13.1706 12.0166 13.1706 12.0163 13.1706 12.0161C13.1706 12.0158 13.1706 12.0156 13.1706 12.0154C13.1706 12.0151 13.1706 12.0149 13.1706 12.0146C13.1706 12.0144 13.1706 12.0142 13.1706 12.014C13.1706 12.0137 13.1706 12.0135 13.1706 12.0133C13.1706 12.0131 13.1706 12.0129 13.1706 12.0127C13.1706 12.0124 13.1706 12.0122 13.1706 12.012C13.1706 12.0118 13.1706 12.0116 13.1706 12.0114C13.1706 12.0112 13.1706 12.011 13.1706 12.0109C13.1706 12.0107 13.1706 12.0105 13.1706 12.0103C13.1706 12.0101 13.1706 12.0099 13.1706 12.0098C13.1706 12.0096 13.1706 12.0094 13.1706 12.0092C13.1706 12.0091 13.1706 12.0089 13.1706 12.0087C13.1706 12.0086 13.1706 12.0084 13.1706 12.0083C13.1706 12.0081 13.1706 12.008 13.1706 12.0078C13.1706 12.0077 13.1706 12.0075 13.1706 12.0074C13.1706 12.0072 13.1706 12.0071 13.1706 12.0069C13.1706 12.0068 13.1706 12.0067 13.1706 12.0065C13.1706 12.0064 13.1706 12.0063 13.1706 12.0061C13.1706 12.006 13.1706 12.0059 13.1706 12.0058C13.1706 12.0057 13.1706 12.0055 13.1706 12.0054C13.1706 12.0053 13.1706 12.0052 13.1706 12.0051C13.1706 12.005 13.1706 12.0049 13.1706 12.0048C13.1706 12.0047 13.1706 12.0045 13.1706 12.0044C13.1706 12.0043 13.1706 12.0042 13.1706 12.0042C13.1706 12.0041 13.1706 12.004 13.1706 12.0039C13.1706 12.0038 13.1706 12.0037 13.1706 12.0036C13.1706 12.0035 13.1706 12.0034 13.1706 12.0034C13.1706 12.0033 13.1706 12.0032 13.1706 12.0031C13.1706 12.003 13.1706 12.003 13.1706 12.0029C13.1706 12.0028 13.1706 12.0028 13.1706 12.0027C13.1706 12.0026 13.1706 12.0026 13.1706 12.0025C13.1706 12.0024 13.1706 12.0024 13.1706 12.0023C13.1706 12.0022 13.1706 12.0022 13.1706 12.0021C13.1706 12.0021 13.1706 12.002 13.1706 12.002C13.1706 12.0019 13.1706 12.0019 13.1706 12.0018C13.1706 12.0018 13.1706 12.0017 13.1706 12.0017C13.1706 12.0016 13.1706 12.0016 13.1706 12.0015C13.1706 12.0015 13.1706 12.0015 13.1706 12.0014C13.1706 12.0014 13.1706 12.0013 13.1706 12.0013C13.1706 12.0013 13.1706 12.0012 13.1706 12.0012C13.1706 12.0012 13.1706 12.0011 13.1706 12.0011C13.1706 12.0011 13.1706 12.001 13.1706 12.001C13.1706 12.001 13.1706 12.001 13.1706 12.0009C13.1706 12.0009 13.1706 12.0009 13.1706 12.0009C13.1706 12.0008 13.1706 12.0008 13.1706 12.0008C13.1706 12.0008 13.1706 12.0008 13.1706 12.0007C13.1706 12.0007 13.1706 12.0007 13.1706 12.0007C13.1706 12.0007 13.1706 12.0007 13.1706 12.0007C13.1706 12.0006 13.1706 12.0006 13.1706 12.0006C13.1706 12.0006 13.1706 12.0006 13.1706 12.0006C13.1706 12.0006 13.1706 12.0006 13.1706 12.0006C13.1706 12.0005 13.1706 12.0005 13.1706 12.0005C13.1706 12.0005 13.1706 12.0005 13.1706 12.0005C13.1706 12.0005 13.1706 12.0005 13.1706 12.0005C13.1706 12.0005 13.1706 12.0005 13.1706 12.0005C13.1706 12.0005 13.1706 12.0005 13.1706 12.0005C13.1706 12.0005 13.1706 12.0005 13.1706 12.0005C13.1706 12.0005 13.1706 12.0005 13.1706 12.0005C13.1706 12.0004 13.1706 12.0004 13.1706 12.0004C13.1706 12.0004 13.1706 12.0004 13.1706 12.0004V12.0004H11.9994ZM13.1706 11.9996V3.59961H10.8283V11.9996H13.1706Z" fill="#242424"/>
</svg>
