<svg width="19" height="19" viewBox="0 0 19 19" fill="none" xmlns="http://www.w3.org/2000/svg">
<path d="M17.255 5.97467L7.75496 15.4747C7.67222 15.5577 7.5739 15.6236 7.46564 15.6685C7.35739 15.7135 7.24132 15.7366 7.1241 15.7366C7.00688 15.7366 6.89082 15.7135 6.78256 15.6685C6.6743 15.6236 6.57599 15.5577 6.49324 15.4747L2.33699 11.3184C2.25415 11.2356 2.18843 11.1372 2.1436 11.029C2.09876 10.9207 2.07568 10.8047 2.07568 10.6876C2.07568 10.5704 2.09876 10.4544 2.1436 10.3461C2.18843 10.2379 2.25415 10.1395 2.33699 10.0567C2.41984 9.97386 2.51819 9.90814 2.62643 9.8633C2.73468 9.81847 2.85069 9.79539 2.96785 9.79539C3.08502 9.79539 3.20103 9.81847 3.30927 9.8633C3.41752 9.90814 3.51587 9.97386 3.59871 10.0567L7.12485 13.5828L15.9947 4.71444C16.162 4.54712 16.389 4.45313 16.6256 4.45312C16.8622 4.45313 17.0891 4.54712 17.2564 4.71444C17.4238 4.88175 17.5178 5.10868 17.5178 5.3453C17.5178 5.58191 17.4238 5.80884 17.2564 5.97615L17.255 5.97467Z" fill="white"/>
</svg>
