<svg width="12" height="13" viewBox="0 0 12 13" fill="none" xmlns="http://www.w3.org/2000/svg">
<path d="M0.75293 5.77931C0.348107 5.77931 0.019934 6.10748 0.019934 6.5123C0.019934 6.91712 0.348107 7.2453 0.75293 7.2453V5.77931ZM6.01022 7.2453C6.41504 7.2453 6.74322 6.91712 6.74322 6.5123C6.74322 6.10748 6.41504 5.77931 6.01022 5.77931V7.2453ZM6.01025 5.77931C5.60543 5.77931 5.27726 6.10748 5.27726 6.5123C5.27726 6.91712 5.60543 7.2453 6.01025 7.2453V5.77931ZM11.2675 7.2453C11.6724 7.2453 12.0005 6.91712 12.0005 6.5123C12.0005 6.10748 11.6724 5.77931 11.2675 5.77931V7.2453ZM6.74347 6.51172C6.74347 6.1069 6.41529 5.77872 6.01047 5.77872C5.60565 5.77872 5.27747 6.1069 5.27747 6.51172H6.74347ZM5.27747 11.769C5.27747 12.1738 5.60565 12.502 6.01047 12.502C6.41529 12.502 6.74347 12.1738 6.74347 11.769H5.27747ZM5.27747 6.5112C5.27747 6.91602 5.60565 7.24419 6.01047 7.24419C6.41529 7.24419 6.74347 6.91602 6.74347 6.5112H5.27747ZM6.74347 1.25391C6.74347 0.849084 6.41529 0.520911 6.01047 0.520911C5.60565 0.520911 5.27747 0.849084 5.27747 1.25391H6.74347ZM0.75293 7.2453H6.01022V5.77931H0.75293V7.2453ZM6.01025 7.2453H11.2675V5.77931H6.01025V7.2453ZM6.01047 6.51172H5.27747C5.27747 6.51172 5.27747 6.51172 5.27747 6.51172C5.27747 6.51172 5.27747 6.51172 5.27747 6.51172C5.27747 6.51172 5.27747 6.51172 5.27747 6.51172C5.27747 6.51172 5.27747 6.51172 5.27747 6.51172C5.27747 6.51172 5.27747 6.51173 5.27747 6.51173C5.27747 6.51173 5.27747 6.51173 5.27747 6.51173C5.27747 6.51173 5.27747 6.51174 5.27747 6.51174C5.27747 6.51174 5.27747 6.51174 5.27747 6.51175C5.27747 6.51175 5.27747 6.51175 5.27747 6.51176C5.27747 6.51176 5.27747 6.51177 5.27747 6.51177C5.27747 6.51178 5.27747 6.51178 5.27747 6.51179C5.27747 6.51179 5.27747 6.5118 5.27747 6.5118C5.27747 6.51181 5.27747 6.51182 5.27747 6.51183C5.27747 6.51183 5.27747 6.51184 5.27747 6.51185C5.27747 6.51186 5.27747 6.51187 5.27747 6.51188C5.27747 6.51189 5.27747 6.5119 5.27747 6.51191C5.27747 6.51192 5.27747 6.51193 5.27747 6.51195C5.27747 6.51196 5.27747 6.51197 5.27747 6.51199C5.27747 6.512 5.27747 6.51202 5.27747 6.51203C5.27747 6.51205 5.27747 6.51206 5.27747 6.51208C5.27747 6.5121 5.27747 6.51212 5.27747 6.51214C5.27747 6.51215 5.27747 6.51217 5.27747 6.5122C5.27747 6.51222 5.27747 6.51224 5.27747 6.51226C5.27747 6.51228 5.27747 6.51231 5.27747 6.51233C5.27747 6.51236 5.27747 6.51238 5.27747 6.51241C5.27747 6.51243 5.27747 6.51246 5.27747 6.51249C5.27747 6.51252 5.27747 6.51255 5.27747 6.51258C5.27747 6.51261 5.27747 6.51264 5.27747 6.51267C5.27747 6.51271 5.27747 6.51274 5.27747 6.51278C5.27747 6.51281 5.27747 6.51285 5.27747 6.51289C5.27747 6.51292 5.27747 6.51296 5.27747 6.513C5.27747 6.51304 5.27747 6.51308 5.27747 6.51313C5.27747 6.51317 5.27747 6.51321 5.27747 6.51326C5.27747 6.5133 5.27747 6.51335 5.27747 6.5134C5.27747 6.51345 5.27747 6.5135 5.27747 6.51355C5.27747 6.5136 5.27747 6.51365 5.27747 6.5137C5.27747 6.51376 5.27747 6.51381 5.27747 6.51387C5.27747 6.51392 5.27747 6.51398 5.27747 6.51404C5.27747 6.5141 5.27747 6.51416 5.27747 6.51423C5.27747 6.51429 5.27747 6.51435 5.27747 6.51442C5.27747 6.51448 5.27747 6.51455 5.27747 6.51462C5.27747 6.51469 5.27747 6.51476 5.27747 6.51483C5.27747 6.51491 5.27747 6.51498 5.27747 6.51506C5.27747 6.51513 5.27747 6.51521 5.27747 6.51529C5.27747 6.51537 5.27747 6.51545 5.27747 6.51553C5.27747 6.51561 5.27747 6.5157 5.27747 6.51579C5.27747 6.51587 5.27747 6.51596 5.27747 6.51605C5.27747 6.51614 5.27747 6.51623 5.27747 6.51633C5.27747 6.51642 5.27747 6.51652 5.27747 6.51661C5.27747 6.51671 5.27747 6.51681 5.27747 6.51691C5.27747 6.51702 5.27747 6.51712 5.27747 6.51723C5.27747 6.51733 5.27747 6.51744 5.27747 6.51755C5.27747 6.51766 5.27747 6.51777 5.27747 6.51789C5.27747 6.518 5.27747 6.51812 5.27747 6.51824C5.27747 6.51835 5.27747 6.51847 5.27747 6.5186C5.27747 6.51872 5.27747 6.51885 5.27747 6.51897C5.27747 6.5191 5.27747 6.51923 5.27747 6.51936C5.27747 6.51949 5.27747 6.51963 5.27747 6.51976C5.27747 6.5199 5.27747 6.52004 5.27747 6.52018C5.27747 6.52032 5.27747 6.52046 5.27747 6.52061C5.27747 6.52076 5.27747 6.5209 5.27747 6.52105C5.27747 6.5212 5.27747 6.52136 5.27747 6.52151C5.27747 6.52167 5.27747 6.52183 5.27747 6.52199C5.27747 6.52215 5.27747 6.52231 5.27747 6.52248C5.27747 6.52264 5.27747 6.52281 5.27747 6.52298C5.27747 6.52315 5.27747 6.52332 5.27747 6.5235C5.27747 6.52368 5.27747 6.52385 5.27747 6.52403C5.27747 6.52422 5.27747 6.5244 5.27747 6.52459C5.27747 6.52477 5.27747 6.52496 5.27747 6.52515C5.27747 6.52535 5.27747 6.52554 5.27747 6.52574C5.27747 6.52594 5.27747 6.52614 5.27747 6.52634C5.27747 6.52654 5.27747 6.52675 5.27747 6.52696C5.27747 6.52717 5.27747 6.52738 5.27747 6.52759C5.27747 6.52781 5.27747 6.52802 5.27747 6.52824C5.27747 6.52846 5.27747 6.52869 5.27747 6.52891C5.27747 6.52914 5.27747 6.52937 5.27747 6.5296C5.27747 6.52983 5.27747 6.53007 5.27747 6.53031C5.27747 6.53055 5.27747 6.53079 5.27747 6.53103C5.27747 6.53128 5.27747 6.53152 5.27747 6.53177C5.27747 6.53202 5.27747 6.53228 5.27747 6.53254C5.27747 6.53279 5.27747 6.53305 5.27747 6.53332C5.27747 6.53358 5.27747 6.53385 5.27747 6.53412C5.27747 6.53439 5.27747 6.53466 5.27747 6.53493C5.27747 6.53521 5.27747 6.53549 5.27747 6.53577C5.27747 6.53606 5.27747 6.53634 5.27747 6.53663C5.27747 6.53692 5.27747 6.53722 5.27747 6.53751C5.27747 6.53781 5.27747 6.53811 5.27747 6.53841C5.27747 6.53872 5.27747 6.53902 5.27747 6.53933C5.27747 6.53964 5.27747 6.53996 5.27747 6.54027C5.27747 6.54059 5.27747 6.54091 5.27747 6.54124C5.27747 6.54156 5.27747 6.54189 5.27747 6.54222C5.27747 6.54255 5.27747 6.54289 5.27747 6.54323C5.27747 6.54356 5.27747 6.54391 5.27747 6.54425C5.27747 6.5446 5.27747 6.54495 5.27747 6.5453C5.27747 6.54566 5.27747 6.54601 5.27747 6.54637C5.27747 6.54673 5.27747 6.5471 5.27747 6.54747C5.27747 6.54784 5.27747 6.54821 5.27747 6.54858C5.27747 6.54896 5.27747 6.54934 5.27747 6.54973C5.27747 6.55011 5.27747 6.5505 5.27747 6.55089C5.27747 6.55128 5.27747 6.55168 5.27747 6.55208C5.27747 6.55247 5.27747 6.55288 5.27747 6.55329C5.27747 6.55369 5.27747 6.55411 5.27747 6.55452C5.27747 6.55494 5.27747 6.55536 5.27747 6.55578C5.27747 6.5562 5.27747 6.55663 5.27747 6.55706C5.27747 6.55749 5.27747 6.55793 5.27747 6.55837C5.27747 6.55881 5.27747 6.55926 5.27747 6.5597C5.27747 6.56015 5.27747 6.5606 5.27747 6.56106C5.27747 6.56152 5.27747 6.56198 5.27747 6.56244C5.27747 6.56291 5.27747 6.56338 5.27747 6.56385C5.27747 6.56433 5.27747 6.56481 5.27747 6.56529C5.27747 6.56577 5.27747 6.56626 5.27747 6.56675C5.27747 6.56724 5.27747 6.56774 5.27747 6.56824C5.27747 6.56874 5.27747 6.56924 5.27747 6.56975C5.27747 6.57026 5.27747 6.57077 5.27747 6.57129C5.27747 6.57181 5.27747 6.57233 5.27747 6.57286C5.27747 6.57339 5.27747 6.57392 5.27747 6.57445C5.27747 6.57499 5.27747 6.57553 5.27747 6.57608C5.27747 6.57662 5.27747 6.57717 5.27747 6.57773C5.27747 6.57828 5.27747 6.57884 5.27747 6.5794C5.27747 6.57997 5.27747 6.58054 5.27747 6.58111C5.27747 6.58168 5.27747 6.58226 5.27747 6.58285C5.27747 6.58343 5.27747 6.58402 5.27747 6.58461C5.27747 6.5852 5.27747 6.5858 5.27747 6.5864C5.27747 6.587 5.27747 6.58761 5.27747 6.58822C5.27747 6.58883 5.27747 6.58945 5.27747 6.59007C5.27747 6.59069 5.27747 6.59132 5.27747 6.59195C5.27747 6.59259 5.27747 6.59322 5.27747 6.59386C5.27747 6.59451 5.27747 6.59515 5.27747 6.5958C5.27747 6.59646 5.27747 6.59711 5.27747 6.59777C5.27747 6.59844 5.27747 6.5991 5.27747 6.59978C5.27747 6.60045 5.27747 6.60113 5.27747 6.60181C5.27747 6.60249 5.27747 6.60318 5.27747 6.60387C5.27747 6.60456 5.27747 6.60526 5.27747 6.60597C5.27747 6.60667 5.27747 6.60738 5.27747 6.60809C5.27747 6.60881 5.27747 6.60952 5.27747 6.61025C5.27747 6.61097 5.27747 6.6117 5.27747 6.61244C5.27747 6.61317 5.27747 6.61391 5.27747 6.61466C5.27747 6.61541 5.27747 6.61616 5.27747 6.61691C5.27747 6.61767 5.27747 6.61843 5.27747 6.6192C5.27747 6.61997 5.27747 6.62074 5.27747 6.62152C5.27747 6.6223 5.27747 6.62308 5.27747 6.62387C5.27747 6.62466 5.27747 6.62546 5.27747 6.62626C5.27747 6.62706 5.27747 6.62787 5.27747 6.62868C5.27747 6.62949 5.27747 6.63031 5.27747 6.63113C5.27747 6.63196 5.27747 6.63279 5.27747 6.63362C5.27747 6.63446 5.27747 6.6353 5.27747 6.63614C5.27747 6.63699 5.27747 6.63784 5.27747 6.6387C5.27747 6.63956 5.27747 6.64042 5.27747 6.64129C5.27747 6.64216 5.27747 6.64304 5.27747 6.64392C5.27747 6.6448 5.27747 6.64569 5.27747 6.64658C5.27747 6.64747 5.27747 6.64837 5.27747 6.64928C5.27747 6.65018 5.27747 6.65109 5.27747 6.65201C5.27747 6.65293 5.27747 6.65385 5.27747 6.65478C5.27747 6.65571 5.27747 6.65664 5.27747 6.65758C5.27747 6.65852 5.27747 6.65947 5.27747 6.66042C5.27747 6.66138 5.27747 6.66234 5.27747 6.6633C5.27747 6.66427 5.27747 6.66524 5.27747 6.66622C5.27747 6.66719 5.27747 6.66818 5.27747 6.66917C5.27747 6.67016 5.27747 6.67116 5.27747 6.67216C5.27747 6.67316 5.27747 6.67417 5.27747 6.67519C5.27747 6.6762 5.27747 6.67722 5.27747 6.67825C5.27747 6.67928 5.27747 6.68031 5.27747 6.68135C5.27747 6.68239 5.27747 6.68344 5.27747 6.68449C5.27747 6.68555 5.27747 6.68661 5.27747 6.68767C5.27747 6.68874 5.27747 6.68981 5.27747 6.69089C5.27747 6.69197 5.27747 6.69306 5.27747 6.69415C5.27747 6.69524 5.27747 6.69634 5.27747 6.69745C5.27747 6.69855 5.27747 6.69967 5.27747 6.70078C5.27747 6.7019 5.27747 6.70303 5.27747 6.70416C5.27747 6.70529 5.27747 6.70643 5.27747 6.70758C5.27747 6.70872 5.27747 6.70987 5.27747 6.71103C5.27747 6.71219 5.27747 6.71336 5.27747 6.71453C5.27747 6.7157 5.27747 6.71688 5.27747 6.71807C5.27747 6.71925 5.27747 6.72045 5.27747 6.72164C5.27747 6.72284 5.27747 6.72405 5.27747 6.72526C5.27747 6.72648 5.27747 6.7277 5.27747 6.72892C5.27747 6.73015 5.27747 6.73139 5.27747 6.73263C5.27747 6.73387 5.27747 6.73512 5.27747 6.73637C5.27747 6.73763 5.27747 6.73889 5.27747 6.74016C5.27747 6.74143 5.27747 6.7427 5.27747 6.74399C5.27747 6.74527 5.27747 6.74656 5.27747 6.74786C5.27747 6.74915 5.27747 6.75046 5.27747 6.75177C5.27747 6.75308 5.27747 6.7544 5.27747 6.75573C5.27747 6.75705 5.27747 6.75839 5.27747 6.75973C5.27747 6.76107 5.27747 6.76242 5.27747 6.76377C5.27747 6.76513 5.27747 6.76649 5.27747 6.76786C5.27747 6.76923 5.27747 6.77061 5.27747 6.77199C5.27747 6.77337 5.27747 6.77477 5.27747 6.77617C5.27747 6.77756 5.27747 6.77897 5.27747 6.78039C5.27747 6.7818 5.27747 6.78322 5.27747 6.78465C5.27747 6.78608 5.27747 6.78751 5.27747 6.78896C5.27747 6.7904 5.27747 6.79185 5.27747 6.79331C5.27747 6.79477 5.27747 6.79624 5.27747 6.79771C5.27747 6.79919 5.27747 6.80067 5.27747 6.80216C5.27747 6.80365 5.27747 6.80514 5.27747 6.80665C5.27747 6.80815 5.27747 6.80967 5.27747 6.81119C5.27747 6.81271 5.27747 6.81424 5.27747 6.81577C5.27747 6.81731 5.27747 6.81885 5.27747 6.8204C5.27747 6.82195 5.27747 6.82351 5.27747 6.82508C5.27747 6.82664 5.27747 6.82822 5.27747 6.8298C5.27747 6.83138 5.27747 6.83297 5.27747 6.83457C5.27747 6.83617 5.27747 6.83778 5.27747 6.83939C5.27747 6.84101 5.27747 6.84263 5.27747 6.84426C5.27747 6.84589 5.27747 6.84753 5.27747 6.84917C5.27747 6.85082 5.27747 6.85247 5.27747 6.85413C5.27747 6.8558 5.27747 6.85747 5.27747 6.85915C5.27747 6.86082 5.27747 6.86251 5.27747 6.8642C5.27747 6.8659 5.27747 6.8676 5.27747 6.86931C5.27747 6.87102 5.27747 6.87274 5.27747 6.87447C5.27747 6.8762 5.27747 6.87793 5.27747 6.87968C5.27747 6.88142 5.27747 6.88317 5.27747 6.88493C5.27747 6.88669 5.27747 6.88846 5.27747 6.89024C5.27747 6.89202 5.27747 6.8938 5.27747 6.8956C5.27747 6.89739 5.27747 6.89919 5.27747 6.901C5.27747 6.90281 5.27747 6.90463 5.27747 6.90646C5.27747 6.90829 5.27747 6.91012 5.27747 6.91197C5.27747 6.91381 5.27747 6.91567 5.27747 6.91753C5.27747 6.91939 5.27747 6.92126 5.27747 6.92314C5.27747 6.92502 5.27747 6.9269 5.27747 6.9288C5.27747 6.9307 5.27747 6.9326 5.27747 6.93451C5.27747 6.93643 5.27747 6.93835 5.27747 6.94028C5.27747 6.94221 5.27747 6.94415 5.27747 6.9461C5.27747 6.94804 5.27747 6.95 5.27747 6.95197C5.27747 6.95393 5.27747 6.9559 5.27747 6.95789C5.27747 6.95987 5.27747 6.96186 5.27747 6.96386C5.27747 6.96586 5.27747 6.96787 5.27747 6.96989C5.27747 6.97191 5.27747 6.97394 5.27747 6.97597C5.27747 6.97801 5.27747 6.98006 5.27747 6.98211C5.27747 6.98416 5.27747 6.98623 5.27747 6.9883C5.27747 6.99037 5.27747 6.99245 5.27747 6.99454C5.27747 6.99663 5.27747 6.99873 5.27747 7.00084C5.27747 7.00295 5.27747 7.00506 5.27747 7.00719C5.27747 7.00932 5.27747 7.01145 5.27747 7.0136C5.27747 7.01574 5.27747 7.0179 5.27747 7.02006C5.27747 7.02222 5.27747 7.0244 5.27747 7.02658C5.27747 7.02876 5.27747 7.03095 5.27747 7.03315C5.27747 7.03535 5.27747 7.03756 5.27747 7.03978C5.27747 7.042 5.27747 7.04423 5.27747 7.04646C5.27747 7.0487 5.27747 7.05095 5.27747 7.0532C5.27747 7.05546 5.27747 7.05772 5.27747 7.06C5.27747 7.06227 5.27747 7.06456 5.27747 7.06685C5.27747 7.06915 5.27747 7.07145 5.27747 7.07376C5.27747 7.07608 5.27747 7.0784 5.27747 7.08073C5.27747 7.08306 5.27747 7.0854 5.27747 7.08776C5.27747 7.09011 5.27747 7.09247 5.27747 7.09484C5.27747 7.09721 5.27747 7.09959 5.27747 7.10198C5.27747 7.10437 5.27747 7.10677 5.27747 7.10918C5.27747 7.11159 5.27747 7.114 5.27747 7.11643C5.27747 7.11886 5.27747 7.1213 5.27747 7.12375C5.27747 7.1262 5.27747 7.12865 5.27747 7.13112C5.27747 7.13359 5.27747 7.13607 5.27747 7.13855C5.27747 7.14104 5.27747 7.14354 5.27747 7.14605C5.27747 7.14855 5.27747 7.15107 5.27747 7.1536C5.27747 7.15613 5.27747 7.15866 5.27747 7.16121C5.27747 7.16376 5.27747 7.16631 5.27747 7.16888C5.27747 7.17145 5.27747 7.17402 5.27747 7.17661C5.27747 7.1792 5.27747 7.1818 5.27747 7.1844C5.27747 7.18701 5.27747 7.18963 5.27747 7.19226C5.27747 7.19488 5.27747 7.19752 5.27747 7.20017C5.27747 7.20282 5.27747 7.20547 5.27747 7.20814C5.27747 7.21081 5.27747 7.21349 5.27747 7.21618C5.27747 7.21887 5.27747 7.22157 5.27747 7.22428C5.27747 7.22698 5.27747 7.2297 5.27747 7.23243C5.27747 7.23516 5.27747 7.2379 5.27747 7.24066C5.27747 7.24341 5.27747 7.24617 5.27747 7.24894C5.27747 7.25171 5.27747 7.25449 5.27747 7.25728C5.27747 7.26008 5.27747 7.26288 5.27747 7.26569C5.27747 7.26851 5.27747 7.27133 5.27747 7.27416C5.27747 7.277 5.27747 7.27984 5.27747 7.2827C5.27747 7.28555 5.27747 7.28842 5.27747 7.2913C5.27747 7.29417 5.27747 7.29706 5.27747 7.29996C5.27747 7.30286 5.27747 7.30577 5.27747 7.30869C5.27747 7.3116 5.27747 7.31453 5.27747 7.31748C5.27747 7.32042 5.27747 7.32337 5.27747 7.32633C5.27747 7.32929 5.27747 7.33226 5.27747 7.33525C5.27747 7.33823 5.27747 7.34123 5.27747 7.34423C5.27747 7.34724 5.27747 7.35025 5.27747 7.35328C5.27747 7.35631 5.27747 7.35935 5.27747 7.3624C5.27747 7.36544 5.27747 7.3685 5.27747 7.37158C5.27747 7.37465 5.27747 7.37773 5.27747 7.38082C5.27747 7.38391 5.27747 7.38702 5.27747 7.39013C5.27747 7.39325 5.27747 7.39637 5.27747 7.39951C5.27747 7.40265 5.27747 7.4058 5.27747 7.40896C5.27747 7.41212 5.27747 7.41529 5.27747 7.41847C5.27747 7.42165 5.27747 7.42484 5.27747 7.42805C5.27747 7.43125 5.27747 7.43446 5.27747 7.43769C5.27747 7.44092 5.27747 7.44415 5.27747 7.4474C5.27747 7.45065 5.27747 7.45391 5.27747 7.45718C5.27747 7.46046 5.27747 7.46374 5.27747 7.46703C5.27747 7.47033 5.27747 7.47363 5.27747 7.47695C5.27747 7.48027 5.27747 7.48359 5.27747 7.48693C5.27747 7.49027 5.27747 7.49363 5.27747 7.49699C5.27747 7.50035 5.27747 7.50373 5.27747 7.50711C5.27747 7.5105 5.27747 7.51389 5.27747 7.5173C5.27747 7.52071 5.27747 7.52413 5.27747 7.52756C5.27747 7.531 5.27747 7.53444 5.27747 7.53789C5.27747 7.54135 5.27747 7.54482 5.27747 7.54829C5.27747 7.55177 5.27747 7.55526 5.27747 7.55876C5.27747 7.56227 5.27747 7.56578 5.27747 7.5693C5.27747 7.57283 5.27747 7.57637 5.27747 7.57992C5.27747 7.58347 5.27747 7.58703 5.27747 7.5906C5.27747 7.59417 5.27747 7.59775 5.27747 7.60135C5.27747 7.60495 5.27747 7.60856 5.27747 7.61217C5.27747 7.6158 5.27747 7.61943 5.27747 7.62307C5.27747 7.62671 5.27747 7.63037 5.27747 7.63404C5.27747 7.63771 5.27747 7.64139 5.27747 7.64508C5.27747 7.64877 5.27747 7.65247 5.27747 7.65619C5.27747 7.6599 5.27747 7.66363 5.27747 7.66737C5.27747 7.67111 5.27747 7.67486 5.27747 7.67863C5.27747 7.68239 5.27747 7.68617 5.27747 7.68996C5.27747 7.69375 5.27747 7.69755 5.27747 7.70136C5.27747 7.70517 5.27747 7.709 5.27747 7.71284C5.27747 7.71667 5.27747 7.72052 5.27747 7.72438C5.27747 7.72825 5.27747 7.73212 5.27747 7.73601C5.27747 7.73989 5.27747 7.74379 5.27747 7.7477C5.27747 7.75162 5.27747 7.75554 5.27747 7.75948C5.27747 7.76341 5.27747 7.76736 5.27747 7.77132C5.27747 7.77528 5.27747 7.77926 5.27747 7.78324C5.27747 7.78723 5.27747 7.79123 5.27747 7.79524C5.27747 7.79925 5.27747 7.80327 5.27747 7.80731C5.27747 7.81134 5.27747 7.81539 5.27747 7.81945C5.27747 7.82351 5.27747 7.82759 5.27747 7.83168C5.27747 7.83576 5.27747 7.83986 5.27747 7.84397C5.27747 7.84808 5.27747 7.85221 5.27747 7.85635C5.27747 7.86048 5.27747 7.86463 5.27747 7.8688C5.27747 7.87296 5.27747 7.87714 5.27747 7.88132C5.27747 7.88551 5.27747 7.88971 5.27747 7.89393C5.27747 7.89814 5.27747 7.90237 5.27747 7.90661C5.27747 7.91085 5.27747 7.9151 5.27747 7.91937C5.27747 7.92363 5.27747 7.92791 5.27747 7.9322C5.27747 7.93649 5.27747 7.9408 5.27747 7.94512C5.27747 7.94943 5.27747 7.95376 5.27747 7.95811C5.27747 7.96245 5.27747 7.96681 5.27747 7.97118C5.27747 7.97555 5.27747 7.97993 5.27747 7.98432C5.27747 7.98872 5.27747 7.99313 5.27747 7.99755C5.27747 8.00197 5.27747 8.00641 5.27747 8.01086C5.27747 8.01531 5.27747 8.01977 5.27747 8.02424C5.27747 8.02872 5.27747 8.03321 5.27747 8.03771C5.27747 8.04221 5.27747 8.04672 5.27747 8.05125C5.27747 8.05578 5.27747 8.06032 5.27747 8.06488C5.27747 8.06943 5.27747 8.074 5.27747 8.07858C5.27747 8.08316 5.27747 8.08776 5.27747 8.09236C5.27747 8.09697 5.27747 8.10159 5.27747 8.10623C5.27747 8.11086 5.27747 8.11551 5.27747 8.12018C5.27747 8.12484 5.27747 8.12951 5.27747 8.1342C5.27747 8.13889 5.27747 8.14359 5.27747 8.14831C5.27747 8.15303 5.27747 8.15776 5.27747 8.1625C5.27747 8.16724 5.27747 8.172 5.27747 8.17677C5.27747 8.18154 5.27747 8.18633 5.27747 8.19113C5.27747 8.19593 5.27747 8.20074 5.27747 8.20556C5.27747 8.21039 5.27747 8.21523 5.27747 8.22008C5.27747 8.22493 5.27747 8.2298 5.27747 8.23468C5.27747 8.23956 5.27747 8.24446 5.27747 8.24937C5.27747 8.25428 5.27747 8.2592 5.27747 8.26413C5.27747 8.26907 5.27747 8.27402 5.27747 8.27899C5.27747 8.28395 5.27747 8.28893 5.27747 8.29392C5.27747 8.29891 5.27747 8.30392 5.27747 8.30894C5.27747 8.31396 5.27747 8.31899 5.27747 8.32404C5.27747 8.32909 5.27747 8.33415 5.27747 8.33923C5.27747 8.3443 5.27747 8.34939 5.27747 8.3545C5.27747 8.3596 5.27747 8.36472 5.27747 8.36986C5.27747 8.37499 5.27747 8.38014 5.27747 8.3853C5.27747 8.39046 5.27747 8.39563 5.27747 8.40082C5.27747 8.40601 5.27747 8.41122 5.27747 8.41644C5.27747 8.42166 5.27747 8.42689 5.27747 8.43214C5.27747 8.43738 5.27747 8.44264 5.27747 8.44792C5.27747 8.45319 5.27747 8.45849 5.27747 8.46379C5.27747 8.46909 5.27747 8.47441 5.27747 8.47975C5.27747 8.48508 5.27747 8.49043 5.27747 8.49579C5.27747 8.50115 5.27747 8.50653 5.27747 8.51192C5.27747 8.51731 5.27747 8.52272 5.27747 8.52814C5.27747 8.53356 5.27747 8.53899 5.27747 8.54444C5.27747 8.54989 5.27747 8.55536 5.27747 8.56084C5.27747 8.56632 5.27747 8.57181 5.27747 8.57732C5.27747 8.58283 5.27747 8.58835 5.27747 8.59389C5.27747 8.59942 5.27747 8.60498 5.27747 8.61054C5.27747 8.61611 5.27747 8.62169 5.27747 8.62729C5.27747 8.63289 5.27747 8.6385 5.27747 8.64412C5.27747 8.64975 5.27747 8.65539 5.27747 8.66105C5.27747 8.6667 5.27747 8.67237 5.27747 8.67806C5.27747 8.68375 5.27747 8.68945 5.27747 8.69516C5.27747 8.70088 5.27747 8.70661 5.27747 8.71236C5.27747 8.7181 5.27747 8.72386 5.27747 8.72964C5.27747 8.73541 5.27747 8.7412 5.27747 8.74701C5.27747 8.75282 5.27747 8.75864 5.27747 8.76447C5.27747 8.77031 5.27747 8.77616 5.27747 8.78203C5.27747 8.78789 5.27747 8.79378 5.27747 8.79967C5.27747 8.80557 5.27747 8.81148 5.27747 8.81741C5.27747 8.82334 5.27747 8.82928 5.27747 8.83524C5.27747 8.84119 5.27747 8.84717 5.27747 8.85316C5.27747 8.85914 5.27747 8.86515 5.27747 8.87117C5.27747 8.87719 5.27747 8.88322 5.27747 8.88927C5.27747 8.89532 5.27747 8.90138 5.27747 8.90746C5.27747 8.91355 5.27747 8.91964 5.27747 8.92575C5.27747 8.93186 5.27747 8.93799 5.27747 8.94413C5.27747 8.95028 5.27747 8.95643 5.27747 8.96261C5.27747 8.96878 5.27747 8.97497 5.27747 8.98117C5.27747 8.98738 5.27747 8.9936 5.27747 8.99984C5.27747 9.00607 5.27747 9.01232 5.27747 9.01859C5.27747 9.02486 5.27747 9.03114 5.27747 9.03744C5.27747 9.04374 5.27747 9.05005 5.27747 9.05638C5.27747 9.06271 5.27747 9.06906 5.27747 9.07542C5.27747 9.08178 5.27747 9.08816 5.27747 9.09455C5.27747 9.10094 5.27747 9.10735 5.27747 9.11378C5.27747 9.1202 5.27747 9.12664 5.27747 9.1331C5.27747 9.13956 5.27747 9.14603 5.27747 9.15252C5.27747 9.15901 5.27747 9.16551 5.27747 9.17203C5.27747 9.17855 5.27747 9.18509 5.27747 9.19164C5.27747 9.19819 5.27747 9.20476 5.27747 9.21135C5.27747 9.21793 5.27747 9.22453 5.27747 9.23115C5.27747 9.23776 5.27747 9.2444 5.27747 9.25104C5.27747 9.25769 5.27747 9.26436 5.27747 9.27104C5.27747 9.27772 5.27747 9.28442 5.27747 9.29113C5.27747 9.29785 5.27747 9.30457 5.27747 9.31132C5.27747 9.31807 5.27747 9.32483 5.27747 9.33161C5.27747 9.33839 5.27747 9.34518 5.27747 9.35199C5.27747 9.3588 5.27747 9.36563 5.27747 9.37248C5.27747 9.37932 5.27747 9.38618 5.27747 9.39306C5.27747 9.39993 5.27747 9.40683 5.27747 9.41374C5.27747 9.42065 5.27747 9.42757 5.27747 9.43451C5.27747 9.44146 5.27747 9.44842 5.27747 9.45539C5.27747 9.46237 5.27747 9.46936 5.27747 9.47637C5.27747 9.48338 5.27747 9.4904 5.27747 9.49744C5.27747 9.50448 5.27747 9.51154 5.27747 9.51862C5.27747 9.52569 5.27747 9.53278 5.27747 9.53989C5.27747 9.547 5.27747 9.55413 5.27747 9.56127C5.27747 9.56841 5.27747 9.57557 5.27747 9.58274C5.27747 9.58992 5.27747 9.59711 5.27747 9.60432C5.27747 9.61153 5.27747 9.61876 5.27747 9.626C5.27747 9.63324 5.27747 9.6405 5.27747 9.64778C5.27747 9.65505 5.27747 9.66234 5.27747 9.66965C5.27747 9.67696 5.27747 9.68429 5.27747 9.69164C5.27747 9.69898 5.27747 9.70634 5.27747 9.71372C5.27747 9.7211 5.27747 9.72849 5.27747 9.7359C5.27747 9.74331 5.27747 9.75074 5.27747 9.75819C5.27747 9.76564 5.27747 9.7731 5.27747 9.78058C5.27747 9.78806 5.27747 9.79556 5.27747 9.80307C5.27747 9.81059 5.27747 9.81812 5.27747 9.82567C5.27747 9.83322 5.27747 9.84078 5.27747 9.84836C5.27747 9.85595 5.27747 9.86355 5.27747 9.87117C5.27747 9.87878 5.27747 9.88642 5.27747 9.89407C5.27747 9.90172 5.27747 9.90939 5.27747 9.91708C5.27747 9.92477 5.27747 9.93247 5.27747 9.94019C5.27747 9.94792 5.27747 9.95566 5.27747 9.96341C5.27747 9.97117 5.27747 9.97894 5.27747 9.98673C5.27747 9.99452 5.27747 10.0023 5.27747 10.0102C5.27747 10.018 5.27747 10.0258 5.27747 10.0337C5.27747 10.0416 5.27747 10.0494 5.27747 10.0573C5.27747 10.0652 5.27747 10.0731 5.27747 10.0811C5.27747 10.089 5.27747 10.097 5.27747 10.1049C5.27747 10.1129 5.27747 10.1209 5.27747 10.1289C5.27747 10.1369 5.27747 10.1449 5.27747 10.1529C5.27747 10.161 5.27747 10.169 5.27747 10.1771C5.27747 10.1852 5.27747 10.1933 5.27747 10.2014C5.27747 10.2095 5.27747 10.2176 5.27747 10.2258C5.27747 10.2339 5.27747 10.2421 5.27747 10.2502C5.27747 10.2584 5.27747 10.2666 5.27747 10.2748C5.27747 10.2831 5.27747 10.2913 5.27747 10.2995C5.27747 10.3078 5.27747 10.3161 5.27747 10.3244C5.27747 10.3326 5.27747 10.341 5.27747 10.3493C5.27747 10.3576 5.27747 10.3659 5.27747 10.3743C5.27747 10.3827 5.27747 10.391 5.27747 10.3994C5.27747 10.4078 5.27747 10.4163 5.27747 10.4247C5.27747 10.4331 5.27747 10.4416 5.27747 10.45C5.27747 10.4585 5.27747 10.467 5.27747 10.4755C5.27747 10.484 5.27747 10.4925 5.27747 10.5011C5.27747 10.5096 5.27747 10.5182 5.27747 10.5268C5.27747 10.5353 5.27747 10.5439 5.27747 10.5525C5.27747 10.5612 5.27747 10.5698 5.27747 10.5785C5.27747 10.5871 5.27747 10.5958 5.27747 10.6045C5.27747 10.6132 5.27747 10.6219 5.27747 10.6306C5.27747 10.6393 5.27747 10.6481 5.27747 10.6568C5.27747 10.6656 5.27747 10.6744 5.27747 10.6832C5.27747 10.692 5.27747 10.7008 5.27747 10.7096C5.27747 10.7185 5.27747 10.7273 5.27747 10.7362C5.27747 10.7451 5.27747 10.754 5.27747 10.7629C5.27747 10.7718 5.27747 10.7807 5.27747 10.7897C5.27747 10.7986 5.27747 10.8076 5.27747 10.8166C5.27747 10.8256 5.27747 10.8346 5.27747 10.8436C5.27747 10.8526 5.27747 10.8617 5.27747 10.8707C5.27747 10.8798 5.27747 10.8889 5.27747 10.898C5.27747 10.9071 5.27747 10.9162 5.27747 10.9253C5.27747 10.9345 5.27747 10.9436 5.27747 10.9528C5.27747 10.962 5.27747 10.9712 5.27747 10.9804C5.27747 10.9896 5.27747 10.9988 5.27747 11.0081C5.27747 11.0173 5.27747 11.0266 5.27747 11.0359C5.27747 11.0452 5.27747 11.0545 5.27747 11.0638C5.27747 11.0731 5.27747 11.0825 5.27747 11.0919C5.27747 11.1012 5.27747 11.1106 5.27747 11.12C5.27747 11.1294 5.27747 11.1388 5.27747 11.1483C5.27747 11.1577 5.27747 11.1672 5.27747 11.1767C5.27747 11.1862 5.27747 11.1957 5.27747 11.2052C5.27747 11.2147 5.27747 11.2242 5.27747 11.2338C5.27747 11.2434 5.27747 11.2529 5.27747 11.2625C5.27747 11.2721 5.27747 11.2817 5.27747 11.2914C5.27747 11.301 5.27747 11.3107 5.27747 11.3203C5.27747 11.33 5.27747 11.3397 5.27747 11.3494C5.27747 11.3591 5.27747 11.3689 5.27747 11.3786C5.27747 11.3884 5.27747 11.3982 5.27747 11.408C5.27747 11.4177 5.27747 11.4276 5.27747 11.4374C5.27747 11.4472 5.27747 11.4571 5.27747 11.4669C5.27747 11.4768 5.27747 11.4867 5.27747 11.4966C5.27747 11.5065 5.27747 11.5165 5.27747 11.5264C5.27747 11.5364 5.27747 11.5463 5.27747 11.5563C5.27747 11.5663 5.27747 11.5763 5.27747 11.5863C5.27747 11.5964 5.27747 11.6064 5.27747 11.6165C5.27747 11.6266 5.27747 11.6366 5.27747 11.6468C5.27747 11.6569 5.27747 11.667 5.27747 11.6771C5.27747 11.6873 5.27747 11.6975 5.27747 11.7076C5.27747 11.7178 5.27747 11.728 5.27747 11.7383C5.27747 11.7485 5.27747 11.7587 5.27747 11.769H6.74347C6.74347 11.7587 6.74347 11.7485 6.74347 11.7383C6.74347 11.728 6.74347 11.7178 6.74347 11.7076C6.74347 11.6975 6.74347 11.6873 6.74347 11.6771C6.74347 11.667 6.74347 11.6569 6.74347 11.6468C6.74347 11.6366 6.74347 11.6266 6.74347 11.6165C6.74347 11.6064 6.74347 11.5964 6.74347 11.5863C6.74347 11.5763 6.74347 11.5663 6.74347 11.5563C6.74347 11.5463 6.74347 11.5364 6.74347 11.5264C6.74347 11.5165 6.74347 11.5065 6.74347 11.4966C6.74347 11.4867 6.74347 11.4768 6.74347 11.4669C6.74347 11.4571 6.74347 11.4472 6.74347 11.4374C6.74347 11.4276 6.74347 11.4177 6.74347 11.408C6.74347 11.3982 6.74347 11.3884 6.74347 11.3786C6.74347 11.3689 6.74347 11.3591 6.74347 11.3494C6.74347 11.3397 6.74347 11.33 6.74347 11.3203C6.74347 11.3107 6.74347 11.301 6.74347 11.2914C6.74347 11.2817 6.74347 11.2721 6.74347 11.2625C6.74347 11.2529 6.74347 11.2434 6.74347 11.2338C6.74347 11.2242 6.74347 11.2147 6.74347 11.2052C6.74347 11.1957 6.74347 11.1862 6.74347 11.1767C6.74347 11.1672 6.74347 11.1577 6.74347 11.1483C6.74347 11.1388 6.74347 11.1294 6.74347 11.12C6.74347 11.1106 6.74347 11.1012 6.74347 11.0919C6.74347 11.0825 6.74347 11.0731 6.74347 11.0638C6.74347 11.0545 6.74347 11.0452 6.74347 11.0359C6.74347 11.0266 6.74347 11.0173 6.74347 11.0081C6.74347 10.9988 6.74347 10.9896 6.74347 10.9804C6.74347 10.9712 6.74347 10.962 6.74347 10.9528C6.74347 10.9436 6.74347 10.9345 6.74347 10.9253C6.74347 10.9162 6.74347 10.9071 6.74347 10.898C6.74347 10.8889 6.74347 10.8798 6.74347 10.8707C6.74347 10.8617 6.74347 10.8526 6.74347 10.8436C6.74347 10.8346 6.74347 10.8256 6.74347 10.8166C6.74347 10.8076 6.74347 10.7986 6.74347 10.7897C6.74347 10.7807 6.74347 10.7718 6.74347 10.7629C6.74347 10.754 6.74347 10.7451 6.74347 10.7362C6.74347 10.7273 6.74347 10.7185 6.74347 10.7096C6.74347 10.7008 6.74347 10.692 6.74347 10.6832C6.74347 10.6744 6.74347 10.6656 6.74347 10.6568C6.74347 10.6481 6.74347 10.6393 6.74347 10.6306C6.74347 10.6219 6.74347 10.6132 6.74347 10.6045C6.74347 10.5958 6.74347 10.5871 6.74347 10.5785C6.74347 10.5698 6.74347 10.5612 6.74347 10.5525C6.74347 10.5439 6.74347 10.5353 6.74347 10.5268C6.74347 10.5182 6.74347 10.5096 6.74347 10.5011C6.74347 10.4925 6.74347 10.484 6.74347 10.4755C6.74347 10.467 6.74347 10.4585 6.74347 10.45C6.74347 10.4416 6.74347 10.4331 6.74347 10.4247C6.74347 10.4163 6.74347 10.4078 6.74347 10.3994C6.74347 10.391 6.74347 10.3827 6.74347 10.3743C6.74347 10.3659 6.74347 10.3576 6.74347 10.3493C6.74347 10.341 6.74347 10.3326 6.74347 10.3244C6.74347 10.3161 6.74347 10.3078 6.74347 10.2995C6.74347 10.2913 6.74347 10.2831 6.74347 10.2748C6.74347 10.2666 6.74347 10.2584 6.74347 10.2502C6.74347 10.2421 6.74347 10.2339 6.74347 10.2258C6.74347 10.2176 6.74347 10.2095 6.74347 10.2014C6.74347 10.1933 6.74347 10.1852 6.74347 10.1771C6.74347 10.169 6.74347 10.161 6.74347 10.1529C6.74347 10.1449 6.74347 10.1369 6.74347 10.1289C6.74347 10.1209 6.74347 10.1129 6.74347 10.1049C6.74347 10.097 6.74347 10.089 6.74347 10.0811C6.74347 10.0731 6.74347 10.0652 6.74347 10.0573C6.74347 10.0494 6.74347 10.0416 6.74347 10.0337C6.74347 10.0258 6.74347 10.018 6.74347 10.0102C6.74347 10.0023 6.74347 9.99452 6.74347 9.98673C6.74347 9.97894 6.74347 9.97117 6.74347 9.96341C6.74347 9.95566 6.74347 9.94792 6.74347 9.94019C6.74347 9.93247 6.74347 9.92477 6.74347 9.91708C6.74347 9.90939 6.74347 9.90172 6.74347 9.89407C6.74347 9.88642 6.74347 9.87878 6.74347 9.87117C6.74347 9.86355 6.74347 9.85595 6.74347 9.84836C6.74347 9.84078 6.74347 9.83322 6.74347 9.82567C6.74347 9.81812 6.74347 9.81059 6.74347 9.80307C6.74347 9.79556 6.74347 9.78806 6.74347 9.78058C6.74347 9.7731 6.74347 9.76564 6.74347 9.75819C6.74347 9.75074 6.74347 9.74331 6.74347 9.7359C6.74347 9.72849 6.74347 9.7211 6.74347 9.71372C6.74347 9.70634 6.74347 9.69898 6.74347 9.69164C6.74347 9.68429 6.74347 9.67696 6.74347 9.66965C6.74347 9.66234 6.74347 9.65505 6.74347 9.64778C6.74347 9.6405 6.74347 9.63324 6.74347 9.626C6.74347 9.61876 6.74347 9.61153 6.74347 9.60432C6.74347 9.59711 6.74347 9.58992 6.74347 9.58274C6.74347 9.57557 6.74347 9.56841 6.74347 9.56127C6.74347 9.55413 6.74347 9.547 6.74347 9.53989C6.74347 9.53278 6.74347 9.52569 6.74347 9.51862C6.74347 9.51154 6.74347 9.50448 6.74347 9.49744C6.74347 9.4904 6.74347 9.48338 6.74347 9.47637C6.74347 9.46936 6.74347 9.46237 6.74347 9.45539C6.74347 9.44842 6.74347 9.44146 6.74347 9.43451C6.74347 9.42757 6.74347 9.42065 6.74347 9.41374C6.74347 9.40683 6.74347 9.39993 6.74347 9.39306C6.74347 9.38618 6.74347 9.37932 6.74347 9.37248C6.74347 9.36563 6.74347 9.3588 6.74347 9.35199C6.74347 9.34518 6.74347 9.33839 6.74347 9.33161C6.74347 9.32483 6.74347 9.31807 6.74347 9.31132C6.74347 9.30457 6.74347 9.29785 6.74347 9.29113C6.74347 9.28442 6.74347 9.27772 6.74347 9.27104C6.74347 9.26436 6.74347 9.25769 6.74347 9.25104C6.74347 9.2444 6.74347 9.23776 6.74347 9.23115C6.74347 9.22453 6.74347 9.21793 6.74347 9.21135C6.74347 9.20476 6.74347 9.19819 6.74347 9.19164C6.74347 9.18509 6.74347 9.17855 6.74347 9.17203C6.74347 9.16551 6.74347 9.15901 6.74347 9.15252C6.74347 9.14603 6.74347 9.13956 6.74347 9.1331C6.74347 9.12664 6.74347 9.1202 6.74347 9.11378C6.74347 9.10735 6.74347 9.10094 6.74347 9.09455C6.74347 9.08816 6.74347 9.08178 6.74347 9.07542C6.74347 9.06906 6.74347 9.06271 6.74347 9.05638C6.74347 9.05005 6.74347 9.04374 6.74347 9.03744C6.74347 9.03114 6.74347 9.02486 6.74347 9.01859C6.74347 9.01232 6.74347 9.00607 6.74347 8.99984C6.74347 8.9936 6.74347 8.98738 6.74347 8.98117C6.74347 8.97497 6.74347 8.96878 6.74347 8.96261C6.74347 8.95643 6.74347 8.95028 6.74347 8.94413C6.74347 8.93799 6.74347 8.93186 6.74347 8.92575C6.74347 8.91964 6.74347 8.91355 6.74347 8.90746C6.74347 8.90138 6.74347 8.89532 6.74347 8.88927C6.74347 8.88322 6.74347 8.87719 6.74347 8.87117C6.74347 8.86515 6.74347 8.85914 6.74347 8.85316C6.74347 8.84717 6.74347 8.84119 6.74347 8.83524C6.74347 8.82928 6.74347 8.82334 6.74347 8.81741C6.74347 8.81148 6.74347 8.80557 6.74347 8.79967C6.74347 8.79378 6.74347 8.78789 6.74347 8.78203C6.74347 8.77616 6.74347 8.77031 6.74347 8.76447C6.74347 8.75864 6.74347 8.75282 6.74347 8.74701C6.74347 8.7412 6.74347 8.73541 6.74347 8.72964C6.74347 8.72386 6.74347 8.7181 6.74347 8.71236C6.74347 8.70661 6.74347 8.70088 6.74347 8.69516C6.74347 8.68945 6.74347 8.68375 6.74347 8.67806C6.74347 8.67237 6.74347 8.6667 6.74347 8.66105C6.74347 8.65539 6.74347 8.64975 6.74347 8.64412C6.74347 8.6385 6.74347 8.63289 6.74347 8.62729C6.74347 8.62169 6.74347 8.61611 6.74347 8.61054C6.74347 8.60498 6.74347 8.59942 6.74347 8.59389C6.74347 8.58835 6.74347 8.58283 6.74347 8.57732C6.74347 8.57181 6.74347 8.56632 6.74347 8.56084C6.74347 8.55536 6.74347 8.54989 6.74347 8.54444C6.74347 8.53899 6.74347 8.53356 6.74347 8.52814C6.74347 8.52272 6.74347 8.51731 6.74347 8.51192C6.74347 8.50653 6.74347 8.50115 6.74347 8.49579C6.74347 8.49043 6.74347 8.48508 6.74347 8.47975C6.74347 8.47441 6.74347 8.46909 6.74347 8.46379C6.74347 8.45849 6.74347 8.45319 6.74347 8.44792C6.74347 8.44264 6.74347 8.43738 6.74347 8.43214C6.74347 8.42689 6.74347 8.42166 6.74347 8.41644C6.74347 8.41122 6.74347 8.40601 6.74347 8.40082C6.74347 8.39563 6.74347 8.39046 6.74347 8.3853C6.74347 8.38014 6.74347 8.37499 6.74347 8.36986C6.74347 8.36472 6.74347 8.3596 6.74347 8.3545C6.74347 8.34939 6.74347 8.3443 6.74347 8.33923C6.74347 8.33415 6.74347 8.32909 6.74347 8.32404C6.74347 8.31899 6.74347 8.31396 6.74347 8.30894C6.74347 8.30392 6.74347 8.29891 6.74347 8.29392C6.74347 8.28893 6.74347 8.28395 6.74347 8.27899C6.74347 8.27402 6.74347 8.26907 6.74347 8.26413C6.74347 8.2592 6.74347 8.25428 6.74347 8.24937C6.74347 8.24446 6.74347 8.23956 6.74347 8.23468C6.74347 8.2298 6.74347 8.22493 6.74347 8.22008C6.74347 8.21523 6.74347 8.21039 6.74347 8.20556C6.74347 8.20074 6.74347 8.19593 6.74347 8.19113C6.74347 8.18633 6.74347 8.18154 6.74347 8.17677C6.74347 8.172 6.74347 8.16724 6.74347 8.1625C6.74347 8.15776 6.74347 8.15303 6.74347 8.14831C6.74347 8.14359 6.74347 8.13889 6.74347 8.1342C6.74347 8.12951 6.74347 8.12484 6.74347 8.12018C6.74347 8.11551 6.74347 8.11086 6.74347 8.10623C6.74347 8.10159 6.74347 8.09697 6.74347 8.09236C6.74347 8.08776 6.74347 8.08316 6.74347 8.07858C6.74347 8.074 6.74347 8.06943 6.74347 8.06488C6.74347 8.06032 6.74347 8.05578 6.74347 8.05125C6.74347 8.04672 6.74347 8.04221 6.74347 8.03771C6.74347 8.03321 6.74347 8.02872 6.74347 8.02424C6.74347 8.01977 6.74347 8.01531 6.74347 8.01086C6.74347 8.00641 6.74347 8.00197 6.74347 7.99755C6.74347 7.99313 6.74347 7.98872 6.74347 7.98432C6.74347 7.97993 6.74347 7.97555 6.74347 7.97118C6.74347 7.96681 6.74347 7.96245 6.74347 7.95811C6.74347 7.95376 6.74347 7.94943 6.74347 7.94512C6.74347 7.9408 6.74347 7.93649 6.74347 7.9322C6.74347 7.92791 6.74347 7.92363 6.74347 7.91937C6.74347 7.9151 6.74347 7.91085 6.74347 7.90661C6.74347 7.90237 6.74347 7.89814 6.74347 7.89393C6.74347 7.88971 6.74347 7.88551 6.74347 7.88132C6.74347 7.87714 6.74347 7.87296 6.74347 7.8688C6.74347 7.86463 6.74347 7.86048 6.74347 7.85635C6.74347 7.85221 6.74347 7.84808 6.74347 7.84397C6.74347 7.83986 6.74347 7.83576 6.74347 7.83168C6.74347 7.82759 6.74347 7.82351 6.74347 7.81945C6.74347 7.81539 6.74347 7.81134 6.74347 7.80731C6.74347 7.80327 6.74347 7.79925 6.74347 7.79524C6.74347 7.79123 6.74347 7.78723 6.74347 7.78324C6.74347 7.77926 6.74347 7.77528 6.74347 7.77132C6.74347 7.76736 6.74347 7.76341 6.74347 7.75948C6.74347 7.75554 6.74347 7.75162 6.74347 7.7477C6.74347 7.74379 6.74347 7.73989 6.74347 7.73601C6.74347 7.73212 6.74347 7.72825 6.74347 7.72438C6.74347 7.72052 6.74347 7.71667 6.74347 7.71284C6.74347 7.709 6.74347 7.70517 6.74347 7.70136C6.74347 7.69755 6.74347 7.69375 6.74347 7.68996C6.74347 7.68617 6.74347 7.68239 6.74347 7.67863C6.74347 7.67486 6.74347 7.67111 6.74347 7.66737C6.74347 7.66363 6.74347 7.6599 6.74347 7.65619C6.74347 7.65247 6.74347 7.64877 6.74347 7.64508C6.74347 7.64139 6.74347 7.63771 6.74347 7.63404C6.74347 7.63037 6.74347 7.62671 6.74347 7.62307C6.74347 7.61943 6.74347 7.6158 6.74347 7.61217C6.74347 7.60856 6.74347 7.60495 6.74347 7.60135C6.74347 7.59775 6.74347 7.59417 6.74347 7.5906C6.74347 7.58703 6.74347 7.58347 6.74347 7.57992C6.74347 7.57637 6.74347 7.57283 6.74347 7.5693C6.74347 7.56578 6.74347 7.56227 6.74347 7.55876C6.74347 7.55526 6.74347 7.55177 6.74347 7.54829C6.74347 7.54482 6.74347 7.54135 6.74347 7.53789C6.74347 7.53444 6.74347 7.531 6.74347 7.52756C6.74347 7.52413 6.74347 7.52071 6.74347 7.5173C6.74347 7.51389 6.74347 7.5105 6.74347 7.50711C6.74347 7.50373 6.74347 7.50035 6.74347 7.49699C6.74347 7.49363 6.74347 7.49027 6.74347 7.48693C6.74347 7.48359 6.74347 7.48027 6.74347 7.47695C6.74347 7.47363 6.74347 7.47033 6.74347 7.46703C6.74347 7.46374 6.74347 7.46046 6.74347 7.45718C6.74347 7.45391 6.74347 7.45065 6.74347 7.4474C6.74347 7.44415 6.74347 7.44092 6.74347 7.43769C6.74347 7.43446 6.74347 7.43125 6.74347 7.42805C6.74347 7.42484 6.74347 7.42165 6.74347 7.41847C6.74347 7.41529 6.74347 7.41212 6.74347 7.40896C6.74347 7.4058 6.74347 7.40265 6.74347 7.39951C6.74347 7.39637 6.74347 7.39325 6.74347 7.39013C6.74347 7.38702 6.74347 7.38391 6.74347 7.38082C6.74347 7.37773 6.74347 7.37465 6.74347 7.37158C6.74347 7.3685 6.74347 7.36544 6.74347 7.3624C6.74347 7.35935 6.74347 7.35631 6.74347 7.35328C6.74347 7.35025 6.74347 7.34724 6.74347 7.34423C6.74347 7.34123 6.74347 7.33823 6.74347 7.33525C6.74347 7.33226 6.74347 7.32929 6.74347 7.32633C6.74347 7.32337 6.74347 7.32042 6.74347 7.31748C6.74347 7.31453 6.74347 7.3116 6.74347 7.30869C6.74347 7.30577 6.74347 7.30286 6.74347 7.29996C6.74347 7.29706 6.74347 7.29417 6.74347 7.2913C6.74347 7.28842 6.74347 7.28555 6.74347 7.2827C6.74347 7.27984 6.74347 7.277 6.74347 7.27416C6.74347 7.27133 6.74347 7.26851 6.74347 7.26569C6.74347 7.26288 6.74347 7.26008 6.74347 7.25728C6.74347 7.25449 6.74347 7.25171 6.74347 7.24894C6.74347 7.24617 6.74347 7.24341 6.74347 7.24066C6.74347 7.2379 6.74347 7.23516 6.74347 7.23243C6.74347 7.2297 6.74347 7.22698 6.74347 7.22428C6.74347 7.22157 6.74347 7.21887 6.74347 7.21618C6.74347 7.21349 6.74347 7.21081 6.74347 7.20814C6.74347 7.20547 6.74347 7.20282 6.74347 7.20017C6.74347 7.19752 6.74347 7.19488 6.74347 7.19226C6.74347 7.18963 6.74347 7.18701 6.74347 7.1844C6.74347 7.1818 6.74347 7.1792 6.74347 7.17661C6.74347 7.17402 6.74347 7.17145 6.74347 7.16888C6.74347 7.16631 6.74347 7.16376 6.74347 7.16121C6.74347 7.15866 6.74347 7.15613 6.74347 7.1536C6.74347 7.15107 6.74347 7.14855 6.74347 7.14605C6.74347 7.14354 6.74347 7.14104 6.74347 7.13855C6.74347 7.13607 6.74347 7.13359 6.74347 7.13112C6.74347 7.12865 6.74347 7.1262 6.74347 7.12375C6.74347 7.1213 6.74347 7.11886 6.74347 7.11643C6.74347 7.114 6.74347 7.11159 6.74347 7.10918C6.74347 7.10677 6.74347 7.10437 6.74347 7.10198C6.74347 7.09959 6.74347 7.09721 6.74347 7.09484C6.74347 7.09247 6.74347 7.09011 6.74347 7.08776C6.74347 7.0854 6.74347 7.08306 6.74347 7.08073C6.74347 7.0784 6.74347 7.07608 6.74347 7.07376C6.74347 7.07145 6.74347 7.06915 6.74347 7.06685C6.74347 7.06456 6.74347 7.06227 6.74347 7.06C6.74347 7.05772 6.74347 7.05546 6.74347 7.0532C6.74347 7.05095 6.74347 7.0487 6.74347 7.04646C6.74347 7.04423 6.74347 7.042 6.74347 7.03978C6.74347 7.03756 6.74347 7.03535 6.74347 7.03315C6.74347 7.03095 6.74347 7.02876 6.74347 7.02658C6.74347 7.0244 6.74347 7.02222 6.74347 7.02006C6.74347 7.0179 6.74347 7.01574 6.74347 7.0136C6.74347 7.01145 6.74347 7.00932 6.74347 7.00719C6.74347 7.00506 6.74347 7.00295 6.74347 7.00084C6.74347 6.99873 6.74347 6.99663 6.74347 6.99454C6.74347 6.99245 6.74347 6.99037 6.74347 6.9883C6.74347 6.98623 6.74347 6.98416 6.74347 6.98211C6.74347 6.98006 6.74347 6.97801 6.74347 6.97597C6.74347 6.97394 6.74347 6.97191 6.74347 6.96989C6.74347 6.96787 6.74347 6.96586 6.74347 6.96386C6.74347 6.96186 6.74347 6.95987 6.74347 6.95789C6.74347 6.9559 6.74347 6.95393 6.74347 6.95197C6.74347 6.95 6.74347 6.94804 6.74347 6.9461C6.74347 6.94415 6.74347 6.94221 6.74347 6.94028C6.74347 6.93835 6.74347 6.93643 6.74347 6.93451C6.74347 6.9326 6.74347 6.9307 6.74347 6.9288C6.74347 6.9269 6.74347 6.92502 6.74347 6.92314C6.74347 6.92126 6.74347 6.91939 6.74347 6.91753C6.74347 6.91567 6.74347 6.91381 6.74347 6.91197C6.74347 6.91012 6.74347 6.90829 6.74347 6.90646C6.74347 6.90463 6.74347 6.90281 6.74347 6.901C6.74347 6.89919 6.74347 6.89739 6.74347 6.8956C6.74347 6.8938 6.74347 6.89202 6.74347 6.89024C6.74347 6.88846 6.74347 6.88669 6.74347 6.88493C6.74347 6.88317 6.74347 6.88142 6.74347 6.87968C6.74347 6.87793 6.74347 6.8762 6.74347 6.87447C6.74347 6.87274 6.74347 6.87102 6.74347 6.86931C6.74347 6.8676 6.74347 6.8659 6.74347 6.8642C6.74347 6.86251 6.74347 6.86082 6.74347 6.85915C6.74347 6.85747 6.74347 6.8558 6.74347 6.85413C6.74347 6.85247 6.74347 6.85082 6.74347 6.84917C6.74347 6.84753 6.74347 6.84589 6.74347 6.84426C6.74347 6.84263 6.74347 6.84101 6.74347 6.83939C6.74347 6.83778 6.74347 6.83617 6.74347 6.83457C6.74347 6.83297 6.74347 6.83138 6.74347 6.8298C6.74347 6.82822 6.74347 6.82664 6.74347 6.82508C6.74347 6.82351 6.74347 6.82195 6.74347 6.8204C6.74347 6.81885 6.74347 6.81731 6.74347 6.81577C6.74347 6.81424 6.74347 6.81271 6.74347 6.81119C6.74347 6.80967 6.74347 6.80815 6.74347 6.80665C6.74347 6.80514 6.74347 6.80365 6.74347 6.80216C6.74347 6.80067 6.74347 6.79919 6.74347 6.79771C6.74347 6.79624 6.74347 6.79477 6.74347 6.79331C6.74347 6.79185 6.74347 6.7904 6.74347 6.78896C6.74347 6.78751 6.74347 6.78608 6.74347 6.78465C6.74347 6.78322 6.74347 6.7818 6.74347 6.78039C6.74347 6.77897 6.74347 6.77756 6.74347 6.77617C6.74347 6.77477 6.74347 6.77337 6.74347 6.77199C6.74347 6.77061 6.74347 6.76923 6.74347 6.76786C6.74347 6.76649 6.74347 6.76513 6.74347 6.76377C6.74347 6.76242 6.74347 6.76107 6.74347 6.75973C6.74347 6.75839 6.74347 6.75705 6.74347 6.75573C6.74347 6.7544 6.74347 6.75308 6.74347 6.75177C6.74347 6.75046 6.74347 6.74915 6.74347 6.74786C6.74347 6.74656 6.74347 6.74527 6.74347 6.74399C6.74347 6.7427 6.74347 6.74143 6.74347 6.74016C6.74347 6.73889 6.74347 6.73763 6.74347 6.73637C6.74347 6.73512 6.74347 6.73387 6.74347 6.73263C6.74347 6.73139 6.74347 6.73015 6.74347 6.72892C6.74347 6.7277 6.74347 6.72648 6.74347 6.72526C6.74347 6.72405 6.74347 6.72284 6.74347 6.72164C6.74347 6.72045 6.74347 6.71925 6.74347 6.71807C6.74347 6.71688 6.74347 6.7157 6.74347 6.71453C6.74347 6.71336 6.74347 6.71219 6.74347 6.71103C6.74347 6.70987 6.74347 6.70872 6.74347 6.70758C6.74347 6.70643 6.74347 6.70529 6.74347 6.70416C6.74347 6.70303 6.74347 6.7019 6.74347 6.70078C6.74347 6.69967 6.74347 6.69855 6.74347 6.69745C6.74347 6.69634 6.74347 6.69524 6.74347 6.69415C6.74347 6.69306 6.74347 6.69197 6.74347 6.69089C6.74347 6.68981 6.74347 6.68874 6.74347 6.68767C6.74347 6.68661 6.74347 6.68555 6.74347 6.68449C6.74347 6.68344 6.74347 6.68239 6.74347 6.68135C6.74347 6.68031 6.74347 6.67928 6.74347 6.67825C6.74347 6.67722 6.74347 6.6762 6.74347 6.67519C6.74347 6.67417 6.74347 6.67316 6.74347 6.67216C6.74347 6.67116 6.74347 6.67016 6.74347 6.66917C6.74347 6.66818 6.74347 6.66719 6.74347 6.66622C6.74347 6.66524 6.74347 6.66427 6.74347 6.6633C6.74347 6.66234 6.74347 6.66138 6.74347 6.66042C6.74347 6.65947 6.74347 6.65852 6.74347 6.65758C6.74347 6.65664 6.74347 6.65571 6.74347 6.65478C6.74347 6.65385 6.74347 6.65293 6.74347 6.65201C6.74347 6.65109 6.74347 6.65018 6.74347 6.64928C6.74347 6.64837 6.74347 6.64747 6.74347 6.64658C6.74347 6.64569 6.74347 6.6448 6.74347 6.64392C6.74347 6.64304 6.74347 6.64216 6.74347 6.64129C6.74347 6.64042 6.74347 6.63956 6.74347 6.6387C6.74347 6.63784 6.74347 6.63699 6.74347 6.63614C6.74347 6.6353 6.74347 6.63446 6.74347 6.63362C6.74347 6.63279 6.74347 6.63196 6.74347 6.63113C6.74347 6.63031 6.74347 6.62949 6.74347 6.62868C6.74347 6.62787 6.74347 6.62706 6.74347 6.62626C6.74347 6.62546 6.74347 6.62466 6.74347 6.62387C6.74347 6.62308 6.74347 6.6223 6.74347 6.62152C6.74347 6.62074 6.74347 6.61997 6.74347 6.6192C6.74347 6.61843 6.74347 6.61767 6.74347 6.61691C6.74347 6.61616 6.74347 6.61541 6.74347 6.61466C6.74347 6.61391 6.74347 6.61317 6.74347 6.61244C6.74347 6.6117 6.74347 6.61097 6.74347 6.61025C6.74347 6.60952 6.74347 6.60881 6.74347 6.60809C6.74347 6.60738 6.74347 6.60667 6.74347 6.60597C6.74347 6.60526 6.74347 6.60456 6.74347 6.60387C6.74347 6.60318 6.74347 6.60249 6.74347 6.60181C6.74347 6.60113 6.74347 6.60045 6.74347 6.59978C6.74347 6.5991 6.74347 6.59844 6.74347 6.59777C6.74347 6.59711 6.74347 6.59646 6.74347 6.5958C6.74347 6.59515 6.74347 6.59451 6.74347 6.59386C6.74347 6.59322 6.74347 6.59259 6.74347 6.59195C6.74347 6.59132 6.74347 6.59069 6.74347 6.59007C6.74347 6.58945 6.74347 6.58883 6.74347 6.58822C6.74347 6.58761 6.74347 6.587 6.74347 6.5864C6.74347 6.5858 6.74347 6.5852 6.74347 6.58461C6.74347 6.58402 6.74347 6.58343 6.74347 6.58285C6.74347 6.58226 6.74347 6.58168 6.74347 6.58111C6.74347 6.58054 6.74347 6.57997 6.74347 6.5794C6.74347 6.57884 6.74347 6.57828 6.74347 6.57773C6.74347 6.57717 6.74347 6.57662 6.74347 6.57608C6.74347 6.57553 6.74347 6.57499 6.74347 6.57445C6.74347 6.57392 6.74347 6.57339 6.74347 6.57286C6.74347 6.57233 6.74347 6.57181 6.74347 6.57129C6.74347 6.57077 6.74347 6.57026 6.74347 6.56975C6.74347 6.56924 6.74347 6.56874 6.74347 6.56824C6.74347 6.56774 6.74347 6.56724 6.74347 6.56675C6.74347 6.56626 6.74347 6.56577 6.74347 6.56529C6.74347 6.56481 6.74347 6.56433 6.74347 6.56385C6.74347 6.56338 6.74347 6.56291 6.74347 6.56244C6.74347 6.56198 6.74347 6.56152 6.74347 6.56106C6.74347 6.5606 6.74347 6.56015 6.74347 6.5597C6.74347 6.55926 6.74347 6.55881 6.74347 6.55837C6.74347 6.55793 6.74347 6.55749 6.74347 6.55706C6.74347 6.55663 6.74347 6.5562 6.74347 6.55578C6.74347 6.55536 6.74347 6.55494 6.74347 6.55452C6.74347 6.55411 6.74347 6.55369 6.74347 6.55329C6.74347 6.55288 6.74347 6.55247 6.74347 6.55208C6.74347 6.55168 6.74347 6.55128 6.74347 6.55089C6.74347 6.5505 6.74347 6.55011 6.74347 6.54973C6.74347 6.54934 6.74347 6.54896 6.74347 6.54858C6.74347 6.54821 6.74347 6.54784 6.74347 6.54747C6.74347 6.5471 6.74347 6.54673 6.74347 6.54637C6.74347 6.54601 6.74347 6.54566 6.74347 6.5453C6.74347 6.54495 6.74347 6.5446 6.74347 6.54425C6.74347 6.54391 6.74347 6.54356 6.74347 6.54323C6.74347 6.54289 6.74347 6.54255 6.74347 6.54222C6.74347 6.54189 6.74347 6.54156 6.74347 6.54124C6.74347 6.54091 6.74347 6.54059 6.74347 6.54027C6.74347 6.53996 6.74347 6.53964 6.74347 6.53933C6.74347 6.53902 6.74347 6.53872 6.74347 6.53841C6.74347 6.53811 6.74347 6.53781 6.74347 6.53751C6.74347 6.53722 6.74347 6.53692 6.74347 6.53663C6.74347 6.53634 6.74347 6.53606 6.74347 6.53577C6.74347 6.53549 6.74347 6.53521 6.74347 6.53493C6.74347 6.53466 6.74347 6.53439 6.74347 6.53412C6.74347 6.53385 6.74347 6.53358 6.74347 6.53332C6.74347 6.53305 6.74347 6.53279 6.74347 6.53254C6.74347 6.53228 6.74347 6.53202 6.74347 6.53177C6.74347 6.53152 6.74347 6.53128 6.74347 6.53103C6.74347 6.53079 6.74347 6.53055 6.74347 6.53031C6.74347 6.53007 6.74347 6.52983 6.74347 6.5296C6.74347 6.52937 6.74347 6.52914 6.74347 6.52891C6.74347 6.52869 6.74347 6.52846 6.74347 6.52824C6.74347 6.52802 6.74347 6.52781 6.74347 6.52759C6.74347 6.52738 6.74347 6.52717 6.74347 6.52696C6.74347 6.52675 6.74347 6.52654 6.74347 6.52634C6.74347 6.52614 6.74347 6.52594 6.74347 6.52574C6.74347 6.52554 6.74347 6.52535 6.74347 6.52515C6.74347 6.52496 6.74347 6.52477 6.74347 6.52459C6.74347 6.5244 6.74347 6.52422 6.74347 6.52403C6.74347 6.52385 6.74347 6.52368 6.74347 6.5235C6.74347 6.52332 6.74347 6.52315 6.74347 6.52298C6.74347 6.52281 6.74347 6.52264 6.74347 6.52248C6.74347 6.52231 6.74347 6.52215 6.74347 6.52199C6.74347 6.52183 6.74347 6.52167 6.74347 6.52151C6.74347 6.52136 6.74347 6.5212 6.74347 6.52105C6.74347 6.5209 6.74347 6.52076 6.74347 6.52061C6.74347 6.52046 6.74347 6.52032 6.74347 6.52018C6.74347 6.52004 6.74347 6.5199 6.74347 6.51976C6.74347 6.51963 6.74347 6.51949 6.74347 6.51936C6.74347 6.51923 6.74347 6.5191 6.74347 6.51897C6.74347 6.51885 6.74347 6.51872 6.74347 6.5186C6.74347 6.51847 6.74347 6.51835 6.74347 6.51824C6.74347 6.51812 6.74347 6.518 6.74347 6.51789C6.74347 6.51777 6.74347 6.51766 6.74347 6.51755C6.74347 6.51744 6.74347 6.51733 6.74347 6.51723C6.74347 6.51712 6.74347 6.51702 6.74347 6.51691C6.74347 6.51681 6.74347 6.51671 6.74347 6.51661C6.74347 6.51652 6.74347 6.51642 6.74347 6.51633C6.74347 6.51623 6.74347 6.51614 6.74347 6.51605C6.74347 6.51596 6.74347 6.51587 6.74347 6.51579C6.74347 6.5157 6.74347 6.51561 6.74347 6.51553C6.74347 6.51545 6.74347 6.51537 6.74347 6.51529C6.74347 6.51521 6.74347 6.51513 6.74347 6.51506C6.74347 6.51498 6.74347 6.51491 6.74347 6.51483C6.74347 6.51476 6.74347 6.51469 6.74347 6.51462C6.74347 6.51455 6.74347 6.51448 6.74347 6.51442C6.74347 6.51435 6.74347 6.51429 6.74347 6.51423C6.74347 6.51416 6.74347 6.5141 6.74347 6.51404C6.74347 6.51398 6.74347 6.51392 6.74347 6.51387C6.74347 6.51381 6.74347 6.51376 6.74347 6.5137C6.74347 6.51365 6.74347 6.5136 6.74347 6.51355C6.74347 6.5135 6.74347 6.51345 6.74347 6.5134C6.74347 6.51335 6.74347 6.5133 6.74347 6.51326C6.74347 6.51321 6.74347 6.51317 6.74347 6.51313C6.74347 6.51308 6.74347 6.51304 6.74347 6.513C6.74347 6.51296 6.74347 6.51292 6.74347 6.51289C6.74347 6.51285 6.74347 6.51281 6.74347 6.51278C6.74347 6.51274 6.74347 6.51271 6.74347 6.51267C6.74347 6.51264 6.74347 6.51261 6.74347 6.51258C6.74347 6.51255 6.74347 6.51252 6.74347 6.51249C6.74347 6.51246 6.74347 6.51243 6.74347 6.51241C6.74347 6.51238 6.74347 6.51236 6.74347 6.51233C6.74347 6.51231 6.74347 6.51228 6.74347 6.51226C6.74347 6.51224 6.74347 6.51222 6.74347 6.5122C6.74347 6.51217 6.74347 6.51215 6.74347 6.51214C6.74347 6.51212 6.74347 6.5121 6.74347 6.51208C6.74347 6.51206 6.74347 6.51205 6.74347 6.51203C6.74347 6.51202 6.74347 6.512 6.74347 6.51199C6.74347 6.51197 6.74347 6.51196 6.74347 6.51195C6.74347 6.51193 6.74347 6.51192 6.74347 6.51191C6.74347 6.5119 6.74347 6.51189 6.74347 6.51188C6.74347 6.51187 6.74347 6.51186 6.74347 6.51185C6.74347 6.51184 6.74347 6.51183 6.74347 6.51183C6.74347 6.51182 6.74347 6.51181 6.74347 6.5118C6.74347 6.5118 6.74347 6.51179 6.74347 6.51179C6.74347 6.51178 6.74347 6.51178 6.74347 6.51177C6.74347 6.51177 6.74347 6.51176 6.74347 6.51176C6.74347 6.51175 6.74347 6.51175 6.74347 6.51175C6.74347 6.51174 6.74347 6.51174 6.74347 6.51174C6.74347 6.51174 6.74347 6.51173 6.74347 6.51173C6.74347 6.51173 6.74347 6.51173 6.74347 6.51173C6.74347 6.51173 6.74347 6.51172 6.74347 6.51172C6.74347 6.51172 6.74347 6.51172 6.74347 6.51172C6.74347 6.51172 6.74347 6.51172 6.74347 6.51172C6.74347 6.51172 6.74347 6.51172 6.74347 6.51172C6.74347 6.51172 6.74347 6.51172 6.74347 6.51172H6.01047ZM6.74347 6.5112V1.25391H5.27747V6.5112H6.74347Z" fill="#858585"/>
</svg>
