<svg width="36" height="36" viewBox="0 0 36 36" fill="none" xmlns="http://www.w3.org/2000/svg">
<path fill-rule="evenodd" clip-rule="evenodd" d="M7.5 15.6C7.5 11.0748 7.5 8.8116 8.86733 7.4064C10.2335 6 12.4338 6 16.8333 6H19.1667C23.5662 6 25.7665 6 27.1327 7.4064C28.5 8.8116 28.5 11.0748 28.5 15.6V20.4C28.5 24.9252 28.5 27.1884 27.1327 28.5936C25.7665 30 23.5662 30 19.1667 30H16.8333C12.4338 30 10.2335 30 8.86733 28.5936C7.5 27.1884 7.5 24.9252 7.5 20.4V15.6ZM11 18C11 16.3032 11 15.4548 11.5133 14.928C12.0243 14.4 12.8492 14.4 14.5 14.4H21.5C23.1497 14.4 23.9745 14.4 24.4867 14.928C25 15.4548 25 16.3032 25 18V22.8C25 24.4968 25 25.3452 24.4867 25.872C23.9745 26.4 23.1497 26.4 21.5 26.4H14.5C12.8503 26.4 12.0255 26.4 11.5133 25.872C11 25.3464 11 24.498 11 22.8V18ZM12.1667 9.9C11.9346 9.9 11.712 9.99482 11.5479 10.1636C11.3839 10.3324 11.2917 10.5613 11.2917 10.8C11.2917 11.0387 11.3839 11.2676 11.5479 11.4364C11.712 11.6052 11.9346 11.7 12.1667 11.7H18C18.2321 11.7 18.4546 11.6052 18.6187 11.4364C18.7828 11.2676 18.875 11.0387 18.875 10.8C18.875 10.5613 18.7828 10.3324 18.6187 10.1636C18.4546 9.99482 18.2321 9.9 18 9.9H12.1667Z" fill="black"/>
</svg>
