<svg width="21" height="21" viewBox="0 0 21 21" fill="none" xmlns="http://www.w3.org/2000/svg">
<path d="M10.375 0.375C15.9727 0.375 20.5 4.90232 20.5 10.5C20.5 16.0977 15.9727 20.625 10.375 20.625C4.77732 20.625 0.25 16.0977 0.25 10.5C0.25 4.90232 4.77732 0.375 10.375 0.375ZM8.52357 15.8373C13.0075 15.8373 15.4664 12.12 15.4664 8.89446V8.57625C15.9438 8.22911 16.3632 7.79518 16.6814 7.30339C16.2475 7.49143 15.7702 7.62161 15.2784 7.69393C15.7846 7.39018 16.1752 6.91286 16.3487 6.34875C15.8714 6.62357 15.3507 6.82607 14.8011 6.94179C14.3527 6.46446 13.7162 6.17518 13.022 6.17518C11.6768 6.17518 10.5775 7.27446 10.5775 8.61964C10.5775 8.80768 10.592 8.99571 10.6498 9.16929C8.62482 9.06804 6.81679 8.09893 5.61625 6.62357C5.41375 6.98518 5.28357 7.40464 5.28357 7.85304C5.28357 8.69196 5.7175 9.44411 6.36839 9.87804C5.96339 9.87804 5.58732 9.76232 5.26911 9.57429V9.60321C5.26911 10.7893 6.10804 11.7729 7.22179 12.0043C7.01929 12.0621 6.80232 12.0911 6.58536 12.0911C6.42625 12.0911 6.28161 12.0766 6.1225 12.0477C6.42625 13.0168 7.3375 13.7255 8.39339 13.74C7.55446 14.3909 6.49857 14.7814 5.35589 14.7814C5.15339 14.7814 4.96536 14.7814 4.77732 14.7525C5.84768 15.4468 7.135 15.8518 8.50911 15.8518" fill="#C1C1C1"/>
</svg>
