<svg width="36" height="36" viewBox="0 0 36 36" fill="none" xmlns="http://www.w3.org/2000/svg">
<path d="M32.2916 21.5731H29.2083V24.8767H30.2875C30.5428 24.8767 30.75 25.0625 30.75 25.2896V26.1155C30.75 26.3426 30.5428 26.5285 30.2875 26.5285H6.5458C6.29046 26.5285 6.0833 26.3426 6.0833 26.1155V25.2896C6.0833 25.0625 6.29046 24.8767 6.5458 24.8767H7.62497V21.5731H4.54164C3.6889 21.5731 2.99997 22.3112 2.99997 23.2249V28.1802C2.99997 29.0939 3.6889 29.832 4.54164 29.832H32.2916C33.1444 29.832 33.8333 29.0939 33.8333 28.1802V23.2249C33.8333 22.3112 33.1444 21.5731 32.2916 21.5731ZM27.6666 24.8767V8.3743C27.6666 7.45034 26.9681 6.70703 26.1105 6.70703H10.7276C9.8652 6.70703 9.16664 7.4555 9.16664 8.3743V24.8767H27.6666ZM13.175 15.4821L14.4035 14.1762C14.6058 13.9594 14.9334 13.9594 15.1358 14.1814L17.1255 16.3287L21.7119 11.4559C21.9143 11.2391 22.2419 11.2391 22.4442 11.4611L23.6631 12.7773C23.8655 12.9941 23.8655 13.3451 23.6583 13.5619L17.4772 20.1278C17.2748 20.3446 16.9472 20.3446 16.7449 20.1226L13.175 16.2667C12.9678 16.0499 12.9726 15.6989 13.175 15.4821Z" fill="black"/>
</svg>
