<svg width="22" height="22" viewBox="0 0 22 22" fill="none" xmlns="http://www.w3.org/2000/svg">
<path d="M20 12.4971H12.5V19.9971C12.5 20.3949 12.342 20.7764 12.0607 21.0577C11.7794 21.339 11.3978 21.4971 11 21.4971C10.6022 21.4971 10.2206 21.339 9.93934 21.0577C9.65804 20.7764 9.5 20.3949 9.5 19.9971V12.4971H2C1.60218 12.4971 1.22064 12.339 0.93934 12.0577C0.658036 11.7764 0.5 11.3949 0.5 10.9971C0.5 10.5992 0.658036 10.2177 0.93934 9.93641C1.22064 9.65511 1.60218 9.49707 2 9.49707H9.5V1.99707C9.5 1.59925 9.65804 1.21771 9.93934 0.93641C10.2206 0.655105 10.6022 0.49707 11 0.49707C11.3978 0.49707 11.7794 0.655105 12.0607 0.93641C12.342 1.21771 12.5 1.59925 12.5 1.99707V9.49707H20C20.3978 9.49707 20.7794 9.65511 21.0607 9.93641C21.342 10.2177 21.5 10.5992 21.5 10.9971C21.5 11.3949 21.342 11.7764 21.0607 12.0577C20.7794 12.339 20.3978 12.4971 20 12.4971Z" fill="white"/>
</svg>
