<svg width="36" height="36" viewBox="0 0 36 36" fill="none" xmlns="http://www.w3.org/2000/svg">
<path d="M27.6 7.5H8.39997C7.19997 7.5 5.99997 8.5125 5.99997 9.75V13.1363C5.99997 13.9463 6.51597 14.6437 7.19997 15.0375V27.75C7.19997 28.9875 8.51997 30 9.59997 30H26.4C27.48 30 28.8 28.9875 28.8 27.75V15.0375C29.484 14.6437 30 13.9463 30 13.1363V9.75C30 8.5125 28.8 7.5 27.6 7.5ZM20.4 21H15.6C14.94 21 14.4 20.4937 14.4 19.875C14.4 19.2563 14.94 18.75 15.6 18.75H20.4C21.06 18.75 21.6 19.2563 21.6 19.875C21.6 20.4937 21.06 21 20.4 21ZM27.6 13.125H8.39997V9.75H27.6V13.125Z" fill="black"/>
</svg>
