<svg width="27" height="19" viewBox="0 0 27 19" fill="none" xmlns="http://www.w3.org/2000/svg">
<path d="M10.7215 13.3335L17.3526 9.50043L10.7215 5.66738V13.3335ZM25.4915 3.32921C25.6576 3.92973 25.7726 4.73467 25.8492 5.75681C25.9387 6.77896 25.977 7.66056 25.977 8.42717L26.0537 9.50043C26.0537 12.2986 25.8492 14.3556 25.4915 15.6716C25.1721 16.8216 24.431 17.5626 23.2811 17.882C22.6806 18.0481 21.5818 18.1631 19.8952 18.2398C18.2343 18.3292 16.7138 18.3676 15.3084 18.3676L13.2768 18.4442C7.92334 18.4442 4.58859 18.2398 3.27257 17.882C2.12266 17.5626 1.3816 16.8216 1.06218 15.6716C0.896082 15.0711 0.781091 14.2662 0.70443 13.244C0.614992 12.2219 0.576661 11.3403 0.576661 10.5737L0.5 9.50043C0.5 6.7023 0.704429 4.64523 1.06218 3.32921C1.3816 2.1793 2.12266 1.43824 3.27257 1.11882C3.87309 0.952723 4.97189 0.837731 6.65844 0.76107C8.31943 0.671632 9.83987 0.633302 11.2453 0.633302L13.2768 0.556641C18.6303 0.556641 21.9651 0.76107 23.2811 1.11882C24.431 1.43824 25.1721 2.1793 25.4915 3.32921Z" fill="#C1C1C1"/>
</svg>
