<svg width="21" height="17" viewBox="0 0 21 17" fill="none" xmlns="http://www.w3.org/2000/svg">
<path d="M18.2304 0.356445H2.07328C0.962486 0.356445 0.0536499 1.27261 0.0536499 2.39237V14.6079C0.0536499 15.7277 0.962486 16.6438 2.07328 16.6438H18.2304C19.3412 16.6438 20.25 15.7277 20.25 14.6079V2.39237C20.25 1.27261 19.3412 0.356445 18.2304 0.356445ZM17.8264 4.68278L11.2222 8.84624C10.5659 9.26361 9.7378 9.26361 9.08142 8.84624L2.47721 4.68278C2.37595 4.62548 2.28728 4.54806 2.21657 4.45522C2.14585 4.36237 2.09455 4.25603 2.06579 4.14262C2.03702 4.02921 2.03138 3.9111 2.04921 3.79543C2.06703 3.67976 2.10796 3.56894 2.1695 3.46968C2.23105 3.37041 2.31193 3.28477 2.40726 3.21793C2.50259 3.15109 2.61038 3.10444 2.72411 3.08081C2.83784 3.05718 2.95514 3.05706 3.06892 3.08046C3.1827 3.10385 3.29058 3.15027 3.38605 3.21692L10.1518 7.48217L16.9176 3.21692C17.0131 3.15027 17.121 3.10385 17.2347 3.08046C17.3485 3.05706 17.4658 3.05718 17.5795 3.08081C17.6933 3.10444 17.8011 3.15109 17.8964 3.21793C17.9917 3.28477 18.0726 3.37041 18.1341 3.46968C18.1957 3.56894 18.2366 3.67976 18.2544 3.79543C18.2723 3.9111 18.2666 4.02921 18.2379 4.14262C18.2091 4.25603 18.1578 4.36237 18.0871 4.45522C18.0164 4.54806 17.9277 4.62548 17.8264 4.68278Z" fill="#C1C1C1"/>
</svg>
