<svg width="17" height="16" viewBox="0 0 17 16" fill="none" xmlns="http://www.w3.org/2000/svg">
<path d="M15.9879 7.0422L12.8168 9.8097L13.7667 13.93C13.817 14.1454 13.8027 14.3708 13.7255 14.5781C13.6483 14.7854 13.5118 14.9654 13.3329 15.0955C13.154 15.2256 12.9408 15.3001 12.7198 15.3096C12.4988 15.3192 12.2799 15.2634 12.0905 15.1492L8.49681 12.9695L4.91087 15.1492C4.72143 15.2634 4.50254 15.3192 4.28156 15.3096C4.06058 15.3001 3.84732 15.2256 3.66845 15.0955C3.48958 14.9654 3.35302 14.7854 3.27586 14.5781C3.1987 14.3708 3.18436 14.1454 3.23462 13.93L4.18314 9.81392L1.01134 7.0422C0.843584 6.89752 0.722277 6.70652 0.662633 6.49317C0.60299 6.27981 0.607665 6.0536 0.676074 5.84289C0.744483 5.63218 0.873579 5.44636 1.04717 5.30873C1.22077 5.1711 1.43113 5.08779 1.65189 5.06923L5.83267 4.70712L7.46462 0.814625C7.54985 0.610379 7.6936 0.435913 7.87777 0.313197C8.06195 0.190481 8.27831 0.125 8.49963 0.125C8.72094 0.125 8.9373 0.190481 9.12148 0.313197C9.30565 0.435913 9.4494 0.610379 9.53463 0.814625L11.1715 4.70712L15.3509 5.06923C15.5716 5.08779 15.782 5.1711 15.9556 5.30873C16.1292 5.44636 16.2583 5.63218 16.3267 5.84289C16.3951 6.0536 16.3998 6.27981 16.3401 6.49317C16.2805 6.70652 16.1592 6.89752 15.9914 7.0422H15.9879Z" fill="#D4D4D4"/>
</svg>
