<svg width="26" height="23" viewBox="0 0 26 23" fill="none" xmlns="http://www.w3.org/2000/svg">
<path d="M23 3H19.535L17.8312 0.445C17.74 0.30819 17.6164 0.196004 17.4714 0.118382C17.3264 0.0407602 17.1645 9.87561e-05 17 0H9C8.83554 9.87561e-05 8.67363 0.0407602 8.52864 0.118382C8.38364 0.196004 8.26003 0.30819 8.16875 0.445L6.46375 3H3C2.20435 3 1.44129 3.31607 0.87868 3.87868C0.316071 4.44129 0 5.20435 0 6V20C0 20.7956 0.316071 21.5587 0.87868 22.1213C1.44129 22.6839 2.20435 23 3 23H23C23.7956 23 24.5587 22.6839 25.1213 22.1213C25.6839 21.5587 26 20.7956 26 20V6C26 5.20435 25.6839 4.44129 25.1213 3.87868C24.5587 3.31607 23.7956 3 23 3ZM24 20C24 20.2652 23.8946 20.5196 23.7071 20.7071C23.5196 20.8946 23.2652 21 23 21H3C2.73478 21 2.48043 20.8946 2.29289 20.7071C2.10536 20.5196 2 20.2652 2 20V6C2 5.73478 2.10536 5.48043 2.29289 5.29289C2.48043 5.10536 2.73478 5 3 5H7C7.16468 5.00011 7.32683 4.95954 7.47206 4.88191C7.61729 4.80428 7.7411 4.69199 7.8325 4.555L9.535 2H16.4638L18.1675 4.555C18.2589 4.69199 18.3827 4.80428 18.5279 4.88191C18.6732 4.95954 18.8353 5.00011 19 5H23C23.2652 5 23.5196 5.10536 23.7071 5.29289C23.8946 5.48043 24 5.73478 24 6V20ZM13 7C11.9122 7 10.8488 7.32257 9.94436 7.92692C9.03989 8.53127 8.33494 9.39025 7.91866 10.3952C7.50238 11.4002 7.39346 12.5061 7.60568 13.573C7.8179 14.6399 8.34172 15.6199 9.11091 16.3891C9.8801 17.1583 10.8601 17.6821 11.927 17.8943C12.9939 18.1065 14.0998 17.9976 15.1048 17.5813C16.1098 17.1651 16.9687 16.4601 17.5731 15.5556C18.1774 14.6512 18.5 13.5878 18.5 12.5C18.4983 11.0418 17.9184 9.64383 16.8873 8.61274C15.8562 7.58165 14.4582 7.00165 13 7ZM13 16C12.3078 16 11.6311 15.7947 11.0555 15.4101C10.4799 15.0256 10.0313 14.4789 9.76642 13.8394C9.50151 13.1999 9.4322 12.4961 9.56725 11.8172C9.7023 11.1383 10.0356 10.5146 10.5251 10.0251C11.0146 9.53564 11.6383 9.2023 12.3172 9.06725C12.9961 8.9322 13.6999 9.00151 14.3394 9.26642C14.9789 9.53133 15.5256 9.97993 15.9101 10.5555C16.2947 11.1311 16.5 11.8078 16.5 12.5C16.5 13.4283 16.1313 14.3185 15.4749 14.9749C14.8185 15.6313 13.9283 16 13 16Z" fill="#3A3A3A"/>
</svg>
