<svg width="21" height="21" viewBox="0 0 21 21" fill="none" xmlns="http://www.w3.org/2000/svg">
<path d="M11.1659 0.00129187C11.9047 -0.00164826 12.6435 0.0060523 13.3821 0.0243912L13.5785 0.0317409C13.8053 0.0401406 14.0291 0.0506402 14.2994 0.0632398C15.3766 0.115738 16.1117 0.292132 16.7566 0.551473C17.4248 0.818164 17.9877 1.17935 18.5507 1.76313C19.0654 2.2877 19.4637 2.92224 19.718 3.62262C19.9681 4.29145 20.1382 5.05477 20.1888 6.17193C20.2009 6.45122 20.2111 6.68431 20.2192 6.91951L20.2252 7.1232C20.2432 7.88883 20.251 8.65467 20.2485 9.42052L20.2495 10.2038V11.5792C20.252 12.3454 20.2443 13.1116 20.2263 13.8776L20.2202 14.0813C20.2121 14.3165 20.202 14.5485 20.1898 14.8289C20.1392 15.946 19.9671 16.7083 19.718 17.3772C19.4645 18.0783 19.0661 18.7133 18.5507 19.2377C18.0444 19.7714 17.4322 20.1845 16.7566 20.4483C16.1117 20.7076 15.3766 20.884 14.2994 20.9365C14.0291 20.9491 13.8053 20.9596 13.5785 20.968L13.3821 20.9743C12.6435 20.993 11.9047 21.001 11.1659 20.9985L10.4106 20.9995H9.08528C8.34646 21.0021 7.60764 20.9941 6.86903 20.9754L6.67262 20.9691C6.43227 20.96 6.19198 20.9495 5.95175 20.9376C4.87451 20.8851 4.13947 20.7066 3.49353 20.4483C2.81791 20.1851 2.20594 19.7719 1.70048 19.2377C1.18519 18.713 0.786471 18.0781 0.53212 17.3772C0.282045 16.7083 0.111953 15.946 0.061331 14.8289C0.0500553 14.5797 0.0399307 14.3306 0.0309576 14.0813L0.0258955 13.8776C0.00722957 13.1117 -0.0012084 12.3455 0.000584183 11.5792V9.42052C-0.00224152 8.65468 0.00518388 7.88883 0.0228581 7.1232L0.0299452 6.91951C0.0380448 6.68431 0.0481693 6.45122 0.0603186 6.17193C0.110941 5.05372 0.281032 4.2925 0.531107 3.62262C0.785609 2.92189 1.18511 2.28753 1.7015 1.76418C2.2066 1.22949 2.81819 0.815616 3.49353 0.551473C4.13947 0.292132 4.8735 0.115738 5.95175 0.0632398L6.67262 0.0317409L6.86903 0.0264912C7.60729 0.0071433 8.34577 -0.00160734 9.08427 0.000241983L11.1659 0.00129187ZM10.1251 5.25111C9.45432 5.24128 8.78839 5.36978 8.16595 5.62917C7.54352 5.88856 6.97701 6.27365 6.49933 6.76207C6.02166 7.25049 5.64235 7.83249 5.38345 8.47425C5.12456 9.11602 4.99124 9.80475 4.99124 10.5004C4.99124 11.1961 5.12456 11.8848 5.38345 12.5266C5.64235 13.1683 6.02166 13.7503 6.49933 14.2388C6.97701 14.7272 7.54352 15.1123 8.16595 15.3716C8.78839 15.631 9.45432 15.7595 10.1251 15.7497C11.4677 15.7497 12.7553 15.1966 13.7046 14.2121C14.654 13.2275 15.1873 11.8922 15.1873 10.4999C15.1873 9.10755 14.654 7.77223 13.7046 6.7877C12.7553 5.80317 11.4677 5.25111 10.1251 5.25111ZM10.1251 7.35104C10.5285 7.34333 10.9294 7.41908 11.3044 7.57385C11.6793 7.72863 12.0207 7.95933 12.3087 8.25248C12.5967 8.54564 12.8254 8.89536 12.9816 9.28123C13.1378 9.66711 13.2183 10.0814 13.2184 10.4999C13.2184 10.9184 13.1381 11.3327 12.982 11.7186C12.826 12.1045 12.5973 12.4543 12.3094 12.7476C12.0215 13.0408 11.6802 13.2717 11.3053 13.4266C10.9304 13.5815 10.5295 13.6573 10.1261 13.6498C9.32052 13.6498 8.54796 13.3179 7.97835 12.7272C7.40874 12.1365 7.08873 11.3353 7.08873 10.4999C7.08873 9.66448 7.40874 8.86329 7.97835 8.27257C8.54796 7.68185 9.32052 7.34999 10.1261 7.34999L10.1251 7.35104ZM15.4404 3.67617C15.1138 3.68972 14.8049 3.83382 14.5784 4.07827C14.352 4.32273 14.2255 4.64857 14.2255 4.98757C14.2255 5.32657 14.352 5.65242 14.5784 5.89687C14.8049 6.14132 15.1138 6.28542 15.4404 6.29898C15.7761 6.29898 16.098 6.1607 16.3353 5.91457C16.5726 5.66844 16.706 5.33461 16.706 4.98652C16.706 4.63844 16.5726 4.30461 16.3353 4.05848C16.098 3.81234 15.7761 3.67407 15.4404 3.67407V3.67617Z" fill="#C1C1C1"/>
</svg>
