<svg width="16" height="16" viewBox="0 0 16 16" fill="none" xmlns="http://www.w3.org/2000/svg">
<path d="M15.4879 7.5422L12.3168 10.3097L13.2667 14.43C13.317 14.6454 13.3027 14.8708 13.2255 15.0781C13.1483 15.2854 13.0118 15.4654 12.8329 15.5955C12.654 15.7256 12.4408 15.8001 12.2198 15.8096C11.9988 15.8192 11.7799 15.7634 11.5905 15.6492L7.99681 13.4695L4.41087 15.6492C4.22143 15.7634 4.00254 15.8192 3.78156 15.8096C3.56058 15.8001 3.34732 15.7256 3.16845 15.5955C2.98958 15.4654 2.85302 15.2854 2.77586 15.0781C2.6987 14.8708 2.68436 14.6454 2.73462 14.43L3.68314 10.3139L0.511344 7.5422C0.343584 7.39752 0.222277 7.20652 0.162633 6.99317C0.10299 6.77981 0.107665 6.5536 0.176074 6.34289C0.244483 6.13218 0.373579 5.94636 0.547174 5.80873C0.720769 5.6711 0.931134 5.58779 1.15189 5.56923L5.33267 5.20712L6.96462 1.31463C7.04985 1.11038 7.1936 0.935913 7.37777 0.813197C7.56195 0.690481 7.77831 0.625 7.99963 0.625C8.22094 0.625 8.4373 0.690481 8.62148 0.813197C8.80565 0.935913 8.9494 1.11038 9.03463 1.31463L10.6715 5.20712L14.8509 5.56923C15.0716 5.58779 15.282 5.6711 15.4556 5.80873C15.6292 5.94636 15.7583 6.13218 15.8267 6.34289C15.8951 6.5536 15.8998 6.77981 15.8401 6.99317C15.7805 7.20652 15.6592 7.39752 15.4914 7.5422H15.4879Z" fill="#6F6F6F"/>
</svg>
