<svg width="30" height="30" viewBox="0 0 30 30" fill="none" xmlns="http://www.w3.org/2000/svg">
<path d="M2.49628 13.3723C1.50611 13.3723 0.703429 14.175 0.703429 15.1651C0.703429 16.1553 1.50611 16.958 2.49628 16.958V13.3723ZM15.0963 16.958C16.0864 16.958 16.8891 16.1553 16.8891 15.1651C16.8891 14.175 16.0864 13.3723 15.0963 13.3723V16.958ZM15.0964 13.3723C14.1062 13.3723 13.3035 14.175 13.3035 15.1651C13.3035 16.1553 14.1062 16.958 15.0964 16.958V13.3723ZM27.6964 16.958C28.6865 16.958 29.4892 16.1553 29.4892 15.1651C29.4892 14.175 28.6865 13.3723 27.6964 13.3723V16.958ZM16.8897 15.1637C16.8897 14.1735 16.0871 13.3708 15.0969 13.3708C14.1067 13.3708 13.304 14.1735 13.304 15.1637H16.8897ZM13.304 27.7637C13.304 28.7538 14.1067 29.5565 15.0969 29.5565C16.0871 29.5565 16.8897 28.7538 16.8897 27.7637H13.304ZM13.304 15.1625C13.304 16.1527 14.1067 16.9553 15.0969 16.9553C16.0871 16.9553 16.8897 16.1527 16.8897 15.1625H13.304ZM16.8897 2.5625C16.8897 1.57234 16.0871 0.769652 15.0969 0.769652C14.1067 0.769652 13.304 1.57234 13.304 2.5625H16.8897ZM2.49628 16.958H15.0963V13.3723H2.49628V16.958ZM15.0964 16.958H27.6964V13.3723H15.0964V16.958ZM15.0969 15.1637H13.304C13.304 15.1637 13.304 15.1637 13.304 15.1637C13.304 15.1637 13.304 15.1637 13.304 15.1637C13.304 15.1637 13.304 15.1637 13.304 15.1637C13.304 15.1637 13.304 15.1637 13.304 15.1637C13.304 15.1637 13.304 15.1637 13.304 15.1637C13.304 15.1637 13.304 15.1637 13.304 15.1637C13.304 15.1637 13.304 15.1637 13.304 15.1637C13.304 15.1637 13.304 15.1637 13.304 15.1637C13.304 15.1638 13.304 15.1638 13.304 15.1638C13.304 15.1638 13.304 15.1638 13.304 15.1638C13.304 15.1638 13.304 15.1638 13.304 15.1638C13.304 15.1639 13.304 15.1639 13.304 15.1639C13.304 15.1639 13.304 15.1639 13.304 15.1639C13.304 15.164 13.304 15.164 13.304 15.164C13.304 15.164 13.304 15.164 13.304 15.1641C13.304 15.1641 13.304 15.1641 13.304 15.1641C13.304 15.1642 13.304 15.1642 13.304 15.1642C13.304 15.1643 13.304 15.1643 13.304 15.1643C13.304 15.1644 13.304 15.1644 13.304 15.1644C13.304 15.1645 13.304 15.1645 13.304 15.1645C13.304 15.1646 13.304 15.1646 13.304 15.1647C13.304 15.1647 13.304 15.1648 13.304 15.1648C13.304 15.1649 13.304 15.1649 13.304 15.165C13.304 15.165 13.304 15.1651 13.304 15.1651C13.304 15.1652 13.304 15.1653 13.304 15.1653C13.304 15.1654 13.304 15.1655 13.304 15.1655C13.304 15.1656 13.304 15.1657 13.304 15.1657C13.304 15.1658 13.304 15.1659 13.304 15.166C13.304 15.166 13.304 15.1661 13.304 15.1662C13.304 15.1663 13.304 15.1664 13.304 15.1665C13.304 15.1666 13.304 15.1667 13.304 15.1668C13.304 15.1669 13.304 15.167 13.304 15.1671C13.304 15.1672 13.304 15.1673 13.304 15.1674C13.304 15.1675 13.304 15.1676 13.304 15.1677C13.304 15.1678 13.304 15.1679 13.304 15.1681C13.304 15.1682 13.304 15.1683 13.304 15.1684C13.304 15.1686 13.304 15.1687 13.304 15.1688C13.304 15.169 13.304 15.1691 13.304 15.1692C13.304 15.1694 13.304 15.1695 13.304 15.1697C13.304 15.1698 13.304 15.17 13.304 15.1701C13.304 15.1703 13.304 15.1705 13.304 15.1706C13.304 15.1708 13.304 15.171 13.304 15.1711C13.304 15.1713 13.304 15.1715 13.304 15.1717C13.304 15.1719 13.304 15.172 13.304 15.1722C13.304 15.1724 13.304 15.1726 13.304 15.1728C13.304 15.173 13.304 15.1732 13.304 15.1734C13.304 15.1736 13.304 15.1738 13.304 15.1741C13.304 15.1743 13.304 15.1745 13.304 15.1747C13.304 15.1749 13.304 15.1752 13.304 15.1754C13.304 15.1756 13.304 15.1759 13.304 15.1761C13.304 15.1764 13.304 15.1766 13.304 15.1769C13.304 15.1771 13.304 15.1774 13.304 15.1777C13.304 15.1779 13.304 15.1782 13.304 15.1785C13.304 15.1787 13.304 15.179 13.304 15.1793C13.304 15.1796 13.304 15.1799 13.304 15.1802C13.304 15.1805 13.304 15.1808 13.304 15.1811C13.304 15.1814 13.304 15.1817 13.304 15.182C13.304 15.1823 13.304 15.1826 13.304 15.183C13.304 15.1833 13.304 15.1836 13.304 15.184C13.304 15.1843 13.304 15.1846 13.304 15.185C13.304 15.1853 13.304 15.1857 13.304 15.1861C13.304 15.1864 13.304 15.1868 13.304 15.1872C13.304 15.1875 13.304 15.1879 13.304 15.1883C13.304 15.1887 13.304 15.1891 13.304 15.1895C13.304 15.1899 13.304 15.1903 13.304 15.1907C13.304 15.1911 13.304 15.1915 13.304 15.1919C13.304 15.1923 13.304 15.1928 13.304 15.1932C13.304 15.1936 13.304 15.1941 13.304 15.1945C13.304 15.195 13.304 15.1954 13.304 15.1959C13.304 15.1963 13.304 15.1968 13.304 15.1973C13.304 15.1978 13.304 15.1982 13.304 15.1987C13.304 15.1992 13.304 15.1997 13.304 15.2002C13.304 15.2007 13.304 15.2012 13.304 15.2017C13.304 15.2022 13.304 15.2028 13.304 15.2033C13.304 15.2038 13.304 15.2043 13.304 15.2049C13.304 15.2054 13.304 15.206 13.304 15.2065C13.304 15.2071 13.304 15.2077 13.304 15.2082C13.304 15.2088 13.304 15.2094 13.304 15.21C13.304 15.2106 13.304 15.2111 13.304 15.2117C13.304 15.2123 13.304 15.213 13.304 15.2136C13.304 15.2142 13.304 15.2148 13.304 15.2154C13.304 15.2161 13.304 15.2167 13.304 15.2174C13.304 15.218 13.304 15.2187 13.304 15.2193C13.304 15.22 13.304 15.2207 13.304 15.2213C13.304 15.222 13.304 15.2227 13.304 15.2234C13.304 15.2241 13.304 15.2248 13.304 15.2255C13.304 15.2262 13.304 15.2269 13.304 15.2277C13.304 15.2284 13.304 15.2291 13.304 15.2299C13.304 15.2306 13.304 15.2314 13.304 15.2321C13.304 15.2329 13.304 15.2336 13.304 15.2344C13.304 15.2352 13.304 15.236 13.304 15.2368C13.304 15.2376 13.304 15.2384 13.304 15.2392C13.304 15.24 13.304 15.2408 13.304 15.2417C13.304 15.2425 13.304 15.2433 13.304 15.2442C13.304 15.245 13.304 15.2459 13.304 15.2467C13.304 15.2476 13.304 15.2485 13.304 15.2494C13.304 15.2502 13.304 15.2511 13.304 15.252C13.304 15.2529 13.304 15.2538 13.304 15.2548C13.304 15.2557 13.304 15.2566 13.304 15.2576C13.304 15.2585 13.304 15.2594 13.304 15.2604C13.304 15.2614 13.304 15.2623 13.304 15.2633C13.304 15.2643 13.304 15.2653 13.304 15.2663C13.304 15.2673 13.304 15.2683 13.304 15.2693C13.304 15.2703 13.304 15.2713 13.304 15.2724C13.304 15.2734 13.304 15.2744 13.304 15.2755C13.304 15.2765 13.304 15.2776 13.304 15.2787C13.304 15.2798 13.304 15.2808 13.304 15.2819C13.304 15.283 13.304 15.2841 13.304 15.2853C13.304 15.2864 13.304 15.2875 13.304 15.2886C13.304 15.2898 13.304 15.2909 13.304 15.2921C13.304 15.2932 13.304 15.2944 13.304 15.2956C13.304 15.2967 13.304 15.2979 13.304 15.2991C13.304 15.3003 13.304 15.3015 13.304 15.3028C13.304 15.304 13.304 15.3052 13.304 15.3065C13.304 15.3077 13.304 15.3089 13.304 15.3102C13.304 15.3115 13.304 15.3127 13.304 15.314C13.304 15.3153 13.304 15.3166 13.304 15.3179C13.304 15.3192 13.304 15.3205 13.304 15.3219C13.304 15.3232 13.304 15.3245 13.304 15.3259C13.304 15.3273 13.304 15.3286 13.304 15.33C13.304 15.3314 13.304 15.3327 13.304 15.3341C13.304 15.3355 13.304 15.337 13.304 15.3384C13.304 15.3398 13.304 15.3412 13.304 15.3427C13.304 15.3441 13.304 15.3456 13.304 15.347C13.304 15.3485 13.304 15.35 13.304 15.3515C13.304 15.353 13.304 15.3545 13.304 15.356C13.304 15.3575 13.304 15.359 13.304 15.3606C13.304 15.3621 13.304 15.3636 13.304 15.3652C13.304 15.3668 13.304 15.3683 13.304 15.3699C13.304 15.3715 13.304 15.3731 13.304 15.3747C13.304 15.3763 13.304 15.378 13.304 15.3796C13.304 15.3812 13.304 15.3829 13.304 15.3845C13.304 15.3862 13.304 15.3879 13.304 15.3896C13.304 15.3912 13.304 15.3929 13.304 15.3947C13.304 15.3964 13.304 15.3981 13.304 15.3998C13.304 15.4016 13.304 15.4033 13.304 15.4051C13.304 15.4068 13.304 15.4086 13.304 15.4104C13.304 15.4122 13.304 15.414 13.304 15.4158C13.304 15.4176 13.304 15.4194 13.304 15.4213C13.304 15.4231 13.304 15.425 13.304 15.4268C13.304 15.4287 13.304 15.4306 13.304 15.4325C13.304 15.4344 13.304 15.4363 13.304 15.4382C13.304 15.4401 13.304 15.442 13.304 15.444C13.304 15.4459 13.304 15.4479 13.304 15.4499C13.304 15.4519 13.304 15.4538 13.304 15.4558C13.304 15.4578 13.304 15.4599 13.304 15.4619C13.304 15.4639 13.304 15.466 13.304 15.468C13.304 15.4701 13.304 15.4721 13.304 15.4742C13.304 15.4763 13.304 15.4784 13.304 15.4805C13.304 15.4826 13.304 15.4848 13.304 15.4869C13.304 15.489 13.304 15.4912 13.304 15.4934C13.304 15.4955 13.304 15.4977 13.304 15.4999C13.304 15.5021 13.304 15.5043 13.304 15.5065C13.304 15.5088 13.304 15.511 13.304 15.5133C13.304 15.5155 13.304 15.5178 13.304 15.5201C13.304 15.5224 13.304 15.5247 13.304 15.527C13.304 15.5293 13.304 15.5316 13.304 15.534C13.304 15.5363 13.304 15.5387 13.304 15.541C13.304 15.5434 13.304 15.5458 13.304 15.5482C13.304 15.5506 13.304 15.553 13.304 15.5555C13.304 15.5579 13.304 15.5603 13.304 15.5628C13.304 15.5653 13.304 15.5677 13.304 15.5702C13.304 15.5727 13.304 15.5752 13.304 15.5778C13.304 15.5803 13.304 15.5828 13.304 15.5854C13.304 15.5879 13.304 15.5905 13.304 15.5931C13.304 15.5957 13.304 15.5983 13.304 15.6009C13.304 15.6035 13.304 15.6062 13.304 15.6088C13.304 15.6115 13.304 15.6141 13.304 15.6168C13.304 15.6195 13.304 15.6222 13.304 15.6249C13.304 15.6276 13.304 15.6303 13.304 15.6331C13.304 15.6358 13.304 15.6386 13.304 15.6414C13.304 15.6441 13.304 15.6469 13.304 15.6498C13.304 15.6526 13.304 15.6554 13.304 15.6582C13.304 15.6611 13.304 15.6639 13.304 15.6668C13.304 15.6697 13.304 15.6726 13.304 15.6755C13.304 15.6784 13.304 15.6813 13.304 15.6843C13.304 15.6872 13.304 15.6902 13.304 15.6931C13.304 15.6961 13.304 15.6991 13.304 15.7021C13.304 15.7051 13.304 15.7081 13.304 15.7112C13.304 15.7142 13.304 15.7173 13.304 15.7203C13.304 15.7234 13.304 15.7265 13.304 15.7296C13.304 15.7327 13.304 15.7359 13.304 15.739C13.304 15.7422 13.304 15.7453 13.304 15.7485C13.304 15.7517 13.304 15.7549 13.304 15.7581C13.304 15.7613 13.304 15.7645 13.304 15.7678C13.304 15.771 13.304 15.7743 13.304 15.7776C13.304 15.7808 13.304 15.7841 13.304 15.7875C13.304 15.7908 13.304 15.7941 13.304 15.7975C13.304 15.8008 13.304 15.8042 13.304 15.8076C13.304 15.811 13.304 15.8144 13.304 15.8178C13.304 15.8212 13.304 15.8247 13.304 15.8281C13.304 15.8316 13.304 15.8351 13.304 15.8386C13.304 15.8421 13.304 15.8456 13.304 15.8491C13.304 15.8526 13.304 15.8562 13.304 15.8598C13.304 15.8633 13.304 15.8669 13.304 15.8705C13.304 15.8741 13.304 15.8778 13.304 15.8814C13.304 15.8851 13.304 15.8887 13.304 15.8924C13.304 15.8961 13.304 15.8998 13.304 15.9035C13.304 15.9072 13.304 15.9109 13.304 15.9147C13.304 15.9185 13.304 15.9222 13.304 15.926C13.304 15.9298 13.304 15.9336 13.304 15.9375C13.304 15.9413 13.304 15.9451 13.304 15.949C13.304 15.9529 13.304 15.9568 13.304 15.9607C13.304 15.9646 13.304 15.9685 13.304 15.9724C13.304 15.9764 13.304 15.9804 13.304 15.9843C13.304 15.9883 13.304 15.9923 13.304 15.9963C13.304 16.0004 13.304 16.0044 13.304 16.0085C13.304 16.0125 13.304 16.0166 13.304 16.0207C13.304 16.0248 13.304 16.0289 13.304 16.0331C13.304 16.0372 13.304 16.0414 13.304 16.0456C13.304 16.0497 13.304 16.0539 13.304 16.0582C13.304 16.0624 13.304 16.0666 13.304 16.0709C13.304 16.0751 13.304 16.0794 13.304 16.0837C13.304 16.088 13.304 16.0923 13.304 16.0967C13.304 16.101 13.304 16.1054 13.304 16.1097C13.304 16.1141 13.304 16.1185 13.304 16.1229C13.304 16.1274 13.304 16.1318 13.304 16.1363C13.304 16.1407 13.304 16.1452 13.304 16.1497C13.304 16.1542 13.304 16.1587 13.304 16.1633C13.304 16.1678 13.304 16.1724 13.304 16.177C13.304 16.1816 13.304 16.1862 13.304 16.1908C13.304 16.1954 13.304 16.2001 13.304 16.2047C13.304 16.2094 13.304 16.2141 13.304 16.2188C13.304 16.2235 13.304 16.2282 13.304 16.233C13.304 16.2378 13.304 16.2425 13.304 16.2473C13.304 16.2521 13.304 16.2569 13.304 16.2618C13.304 16.2666 13.304 16.2715 13.304 16.2763C13.304 16.2812 13.304 16.2861 13.304 16.2911C13.304 16.296 13.304 16.3009 13.304 16.3059C13.304 16.3109 13.304 16.3158 13.304 16.3208C13.304 16.3259 13.304 16.3309 13.304 16.3359C13.304 16.341 13.304 16.3461 13.304 16.3512C13.304 16.3563 13.304 16.3614 13.304 16.3665C13.304 16.3717 13.304 16.3768 13.304 16.382C13.304 16.3872 13.304 16.3924 13.304 16.3976C13.304 16.4029 13.304 16.4081 13.304 16.4134C13.304 16.4187 13.304 16.4239 13.304 16.4293C13.304 16.4346 13.304 16.4399 13.304 16.4453C13.304 16.4506 13.304 16.456 13.304 16.4614C13.304 16.4668 13.304 16.4723 13.304 16.4777C13.304 16.4832 13.304 16.4887 13.304 16.4942C13.304 16.4997 13.304 16.5052 13.304 16.5107C13.304 16.5163 13.304 16.5218 13.304 16.5274C13.304 16.533 13.304 16.5386 13.304 16.5443C13.304 16.5499 13.304 16.5555 13.304 16.5612C13.304 16.5669 13.304 16.5726 13.304 16.5783C13.304 16.5841 13.304 16.5898 13.304 16.5956C13.304 16.6014 13.304 16.6072 13.304 16.613C13.304 16.6188 13.304 16.6246 13.304 16.6305C13.304 16.6364 13.304 16.6423 13.304 16.6482C13.304 16.6541 13.304 16.66 13.304 16.666C13.304 16.672 13.304 16.6779 13.304 16.684C13.304 16.69 13.304 16.696 13.304 16.7021C13.304 16.7081 13.304 16.7142 13.304 16.7203C13.304 16.7264 13.304 16.7325 13.304 16.7387C13.304 16.7448 13.304 16.751 13.304 16.7572C13.304 16.7634 13.304 16.7696 13.304 16.7759C13.304 16.7821 13.304 16.7884 13.304 16.7947C13.304 16.801 13.304 16.8073 13.304 16.8137C13.304 16.82 13.304 16.8264 13.304 16.8328C13.304 16.8392 13.304 16.8456 13.304 16.852C13.304 16.8585 13.304 16.865 13.304 16.8714C13.304 16.8779 13.304 16.8845 13.304 16.891C13.304 16.8975 13.304 16.9041 13.304 16.9107C13.304 16.9173 13.304 16.9239 13.304 16.9306C13.304 16.9372 13.304 16.9439 13.304 16.9506C13.304 16.9572 13.304 16.964 13.304 16.9707C13.304 16.9775 13.304 16.9842 13.304 16.991C13.304 16.9978 13.304 17.0046 13.304 17.0115C13.304 17.0183 13.304 17.0252 13.304 17.0321C13.304 17.039 13.304 17.0459 13.304 17.0528C13.304 17.0598 13.304 17.0668 13.304 17.0737C13.304 17.0807 13.304 17.0878 13.304 17.0948C13.304 17.1019 13.304 17.1089 13.304 17.116C13.304 17.1231 13.304 17.1303 13.304 17.1374C13.304 17.1446 13.304 17.1517 13.304 17.1589C13.304 17.1661 13.304 17.1734 13.304 17.1806C13.304 17.1879 13.304 17.1952 13.304 17.2025C13.304 17.2098 13.304 17.2171 13.304 17.2245C13.304 17.2318 13.304 17.2392 13.304 17.2466C13.304 17.254 13.304 17.2615 13.304 17.269C13.304 17.2764 13.304 17.2839 13.304 17.2914C13.304 17.2989 13.304 17.3065 13.304 17.3141C13.304 17.3216 13.304 17.3292 13.304 17.3369C13.304 17.3445 13.304 17.3521 13.304 17.3598C13.304 17.3675 13.304 17.3752 13.304 17.3829C13.304 17.3907 13.304 17.3984 13.304 17.4062C13.304 17.414 13.304 17.4218 13.304 17.4297C13.304 17.4375 13.304 17.4454 13.304 17.4533C13.304 17.4611 13.304 17.4691 13.304 17.477C13.304 17.485 13.304 17.4929 13.304 17.501C13.304 17.509 13.304 17.517 13.304 17.525C13.304 17.5331 13.304 17.5412 13.304 17.5493C13.304 17.5574 13.304 17.5656 13.304 17.5737C13.304 17.5819 13.304 17.5901 13.304 17.5983C13.304 17.6066 13.304 17.6148 13.304 17.6231C13.304 17.6314 13.304 17.6397 13.304 17.648C13.304 17.6563 13.304 17.6647 13.304 17.6731C13.304 17.6815 13.304 17.6899 13.304 17.6984C13.304 17.7068 13.304 17.7153 13.304 17.7238C13.304 17.7323 13.304 17.7408 13.304 17.7494C13.304 17.758 13.304 17.7666 13.304 17.7752C13.304 17.7838 13.304 17.7924 13.304 17.8011C13.304 17.8098 13.304 17.8185 13.304 17.8272C13.304 17.836 13.304 17.8447 13.304 17.8535C13.304 17.8623 13.304 17.8711 13.304 17.88C13.304 17.8888 13.304 17.8977 13.304 17.9066C13.304 17.9155 13.304 17.9244 13.304 17.9334C13.304 17.9424 13.304 17.9514 13.304 17.9604C13.304 17.9694 13.304 17.9785 13.304 17.9875C13.304 17.9966 13.304 18.0057 13.304 18.0149C13.304 18.024 13.304 18.0332 13.304 18.0424C13.304 18.0516 13.304 18.0608 13.304 18.07C13.304 18.0793 13.304 18.0886 13.304 18.0979C13.304 18.1072 13.304 18.1166 13.304 18.1259C13.304 18.1353 13.304 18.1447 13.304 18.1541C13.304 18.1636 13.304 18.173 13.304 18.1825C13.304 18.192 13.304 18.2015 13.304 18.2111C13.304 18.2207 13.304 18.2302 13.304 18.2399C13.304 18.2495 13.304 18.2591 13.304 18.2688C13.304 18.2785 13.304 18.2882 13.304 18.2979C13.304 18.3076 13.304 18.3174 13.304 18.3272C13.304 18.337 13.304 18.3468 13.304 18.3567C13.304 18.3665 13.304 18.3764 13.304 18.3863C13.304 18.3962 13.304 18.4062 13.304 18.4162C13.304 18.4261 13.304 18.4361 13.304 18.4462C13.304 18.4562 13.304 18.4663 13.304 18.4764C13.304 18.4865 13.304 18.4966 13.304 18.5068C13.304 18.5169 13.304 18.5271 13.304 18.5373C13.304 18.5476 13.304 18.5578 13.304 18.5681C13.304 18.5784 13.304 18.5887 13.304 18.5991C13.304 18.6094 13.304 18.6198 13.304 18.6302C13.304 18.6406 13.304 18.651 13.304 18.6615C13.304 18.672 13.304 18.6825 13.304 18.693C13.304 18.7036 13.304 18.7141 13.304 18.7247C13.304 18.7353 13.304 18.746 13.304 18.7566C13.304 18.7673 13.304 18.778 13.304 18.7887C13.304 18.7994 13.304 18.8102 13.304 18.821C13.304 18.8318 13.304 18.8426 13.304 18.8534C13.304 18.8643 13.304 18.8752 13.304 18.8861C13.304 18.897 13.304 18.908 13.304 18.9189C13.304 18.9299 13.304 18.9409 13.304 18.952C13.304 18.963 13.304 18.9741 13.304 18.9852C13.304 18.9963 13.304 19.0075 13.304 19.0186C13.304 19.0298 13.304 19.041 13.304 19.0522C13.304 19.0635 13.304 19.0748 13.304 19.0861C13.304 19.0974 13.304 19.1087 13.304 19.1201C13.304 19.1314 13.304 19.1428 13.304 19.1543C13.304 19.1657 13.304 19.1772 13.304 19.1887C13.304 19.2002 13.304 19.2117 13.304 19.2233C13.304 19.2348 13.304 19.2464 13.304 19.2581C13.304 19.2697 13.304 19.2814 13.304 19.2931C13.304 19.3048 13.304 19.3165 13.304 19.3283C13.304 19.34 13.304 19.3518 13.304 19.3636C13.304 19.3755 13.304 19.3873 13.304 19.3992C13.304 19.4111 13.304 19.4231 13.304 19.435C13.304 19.447 13.304 19.459 13.304 19.471C13.304 19.4831 13.304 19.4951 13.304 19.5072C13.304 19.5193 13.304 19.5315 13.304 19.5436C13.304 19.5558 13.304 19.568 13.304 19.5802C13.304 19.5925 13.304 19.6047 13.304 19.617C13.304 19.6293 13.304 19.6417 13.304 19.654C13.304 19.6664 13.304 19.6788 13.304 19.6912C13.304 19.7037 13.304 19.7162 13.304 19.7287C13.304 19.7412 13.304 19.7537 13.304 19.7663C13.304 19.7789 13.304 19.7915 13.304 19.8041C13.304 19.8168 13.304 19.8294 13.304 19.8422C13.304 19.8549 13.304 19.8676 13.304 19.8804C13.304 19.8932 13.304 19.906 13.304 19.9188C13.304 19.9317 13.304 19.9446 13.304 19.9575C13.304 19.9704 13.304 19.9834 13.304 19.9964C13.304 20.0094 13.304 20.0224 13.304 20.0355C13.304 20.0485 13.304 20.0616 13.304 20.0747C13.304 20.0879 13.304 20.101 13.304 20.1142C13.304 20.1274 13.304 20.1407 13.304 20.154C13.304 20.1672 13.304 20.1805 13.304 20.1939C13.304 20.2072 13.304 20.2206 13.304 20.234C13.304 20.2474 13.304 20.2609 13.304 20.2744C13.304 20.2878 13.304 20.3014 13.304 20.3149C13.304 20.3285 13.304 20.3421 13.304 20.3557C13.304 20.3693 13.304 20.383 13.304 20.3967C13.304 20.4104 13.304 20.4241 13.304 20.4379C13.304 20.4517 13.304 20.4655 13.304 20.4793C13.304 20.4931 13.304 20.507 13.304 20.5209C13.304 20.5349 13.304 20.5488 13.304 20.5628C13.304 20.5768 13.304 20.5908 13.304 20.6049C13.304 20.6189 13.304 20.633 13.304 20.6472C13.304 20.6613 13.304 20.6755 13.304 20.6897C13.304 20.7039 13.304 20.7181 13.304 20.7324C13.304 20.7467 13.304 20.761 13.304 20.7753C13.304 20.7897 13.304 20.8041 13.304 20.8185C13.304 20.8329 13.304 20.8474 13.304 20.8619C13.304 20.8764 13.304 20.8909 13.304 20.9055C13.304 20.9201 13.304 20.9347 13.304 20.9493C13.304 20.964 13.304 20.9787 13.304 20.9934C13.304 21.0081 13.304 21.0229 13.304 21.0377C13.304 21.0525 13.304 21.0673 13.304 21.0822C13.304 21.097 13.304 21.1119 13.304 21.1269C13.304 21.1418 13.304 21.1568 13.304 21.1718C13.304 21.1868 13.304 21.2019 13.304 21.217C13.304 21.2321 13.304 21.2472 13.304 21.2624C13.304 21.2776 13.304 21.2928 13.304 21.308C13.304 21.3233 13.304 21.3386 13.304 21.3539C13.304 21.3692 13.304 21.3846 13.304 21.4C13.304 21.4154 13.304 21.4308 13.304 21.4463C13.304 21.4617 13.304 21.4773 13.304 21.4928C13.304 21.5084 13.304 21.5239 13.304 21.5396C13.304 21.5552 13.304 21.5709 13.304 21.5866C13.304 21.6023 13.304 21.618 13.304 21.6338C13.304 21.6496 13.304 21.6654 13.304 21.6813C13.304 21.6971 13.304 21.713 13.304 21.7289C13.304 21.7449 13.304 21.7609 13.304 21.7769C13.304 21.7929 13.304 21.8089 13.304 21.825C13.304 21.8411 13.304 21.8572 13.304 21.8734C13.304 21.8896 13.304 21.9058 13.304 21.922C13.304 21.9383 13.304 21.9546 13.304 21.9709C13.304 21.9872 13.304 22.0036 13.304 22.02C13.304 22.0364 13.304 22.0528 13.304 22.0693C13.304 22.0858 13.304 22.1023 13.304 22.1189C13.304 22.1354 13.304 22.152 13.304 22.1687C13.304 22.1853 13.304 22.202 13.304 22.2187C13.304 22.2354 13.304 22.2522 13.304 22.269C13.304 22.2858 13.304 22.3026 13.304 22.3195C13.304 22.3364 13.304 22.3533 13.304 22.3702C13.304 22.3872 13.304 22.4042 13.304 22.4212C13.304 22.4383 13.304 22.4553 13.304 22.4725C13.304 22.4896 13.304 22.5067 13.304 22.5239C13.304 22.5411 13.304 22.5584 13.304 22.5756C13.304 22.5929 13.304 22.6102 13.304 22.6276C13.304 22.6449 13.304 22.6623 13.304 22.6798C13.304 22.6972 13.304 22.7147 13.304 22.7322C13.304 22.7497 13.304 22.7673 13.304 22.7849C13.304 22.8025 13.304 22.8201 13.304 22.8378C13.304 22.8555 13.304 22.8732 13.304 22.891C13.304 22.9088 13.304 22.9266 13.304 22.9444C13.304 22.9623 13.304 22.9801 13.304 22.9981C13.304 23.016 13.304 23.034 13.304 23.052C13.304 23.07 13.304 23.088 13.304 23.1061C13.304 23.1242 13.304 23.1424 13.304 23.1605C13.304 23.1787 13.304 23.1969 13.304 23.2152C13.304 23.2334 13.304 23.2517 13.304 23.2701C13.304 23.2884 13.304 23.3068 13.304 23.3252C13.304 23.3436 13.304 23.3621 13.304 23.3806C13.304 23.3991 13.304 23.4177 13.304 23.4363C13.304 23.4548 13.304 23.4735 13.304 23.4921C13.304 23.5108 13.304 23.5295 13.304 23.5483C13.304 23.5671 13.304 23.5859 13.304 23.6047C13.304 23.6235 13.304 23.6424 13.304 23.6613C13.304 23.6803 13.304 23.6992 13.304 23.7183C13.304 23.7373 13.304 23.7563 13.304 23.7754C13.304 23.7945 13.304 23.8136 13.304 23.8328C13.304 23.852 13.304 23.8712 13.304 23.8905C13.304 23.9097 13.304 23.9291 13.304 23.9484C13.304 23.9678 13.304 23.9871 13.304 24.0066C13.304 24.026 13.304 24.0455 13.304 24.065C13.304 24.0845 13.304 24.1041 13.304 24.1237C13.304 24.1433 13.304 24.163 13.304 24.1827C13.304 24.2023 13.304 24.2221 13.304 24.2419C13.304 24.2616 13.304 24.2815 13.304 24.3013C13.304 24.3212 13.304 24.3411 13.304 24.361C13.304 24.381 13.304 24.401 13.304 24.421C13.304 24.4411 13.304 24.4611 13.304 24.4813C13.304 24.5014 13.304 24.5216 13.304 24.5418C13.304 24.562 13.304 24.5822 13.304 24.6025C13.304 24.6228 13.304 24.6432 13.304 24.6636C13.304 24.684 13.304 24.7044 13.304 24.7249C13.304 24.7453 13.304 24.7658 13.304 24.7864C13.304 24.807 13.304 24.8276 13.304 24.8482C13.304 24.8689 13.304 24.8896 13.304 24.9103C13.304 24.931 13.304 24.9518 13.304 24.9726C13.304 24.9935 13.304 25.0143 13.304 25.0353C13.304 25.0562 13.304 25.0771 13.304 25.0981C13.304 25.1191 13.304 25.1402 13.304 25.1613C13.304 25.1824 13.304 25.2035 13.304 25.2247C13.304 25.2459 13.304 25.2671 13.304 25.2884C13.304 25.3096 13.304 25.3309 13.304 25.3523C13.304 25.3737 13.304 25.3951 13.304 25.4165C13.304 25.438 13.304 25.4595 13.304 25.481C13.304 25.5025 13.304 25.5241 13.304 25.5458C13.304 25.5674 13.304 25.5891 13.304 25.6108C13.304 25.6325 13.304 25.6543 13.304 25.6761C13.304 25.6979 13.304 25.7197 13.304 25.7416C13.304 25.7635 13.304 25.7855 13.304 25.8075C13.304 25.8295 13.304 25.8515 13.304 25.8736C13.304 25.8957 13.304 25.9178 13.304 25.94C13.304 25.9621 13.304 25.9844 13.304 26.0066C13.304 26.0289 13.304 26.0512 13.304 26.0736C13.304 26.0959 13.304 26.1183 13.304 26.1408C13.304 26.1632 13.304 26.1857 13.304 26.2083C13.304 26.2308 13.304 26.2534 13.304 26.276C13.304 26.2986 13.304 26.3213 13.304 26.344C13.304 26.3668 13.304 26.3895 13.304 26.4124C13.304 26.4352 13.304 26.458 13.304 26.4809C13.304 26.5039 13.304 26.5268 13.304 26.5498C13.304 26.5728 13.304 26.5959 13.304 26.619C13.304 26.6421 13.304 26.6652 13.304 26.6884C13.304 26.7116 13.304 26.7348 13.304 26.7581C13.304 26.7814 13.304 26.8047 13.304 26.8281C13.304 26.8515 13.304 26.8749 13.304 26.8983C13.304 26.9218 13.304 26.9453 13.304 26.9689C13.304 26.9925 13.304 27.0161 13.304 27.0397C13.304 27.0634 13.304 27.0871 13.304 27.1108C13.304 27.1346 13.304 27.1584 13.304 27.1822C13.304 27.2061 13.304 27.23 13.304 27.2539C13.304 27.2779 13.304 27.3018 13.304 27.3259C13.304 27.3499 13.304 27.374 13.304 27.3981C13.304 27.4223 13.304 27.4464 13.304 27.4707C13.304 27.4949 13.304 27.5192 13.304 27.5435C13.304 27.5678 13.304 27.5922 13.304 27.6166C13.304 27.641 13.304 27.6655 13.304 27.69C13.304 27.7145 13.304 27.7391 13.304 27.7637H16.8897C16.8897 27.7391 16.8897 27.7145 16.8897 27.69C16.8897 27.6655 16.8897 27.641 16.8897 27.6166C16.8897 27.5922 16.8897 27.5678 16.8897 27.5435C16.8897 27.5192 16.8897 27.4949 16.8897 27.4707C16.8897 27.4464 16.8897 27.4223 16.8897 27.3981C16.8897 27.374 16.8897 27.3499 16.8897 27.3259C16.8897 27.3018 16.8897 27.2779 16.8897 27.2539C16.8897 27.23 16.8897 27.2061 16.8897 27.1822C16.8897 27.1584 16.8897 27.1346 16.8897 27.1108C16.8897 27.0871 16.8897 27.0634 16.8897 27.0397C16.8897 27.0161 16.8897 26.9925 16.8897 26.9689C16.8897 26.9453 16.8897 26.9218 16.8897 26.8983C16.8897 26.8749 16.8897 26.8515 16.8897 26.8281C16.8897 26.8047 16.8897 26.7814 16.8897 26.7581C16.8897 26.7348 16.8897 26.7116 16.8897 26.6884C16.8897 26.6652 16.8897 26.6421 16.8897 26.619C16.8897 26.5959 16.8897 26.5728 16.8897 26.5498C16.8897 26.5268 16.8897 26.5039 16.8897 26.4809C16.8897 26.458 16.8897 26.4352 16.8897 26.4124C16.8897 26.3895 16.8897 26.3668 16.8897 26.344C16.8897 26.3213 16.8897 26.2986 16.8897 26.276C16.8897 26.2534 16.8897 26.2308 16.8897 26.2083C16.8897 26.1857 16.8897 26.1632 16.8897 26.1408C16.8897 26.1183 16.8897 26.0959 16.8897 26.0736C16.8897 26.0512 16.8897 26.0289 16.8897 26.0066C16.8897 25.9844 16.8897 25.9621 16.8897 25.94C16.8897 25.9178 16.8897 25.8957 16.8897 25.8736C16.8897 25.8515 16.8897 25.8295 16.8897 25.8075C16.8897 25.7855 16.8897 25.7635 16.8897 25.7416C16.8897 25.7197 16.8897 25.6979 16.8897 25.6761C16.8897 25.6543 16.8897 25.6325 16.8897 25.6108C16.8897 25.5891 16.8897 25.5674 16.8897 25.5458C16.8897 25.5241 16.8897 25.5025 16.8897 25.481C16.8897 25.4595 16.8897 25.438 16.8897 25.4165C16.8897 25.3951 16.8897 25.3737 16.8897 25.3523C16.8897 25.3309 16.8897 25.3096 16.8897 25.2884C16.8897 25.2671 16.8897 25.2459 16.8897 25.2247C16.8897 25.2035 16.8897 25.1824 16.8897 25.1613C16.8897 25.1402 16.8897 25.1191 16.8897 25.0981C16.8897 25.0771 16.8897 25.0562 16.8897 25.0353C16.8897 25.0143 16.8897 24.9935 16.8897 24.9726C16.8897 24.9518 16.8897 24.931 16.8897 24.9103C16.8897 24.8896 16.8897 24.8689 16.8897 24.8482C16.8897 24.8276 16.8897 24.807 16.8897 24.7864C16.8897 24.7658 16.8897 24.7453 16.8897 24.7249C16.8897 24.7044 16.8897 24.684 16.8897 24.6636C16.8897 24.6432 16.8897 24.6228 16.8897 24.6025C16.8897 24.5822 16.8897 24.562 16.8897 24.5418C16.8897 24.5216 16.8897 24.5014 16.8897 24.4813C16.8897 24.4611 16.8897 24.4411 16.8897 24.421C16.8897 24.401 16.8897 24.381 16.8897 24.361C16.8897 24.3411 16.8897 24.3212 16.8897 24.3013C16.8897 24.2815 16.8897 24.2616 16.8897 24.2419C16.8897 24.2221 16.8897 24.2023 16.8897 24.1827C16.8897 24.163 16.8897 24.1433 16.8897 24.1237C16.8897 24.1041 16.8897 24.0845 16.8897 24.065C16.8897 24.0455 16.8897 24.026 16.8897 24.0066C16.8897 23.9871 16.8897 23.9678 16.8897 23.9484C16.8897 23.9291 16.8897 23.9097 16.8897 23.8905C16.8897 23.8712 16.8897 23.852 16.8897 23.8328C16.8897 23.8136 16.8897 23.7945 16.8897 23.7754C16.8897 23.7563 16.8897 23.7373 16.8897 23.7183C16.8897 23.6992 16.8897 23.6803 16.8897 23.6613C16.8897 23.6424 16.8897 23.6235 16.8897 23.6047C16.8897 23.5859 16.8897 23.5671 16.8897 23.5483C16.8897 23.5295 16.8897 23.5108 16.8897 23.4921C16.8897 23.4735 16.8897 23.4548 16.8897 23.4363C16.8897 23.4177 16.8897 23.3991 16.8897 23.3806C16.8897 23.3621 16.8897 23.3436 16.8897 23.3252C16.8897 23.3068 16.8897 23.2884 16.8897 23.2701C16.8897 23.2517 16.8897 23.2334 16.8897 23.2152C16.8897 23.1969 16.8897 23.1787 16.8897 23.1605C16.8897 23.1424 16.8897 23.1242 16.8897 23.1061C16.8897 23.088 16.8897 23.07 16.8897 23.052C16.8897 23.034 16.8897 23.016 16.8897 22.9981C16.8897 22.9801 16.8897 22.9623 16.8897 22.9444C16.8897 22.9266 16.8897 22.9088 16.8897 22.891C16.8897 22.8732 16.8897 22.8555 16.8897 22.8378C16.8897 22.8201 16.8897 22.8025 16.8897 22.7849C16.8897 22.7673 16.8897 22.7497 16.8897 22.7322C16.8897 22.7147 16.8897 22.6972 16.8897 22.6798C16.8897 22.6623 16.8897 22.6449 16.8897 22.6276C16.8897 22.6102 16.8897 22.5929 16.8897 22.5756C16.8897 22.5584 16.8897 22.5411 16.8897 22.5239C16.8897 22.5067 16.8897 22.4896 16.8897 22.4725C16.8897 22.4553 16.8897 22.4383 16.8897 22.4212C16.8897 22.4042 16.8897 22.3872 16.8897 22.3702C16.8897 22.3533 16.8897 22.3364 16.8897 22.3195C16.8897 22.3026 16.8897 22.2858 16.8897 22.269C16.8897 22.2522 16.8897 22.2354 16.8897 22.2187C16.8897 22.202 16.8897 22.1853 16.8897 22.1687C16.8897 22.152 16.8897 22.1354 16.8897 22.1189C16.8897 22.1023 16.8897 22.0858 16.8897 22.0693C16.8897 22.0528 16.8897 22.0364 16.8897 22.02C16.8897 22.0036 16.8897 21.9872 16.8897 21.9709C16.8897 21.9546 16.8897 21.9383 16.8897 21.922C16.8897 21.9058 16.8897 21.8896 16.8897 21.8734C16.8897 21.8572 16.8897 21.8411 16.8897 21.825C16.8897 21.8089 16.8897 21.7929 16.8897 21.7769C16.8897 21.7609 16.8897 21.7449 16.8897 21.7289C16.8897 21.713 16.8897 21.6971 16.8897 21.6813C16.8897 21.6654 16.8897 21.6496 16.8897 21.6338C16.8897 21.618 16.8897 21.6023 16.8897 21.5866C16.8897 21.5709 16.8897 21.5552 16.8897 21.5396C16.8897 21.5239 16.8897 21.5084 16.8897 21.4928C16.8897 21.4773 16.8897 21.4617 16.8897 21.4463C16.8897 21.4308 16.8897 21.4154 16.8897 21.4C16.8897 21.3846 16.8897 21.3692 16.8897 21.3539C16.8897 21.3386 16.8897 21.3233 16.8897 21.308C16.8897 21.2928 16.8897 21.2776 16.8897 21.2624C16.8897 21.2472 16.8897 21.2321 16.8897 21.217C16.8897 21.2019 16.8897 21.1868 16.8897 21.1718C16.8897 21.1568 16.8897 21.1418 16.8897 21.1269C16.8897 21.1119 16.8897 21.097 16.8897 21.0822C16.8897 21.0673 16.8897 21.0525 16.8897 21.0377C16.8897 21.0229 16.8897 21.0081 16.8897 20.9934C16.8897 20.9787 16.8897 20.964 16.8897 20.9493C16.8897 20.9347 16.8897 20.9201 16.8897 20.9055C16.8897 20.8909 16.8897 20.8764 16.8897 20.8619C16.8897 20.8474 16.8897 20.8329 16.8897 20.8185C16.8897 20.8041 16.8897 20.7897 16.8897 20.7753C16.8897 20.761 16.8897 20.7467 16.8897 20.7324C16.8897 20.7181 16.8897 20.7039 16.8897 20.6897C16.8897 20.6755 16.8897 20.6613 16.8897 20.6472C16.8897 20.633 16.8897 20.6189 16.8897 20.6049C16.8897 20.5908 16.8897 20.5768 16.8897 20.5628C16.8897 20.5488 16.8897 20.5349 16.8897 20.5209C16.8897 20.507 16.8897 20.4931 16.8897 20.4793C16.8897 20.4655 16.8897 20.4517 16.8897 20.4379C16.8897 20.4241 16.8897 20.4104 16.8897 20.3967C16.8897 20.383 16.8897 20.3693 16.8897 20.3557C16.8897 20.3421 16.8897 20.3285 16.8897 20.3149C16.8897 20.3014 16.8897 20.2878 16.8897 20.2744C16.8897 20.2609 16.8897 20.2474 16.8897 20.234C16.8897 20.2206 16.8897 20.2072 16.8897 20.1939C16.8897 20.1805 16.8897 20.1672 16.8897 20.154C16.8897 20.1407 16.8897 20.1274 16.8897 20.1142C16.8897 20.101 16.8897 20.0879 16.8897 20.0747C16.8897 20.0616 16.8897 20.0485 16.8897 20.0355C16.8897 20.0224 16.8897 20.0094 16.8897 19.9964C16.8897 19.9834 16.8897 19.9704 16.8897 19.9575C16.8897 19.9446 16.8897 19.9317 16.8897 19.9188C16.8897 19.906 16.8897 19.8932 16.8897 19.8804C16.8897 19.8676 16.8897 19.8549 16.8897 19.8422C16.8897 19.8294 16.8897 19.8168 16.8897 19.8041C16.8897 19.7915 16.8897 19.7789 16.8897 19.7663C16.8897 19.7537 16.8897 19.7412 16.8897 19.7287C16.8897 19.7162 16.8897 19.7037 16.8897 19.6912C16.8897 19.6788 16.8897 19.6664 16.8897 19.654C16.8897 19.6417 16.8897 19.6293 16.8897 19.617C16.8897 19.6047 16.8897 19.5925 16.8897 19.5802C16.8897 19.568 16.8897 19.5558 16.8897 19.5436C16.8897 19.5315 16.8897 19.5193 16.8897 19.5072C16.8897 19.4951 16.8897 19.4831 16.8897 19.471C16.8897 19.459 16.8897 19.447 16.8897 19.435C16.8897 19.4231 16.8897 19.4111 16.8897 19.3992C16.8897 19.3873 16.8897 19.3755 16.8897 19.3636C16.8897 19.3518 16.8897 19.34 16.8897 19.3283C16.8897 19.3165 16.8897 19.3048 16.8897 19.2931C16.8897 19.2814 16.8897 19.2697 16.8897 19.2581C16.8897 19.2464 16.8897 19.2348 16.8897 19.2233C16.8897 19.2117 16.8897 19.2002 16.8897 19.1887C16.8897 19.1772 16.8897 19.1657 16.8897 19.1543C16.8897 19.1428 16.8897 19.1314 16.8897 19.1201C16.8897 19.1087 16.8897 19.0974 16.8897 19.0861C16.8897 19.0748 16.8897 19.0635 16.8897 19.0522C16.8897 19.041 16.8897 19.0298 16.8897 19.0186C16.8897 19.0075 16.8897 18.9963 16.8897 18.9852C16.8897 18.9741 16.8897 18.963 16.8897 18.952C16.8897 18.9409 16.8897 18.9299 16.8897 18.9189C16.8897 18.908 16.8897 18.897 16.8897 18.8861C16.8897 18.8752 16.8897 18.8643 16.8897 18.8534C16.8897 18.8426 16.8897 18.8318 16.8897 18.821C16.8897 18.8102 16.8897 18.7994 16.8897 18.7887C16.8897 18.778 16.8897 18.7673 16.8897 18.7566C16.8897 18.746 16.8897 18.7353 16.8897 18.7247C16.8897 18.7141 16.8897 18.7036 16.8897 18.693C16.8897 18.6825 16.8897 18.672 16.8897 18.6615C16.8897 18.651 16.8897 18.6406 16.8897 18.6302C16.8897 18.6198 16.8897 18.6094 16.8897 18.5991C16.8897 18.5887 16.8897 18.5784 16.8897 18.5681C16.8897 18.5578 16.8897 18.5476 16.8897 18.5373C16.8897 18.5271 16.8897 18.5169 16.8897 18.5068C16.8897 18.4966 16.8897 18.4865 16.8897 18.4764C16.8897 18.4663 16.8897 18.4562 16.8897 18.4462C16.8897 18.4361 16.8897 18.4261 16.8897 18.4162C16.8897 18.4062 16.8897 18.3962 16.8897 18.3863C16.8897 18.3764 16.8897 18.3665 16.8897 18.3567C16.8897 18.3468 16.8897 18.337 16.8897 18.3272C16.8897 18.3174 16.8897 18.3076 16.8897 18.2979C16.8897 18.2882 16.8897 18.2785 16.8897 18.2688C16.8897 18.2591 16.8897 18.2495 16.8897 18.2399C16.8897 18.2302 16.8897 18.2207 16.8897 18.2111C16.8897 18.2015 16.8897 18.192 16.8897 18.1825C16.8897 18.173 16.8897 18.1636 16.8897 18.1541C16.8897 18.1447 16.8897 18.1353 16.8897 18.1259C16.8897 18.1166 16.8897 18.1072 16.8897 18.0979C16.8897 18.0886 16.8897 18.0793 16.8897 18.07C16.8897 18.0608 16.8897 18.0516 16.8897 18.0424C16.8897 18.0332 16.8897 18.024 16.8897 18.0149C16.8897 18.0057 16.8897 17.9966 16.8897 17.9875C16.8897 17.9785 16.8897 17.9694 16.8897 17.9604C16.8897 17.9514 16.8897 17.9424 16.8897 17.9334C16.8897 17.9244 16.8897 17.9155 16.8897 17.9066C16.8897 17.8977 16.8897 17.8888 16.8897 17.88C16.8897 17.8711 16.8897 17.8623 16.8897 17.8535C16.8897 17.8447 16.8897 17.836 16.8897 17.8272C16.8897 17.8185 16.8897 17.8098 16.8897 17.8011C16.8897 17.7924 16.8897 17.7838 16.8897 17.7752C16.8897 17.7666 16.8897 17.758 16.8897 17.7494C16.8897 17.7408 16.8897 17.7323 16.8897 17.7238C16.8897 17.7153 16.8897 17.7068 16.8897 17.6984C16.8897 17.6899 16.8897 17.6815 16.8897 17.6731C16.8897 17.6647 16.8897 17.6563 16.8897 17.648C16.8897 17.6397 16.8897 17.6314 16.8897 17.6231C16.8897 17.6148 16.8897 17.6066 16.8897 17.5983C16.8897 17.5901 16.8897 17.5819 16.8897 17.5737C16.8897 17.5656 16.8897 17.5574 16.8897 17.5493C16.8897 17.5412 16.8897 17.5331 16.8897 17.525C16.8897 17.517 16.8897 17.509 16.8897 17.501C16.8897 17.4929 16.8897 17.485 16.8897 17.477C16.8897 17.4691 16.8897 17.4611 16.8897 17.4533C16.8897 17.4454 16.8897 17.4375 16.8897 17.4297C16.8897 17.4218 16.8897 17.414 16.8897 17.4062C16.8897 17.3984 16.8897 17.3907 16.8897 17.3829C16.8897 17.3752 16.8897 17.3675 16.8897 17.3598C16.8897 17.3521 16.8897 17.3445 16.8897 17.3369C16.8897 17.3292 16.8897 17.3216 16.8897 17.3141C16.8897 17.3065 16.8897 17.2989 16.8897 17.2914C16.8897 17.2839 16.8897 17.2764 16.8897 17.269C16.8897 17.2615 16.8897 17.254 16.8897 17.2466C16.8897 17.2392 16.8897 17.2318 16.8897 17.2245C16.8897 17.2171 16.8897 17.2098 16.8897 17.2025C16.8897 17.1952 16.8897 17.1879 16.8897 17.1806C16.8897 17.1734 16.8897 17.1661 16.8897 17.1589C16.8897 17.1517 16.8897 17.1446 16.8897 17.1374C16.8897 17.1303 16.8897 17.1231 16.8897 17.116C16.8897 17.1089 16.8897 17.1019 16.8897 17.0948C16.8897 17.0878 16.8897 17.0807 16.8897 17.0737C16.8897 17.0668 16.8897 17.0598 16.8897 17.0528C16.8897 17.0459 16.8897 17.039 16.8897 17.0321C16.8897 17.0252 16.8897 17.0183 16.8897 17.0115C16.8897 17.0046 16.8897 16.9978 16.8897 16.991C16.8897 16.9842 16.8897 16.9775 16.8897 16.9707C16.8897 16.964 16.8897 16.9572 16.8897 16.9506C16.8897 16.9439 16.8897 16.9372 16.8897 16.9306C16.8897 16.9239 16.8897 16.9173 16.8897 16.9107C16.8897 16.9041 16.8897 16.8975 16.8897 16.891C16.8897 16.8845 16.8897 16.8779 16.8897 16.8714C16.8897 16.865 16.8897 16.8585 16.8897 16.852C16.8897 16.8456 16.8897 16.8392 16.8897 16.8328C16.8897 16.8264 16.8897 16.82 16.8897 16.8137C16.8897 16.8073 16.8897 16.801 16.8897 16.7947C16.8897 16.7884 16.8897 16.7821 16.8897 16.7759C16.8897 16.7696 16.8897 16.7634 16.8897 16.7572C16.8897 16.751 16.8897 16.7448 16.8897 16.7387C16.8897 16.7325 16.8897 16.7264 16.8897 16.7203C16.8897 16.7142 16.8897 16.7081 16.8897 16.7021C16.8897 16.696 16.8897 16.69 16.8897 16.684C16.8897 16.6779 16.8897 16.672 16.8897 16.666C16.8897 16.66 16.8897 16.6541 16.8897 16.6482C16.8897 16.6423 16.8897 16.6364 16.8897 16.6305C16.8897 16.6246 16.8897 16.6188 16.8897 16.613C16.8897 16.6072 16.8897 16.6014 16.8897 16.5956C16.8897 16.5898 16.8897 16.5841 16.8897 16.5783C16.8897 16.5726 16.8897 16.5669 16.8897 16.5612C16.8897 16.5555 16.8897 16.5499 16.8897 16.5443C16.8897 16.5386 16.8897 16.533 16.8897 16.5274C16.8897 16.5218 16.8897 16.5163 16.8897 16.5107C16.8897 16.5052 16.8897 16.4997 16.8897 16.4942C16.8897 16.4887 16.8897 16.4832 16.8897 16.4777C16.8897 16.4723 16.8897 16.4668 16.8897 16.4614C16.8897 16.456 16.8897 16.4506 16.8897 16.4453C16.8897 16.4399 16.8897 16.4346 16.8897 16.4293C16.8897 16.4239 16.8897 16.4187 16.8897 16.4134C16.8897 16.4081 16.8897 16.4029 16.8897 16.3976C16.8897 16.3924 16.8897 16.3872 16.8897 16.382C16.8897 16.3768 16.8897 16.3717 16.8897 16.3665C16.8897 16.3614 16.8897 16.3563 16.8897 16.3512C16.8897 16.3461 16.8897 16.341 16.8897 16.3359C16.8897 16.3309 16.8897 16.3259 16.8897 16.3208C16.8897 16.3158 16.8897 16.3109 16.8897 16.3059C16.8897 16.3009 16.8897 16.296 16.8897 16.2911C16.8897 16.2861 16.8897 16.2812 16.8897 16.2763C16.8897 16.2715 16.8897 16.2666 16.8897 16.2618C16.8897 16.2569 16.8897 16.2521 16.8897 16.2473C16.8897 16.2425 16.8897 16.2378 16.8897 16.233C16.8897 16.2282 16.8897 16.2235 16.8897 16.2188C16.8897 16.2141 16.8897 16.2094 16.8897 16.2047C16.8897 16.2001 16.8897 16.1954 16.8897 16.1908C16.8897 16.1862 16.8897 16.1816 16.8897 16.177C16.8897 16.1724 16.8897 16.1678 16.8897 16.1633C16.8897 16.1587 16.8897 16.1542 16.8897 16.1497C16.8897 16.1452 16.8897 16.1407 16.8897 16.1363C16.8897 16.1318 16.8897 16.1274 16.8897 16.1229C16.8897 16.1185 16.8897 16.1141 16.8897 16.1097C16.8897 16.1054 16.8897 16.101 16.8897 16.0967C16.8897 16.0923 16.8897 16.088 16.8897 16.0837C16.8897 16.0794 16.8897 16.0751 16.8897 16.0709C16.8897 16.0666 16.8897 16.0624 16.8897 16.0582C16.8897 16.0539 16.8897 16.0497 16.8897 16.0456C16.8897 16.0414 16.8897 16.0372 16.8897 16.0331C16.8897 16.0289 16.8897 16.0248 16.8897 16.0207C16.8897 16.0166 16.8897 16.0125 16.8897 16.0085C16.8897 16.0044 16.8897 16.0004 16.8897 15.9963C16.8897 15.9923 16.8897 15.9883 16.8897 15.9843C16.8897 15.9804 16.8897 15.9764 16.8897 15.9724C16.8897 15.9685 16.8897 15.9646 16.8897 15.9607C16.8897 15.9568 16.8897 15.9529 16.8897 15.949C16.8897 15.9451 16.8897 15.9413 16.8897 15.9375C16.8897 15.9336 16.8897 15.9298 16.8897 15.926C16.8897 15.9222 16.8897 15.9185 16.8897 15.9147C16.8897 15.9109 16.8897 15.9072 16.8897 15.9035C16.8897 15.8998 16.8897 15.8961 16.8897 15.8924C16.8897 15.8887 16.8897 15.8851 16.8897 15.8814C16.8897 15.8778 16.8897 15.8741 16.8897 15.8705C16.8897 15.8669 16.8897 15.8633 16.8897 15.8598C16.8897 15.8562 16.8897 15.8526 16.8897 15.8491C16.8897 15.8456 16.8897 15.8421 16.8897 15.8386C16.8897 15.8351 16.8897 15.8316 16.8897 15.8281C16.8897 15.8247 16.8897 15.8212 16.8897 15.8178C16.8897 15.8144 16.8897 15.811 16.8897 15.8076C16.8897 15.8042 16.8897 15.8008 16.8897 15.7975C16.8897 15.7941 16.8897 15.7908 16.8897 15.7875C16.8897 15.7841 16.8897 15.7808 16.8897 15.7776C16.8897 15.7743 16.8897 15.771 16.8897 15.7678C16.8897 15.7645 16.8897 15.7613 16.8897 15.7581C16.8897 15.7549 16.8897 15.7517 16.8897 15.7485C16.8897 15.7453 16.8897 15.7422 16.8897 15.739C16.8897 15.7359 16.8897 15.7327 16.8897 15.7296C16.8897 15.7265 16.8897 15.7234 16.8897 15.7203C16.8897 15.7173 16.8897 15.7142 16.8897 15.7112C16.8897 15.7081 16.8897 15.7051 16.8897 15.7021C16.8897 15.6991 16.8897 15.6961 16.8897 15.6931C16.8897 15.6902 16.8897 15.6872 16.8897 15.6843C16.8897 15.6813 16.8897 15.6784 16.8897 15.6755C16.8897 15.6726 16.8897 15.6697 16.8897 15.6668C16.8897 15.6639 16.8897 15.6611 16.8897 15.6582C16.8897 15.6554 16.8897 15.6526 16.8897 15.6498C16.8897 15.6469 16.8897 15.6441 16.8897 15.6414C16.8897 15.6386 16.8897 15.6358 16.8897 15.6331C16.8897 15.6303 16.8897 15.6276 16.8897 15.6249C16.8897 15.6222 16.8897 15.6195 16.8897 15.6168C16.8897 15.6141 16.8897 15.6115 16.8897 15.6088C16.8897 15.6062 16.8897 15.6035 16.8897 15.6009C16.8897 15.5983 16.8897 15.5957 16.8897 15.5931C16.8897 15.5905 16.8897 15.5879 16.8897 15.5854C16.8897 15.5828 16.8897 15.5803 16.8897 15.5778C16.8897 15.5752 16.8897 15.5727 16.8897 15.5702C16.8897 15.5677 16.8897 15.5653 16.8897 15.5628C16.8897 15.5603 16.8897 15.5579 16.8897 15.5555C16.8897 15.553 16.8897 15.5506 16.8897 15.5482C16.8897 15.5458 16.8897 15.5434 16.8897 15.541C16.8897 15.5387 16.8897 15.5363 16.8897 15.534C16.8897 15.5316 16.8897 15.5293 16.8897 15.527C16.8897 15.5247 16.8897 15.5224 16.8897 15.5201C16.8897 15.5178 16.8897 15.5155 16.8897 15.5133C16.8897 15.511 16.8897 15.5088 16.8897 15.5065C16.8897 15.5043 16.8897 15.5021 16.8897 15.4999C16.8897 15.4977 16.8897 15.4955 16.8897 15.4934C16.8897 15.4912 16.8897 15.489 16.8897 15.4869C16.8897 15.4848 16.8897 15.4826 16.8897 15.4805C16.8897 15.4784 16.8897 15.4763 16.8897 15.4742C16.8897 15.4721 16.8897 15.4701 16.8897 15.468C16.8897 15.466 16.8897 15.4639 16.8897 15.4619C16.8897 15.4599 16.8897 15.4578 16.8897 15.4558C16.8897 15.4538 16.8897 15.4519 16.8897 15.4499C16.8897 15.4479 16.8897 15.4459 16.8897 15.444C16.8897 15.442 16.8897 15.4401 16.8897 15.4382C16.8897 15.4363 16.8897 15.4344 16.8897 15.4325C16.8897 15.4306 16.8897 15.4287 16.8897 15.4268C16.8897 15.425 16.8897 15.4231 16.8897 15.4213C16.8897 15.4194 16.8897 15.4176 16.8897 15.4158C16.8897 15.414 16.8897 15.4122 16.8897 15.4104C16.8897 15.4086 16.8897 15.4068 16.8897 15.4051C16.8897 15.4033 16.8897 15.4016 16.8897 15.3998C16.8897 15.3981 16.8897 15.3964 16.8897 15.3947C16.8897 15.3929 16.8897 15.3912 16.8897 15.3896C16.8897 15.3879 16.8897 15.3862 16.8897 15.3845C16.8897 15.3829 16.8897 15.3812 16.8897 15.3796C16.8897 15.378 16.8897 15.3763 16.8897 15.3747C16.8897 15.3731 16.8897 15.3715 16.8897 15.3699C16.8897 15.3683 16.8897 15.3668 16.8897 15.3652C16.8897 15.3636 16.8897 15.3621 16.8897 15.3606C16.8897 15.359 16.8897 15.3575 16.8897 15.356C16.8897 15.3545 16.8897 15.353 16.8897 15.3515C16.8897 15.35 16.8897 15.3485 16.8897 15.347C16.8897 15.3456 16.8897 15.3441 16.8897 15.3427C16.8897 15.3412 16.8897 15.3398 16.8897 15.3384C16.8897 15.337 16.8897 15.3355 16.8897 15.3341C16.8897 15.3327 16.8897 15.3314 16.8897 15.33C16.8897 15.3286 16.8897 15.3273 16.8897 15.3259C16.8897 15.3245 16.8897 15.3232 16.8897 15.3219C16.8897 15.3205 16.8897 15.3192 16.8897 15.3179C16.8897 15.3166 16.8897 15.3153 16.8897 15.314C16.8897 15.3127 16.8897 15.3115 16.8897 15.3102C16.8897 15.3089 16.8897 15.3077 16.8897 15.3065C16.8897 15.3052 16.8897 15.304 16.8897 15.3028C16.8897 15.3015 16.8897 15.3003 16.8897 15.2991C16.8897 15.2979 16.8897 15.2967 16.8897 15.2956C16.8897 15.2944 16.8897 15.2932 16.8897 15.2921C16.8897 15.2909 16.8897 15.2898 16.8897 15.2886C16.8897 15.2875 16.8897 15.2864 16.8897 15.2853C16.8897 15.2841 16.8897 15.283 16.8897 15.2819C16.8897 15.2808 16.8897 15.2798 16.8897 15.2787C16.8897 15.2776 16.8897 15.2765 16.8897 15.2755C16.8897 15.2744 16.8897 15.2734 16.8897 15.2724C16.8897 15.2713 16.8897 15.2703 16.8897 15.2693C16.8897 15.2683 16.8897 15.2673 16.8897 15.2663C16.8897 15.2653 16.8897 15.2643 16.8897 15.2633C16.8897 15.2623 16.8897 15.2614 16.8897 15.2604C16.8897 15.2594 16.8897 15.2585 16.8897 15.2576C16.8897 15.2566 16.8897 15.2557 16.8897 15.2548C16.8897 15.2538 16.8897 15.2529 16.8897 15.252C16.8897 15.2511 16.8897 15.2502 16.8897 15.2494C16.8897 15.2485 16.8897 15.2476 16.8897 15.2467C16.8897 15.2459 16.8897 15.245 16.8897 15.2442C16.8897 15.2433 16.8897 15.2425 16.8897 15.2417C16.8897 15.2408 16.8897 15.24 16.8897 15.2392C16.8897 15.2384 16.8897 15.2376 16.8897 15.2368C16.8897 15.236 16.8897 15.2352 16.8897 15.2344C16.8897 15.2336 16.8897 15.2329 16.8897 15.2321C16.8897 15.2314 16.8897 15.2306 16.8897 15.2299C16.8897 15.2291 16.8897 15.2284 16.8897 15.2277C16.8897 15.2269 16.8897 15.2262 16.8897 15.2255C16.8897 15.2248 16.8897 15.2241 16.8897 15.2234C16.8897 15.2227 16.8897 15.222 16.8897 15.2213C16.8897 15.2207 16.8897 15.22 16.8897 15.2193C16.8897 15.2187 16.8897 15.218 16.8897 15.2174C16.8897 15.2167 16.8897 15.2161 16.8897 15.2154C16.8897 15.2148 16.8897 15.2142 16.8897 15.2136C16.8897 15.213 16.8897 15.2123 16.8897 15.2117C16.8897 15.2111 16.8897 15.2106 16.8897 15.21C16.8897 15.2094 16.8897 15.2088 16.8897 15.2082C16.8897 15.2077 16.8897 15.2071 16.8897 15.2065C16.8897 15.206 16.8897 15.2054 16.8897 15.2049C16.8897 15.2043 16.8897 15.2038 16.8897 15.2033C16.8897 15.2028 16.8897 15.2022 16.8897 15.2017C16.8897 15.2012 16.8897 15.2007 16.8897 15.2002C16.8897 15.1997 16.8897 15.1992 16.8897 15.1987C16.8897 15.1982 16.8897 15.1978 16.8897 15.1973C16.8897 15.1968 16.8897 15.1963 16.8897 15.1959C16.8897 15.1954 16.8897 15.195 16.8897 15.1945C16.8897 15.1941 16.8897 15.1936 16.8897 15.1932C16.8897 15.1928 16.8897 15.1923 16.8897 15.1919C16.8897 15.1915 16.8897 15.1911 16.8897 15.1907C16.8897 15.1903 16.8897 15.1899 16.8897 15.1895C16.8897 15.1891 16.8897 15.1887 16.8897 15.1883C16.8897 15.1879 16.8897 15.1875 16.8897 15.1872C16.8897 15.1868 16.8897 15.1864 16.8897 15.1861C16.8897 15.1857 16.8897 15.1853 16.8897 15.185C16.8897 15.1846 16.8897 15.1843 16.8897 15.184C16.8897 15.1836 16.8897 15.1833 16.8897 15.183C16.8897 15.1826 16.8897 15.1823 16.8897 15.182C16.8897 15.1817 16.8897 15.1814 16.8897 15.1811C16.8897 15.1808 16.8897 15.1805 16.8897 15.1802C16.8897 15.1799 16.8897 15.1796 16.8897 15.1793C16.8897 15.179 16.8897 15.1787 16.8897 15.1785C16.8897 15.1782 16.8897 15.1779 16.8897 15.1777C16.8897 15.1774 16.8897 15.1771 16.8897 15.1769C16.8897 15.1766 16.8897 15.1764 16.8897 15.1761C16.8897 15.1759 16.8897 15.1756 16.8897 15.1754C16.8897 15.1752 16.8897 15.1749 16.8897 15.1747C16.8897 15.1745 16.8897 15.1743 16.8897 15.1741C16.8897 15.1738 16.8897 15.1736 16.8897 15.1734C16.8897 15.1732 16.8897 15.173 16.8897 15.1728C16.8897 15.1726 16.8897 15.1724 16.8897 15.1722C16.8897 15.172 16.8897 15.1719 16.8897 15.1717C16.8897 15.1715 16.8897 15.1713 16.8897 15.1711C16.8897 15.171 16.8897 15.1708 16.8897 15.1706C16.8897 15.1705 16.8897 15.1703 16.8897 15.1701C16.8897 15.17 16.8897 15.1698 16.8897 15.1697C16.8897 15.1695 16.8897 15.1694 16.8897 15.1692C16.8897 15.1691 16.8897 15.169 16.8897 15.1688C16.8897 15.1687 16.8897 15.1686 16.8897 15.1684C16.8897 15.1683 16.8897 15.1682 16.8897 15.1681C16.8897 15.1679 16.8897 15.1678 16.8897 15.1677C16.8897 15.1676 16.8897 15.1675 16.8897 15.1674C16.8897 15.1673 16.8897 15.1672 16.8897 15.1671C16.8897 15.167 16.8897 15.1669 16.8897 15.1668C16.8897 15.1667 16.8897 15.1666 16.8897 15.1665C16.8897 15.1664 16.8897 15.1663 16.8897 15.1662C16.8897 15.1661 16.8897 15.166 16.8897 15.166C16.8897 15.1659 16.8897 15.1658 16.8897 15.1657C16.8897 15.1657 16.8897 15.1656 16.8897 15.1655C16.8897 15.1655 16.8897 15.1654 16.8897 15.1653C16.8897 15.1653 16.8897 15.1652 16.8897 15.1651C16.8897 15.1651 16.8897 15.165 16.8897 15.165C16.8897 15.1649 16.8897 15.1649 16.8897 15.1648C16.8897 15.1648 16.8897 15.1647 16.8897 15.1647C16.8897 15.1646 16.8897 15.1646 16.8897 15.1645C16.8897 15.1645 16.8897 15.1645 16.8897 15.1644C16.8897 15.1644 16.8897 15.1644 16.8897 15.1643C16.8897 15.1643 16.8897 15.1643 16.8897 15.1642C16.8897 15.1642 16.8897 15.1642 16.8897 15.1641C16.8897 15.1641 16.8897 15.1641 16.8897 15.1641C16.8897 15.164 16.8897 15.164 16.8897 15.164C16.8897 15.164 16.8897 15.164 16.8897 15.1639C16.8897 15.1639 16.8897 15.1639 16.8897 15.1639C16.8897 15.1639 16.8897 15.1639 16.8897 15.1638C16.8897 15.1638 16.8897 15.1638 16.8897 15.1638C16.8897 15.1638 16.8897 15.1638 16.8897 15.1638C16.8897 15.1638 16.8897 15.1638 16.8897 15.1637C16.8897 15.1637 16.8897 15.1637 16.8897 15.1637C16.8897 15.1637 16.8897 15.1637 16.8897 15.1637C16.8897 15.1637 16.8897 15.1637 16.8897 15.1637C16.8897 15.1637 16.8897 15.1637 16.8897 15.1637C16.8897 15.1637 16.8897 15.1637 16.8897 15.1637C16.8897 15.1637 16.8897 15.1637 16.8897 15.1637C16.8897 15.1637 16.8897 15.1637 16.8897 15.1637C16.8897 15.1637 16.8897 15.1637 16.8897 15.1637H15.0969ZM16.8897 15.1625V2.5625H13.304V15.1625H16.8897Z" fill="black"/>
</svg>
