<svg width="26" height="26" viewBox="0 0 26 26" fill="none" xmlns="http://www.w3.org/2000/svg">
<path d="M21.3681 10.0344C21.3681 12.2487 20.6493 14.2942 19.4384 15.9537L25.5458 22.066C26.1489 22.669 26.1489 23.6483 25.5458 24.2513C24.9428 24.8544 23.9635 24.8544 23.3605 24.2513L17.253 18.1391C15.5935 19.3548 13.548 20.0688 11.3337 20.0688C5.79066 20.0688 1.29932 15.5774 1.29932 10.0344C1.29932 4.49135 5.79066 0 11.3337 0C16.8767 0 21.3681 4.49135 21.3681 10.0344ZM11.3337 16.9813C12.246 16.9813 13.1493 16.8016 13.9921 16.4525C14.835 16.1033 15.6008 15.5916 16.2459 14.9466C16.891 14.3015 17.4027 13.5357 17.7518 12.6928C18.1009 11.85 18.2806 10.9467 18.2806 10.0344C18.2806 9.1221 18.1009 8.21875 17.7518 7.37592C17.4027 6.53309 16.891 5.76727 16.2459 5.12219C15.6008 4.47712 14.835 3.96541 13.9921 3.6163C13.1493 3.26719 12.246 3.0875 11.3337 3.0875C10.4214 3.0875 9.51807 3.26719 8.67524 3.6163C7.8324 3.96541 7.06659 4.47712 6.42151 5.12219C5.77643 5.76727 5.26473 6.53309 4.91562 7.37592C4.5665 8.21875 4.38682 9.1221 4.38682 10.0344C4.38682 10.9467 4.5665 11.85 4.91562 12.6928C5.26473 13.5357 5.77643 14.3015 6.42151 14.9466C7.06659 15.5916 7.8324 16.1033 8.67524 16.4525C9.51807 16.8016 10.4214 16.9813 11.3337 16.9813Z" fill="#7B7B7B"/>
</svg>
