<svg width="10" height="9" viewBox="0 0 10 9" fill="none" xmlns="http://www.w3.org/2000/svg">
<path d="M6.57622 0.350147L9.78482 3.94367C9.82857 3.99135 9.86328 4.04797 9.88697 4.11029C9.91065 4.17261 9.92284 4.23942 9.92284 4.30688C9.92284 4.37435 9.91065 4.44115 9.88697 4.50347C9.86328 4.56579 9.82857 4.62241 9.78482 4.67009L6.57622 8.26362C6.48792 8.35995 6.36815 8.41406 6.24327 8.41406C6.11839 8.41406 5.99863 8.35995 5.91032 8.26362C5.82202 8.16729 5.77241 8.03664 5.77241 7.90041C5.77241 7.76418 5.82202 7.63353 5.91032 7.5372L8.31596 4.82025L0.638881 4.82025C0.51407 4.82025 0.394372 4.76616 0.306117 4.66989C0.217863 4.57361 0.168282 4.44304 0.168282 4.30688C0.168282 4.17073 0.217863 4.04015 0.306118 3.94387C0.394372 3.8476 0.514071 3.79351 0.638881 3.79351L8.31596 3.79351L5.91032 1.07656C5.82202 0.980235 5.77241 0.849585 5.77241 0.713355C5.77241 0.577126 5.82202 0.446476 5.91032 0.350147C5.99863 0.253818 6.11839 0.1997 6.24327 0.1997C6.36815 0.1997 6.48792 0.253818 6.57622 0.350147Z" fill="black"/>
</svg>
