<svg width="24" height="24" viewBox="0 0 24 24" fill="none" xmlns="http://www.w3.org/2000/svg">
<path d="M19.3333 4H4.66668C4.22465 4 3.80073 4.17911 3.48817 4.49792C3.17561 4.81673 3.00001 5.24913 3.00001 5.7V19.3C2.99868 19.6237 3.08883 19.941 3.25968 20.2139C3.43052 20.4867 3.67482 20.7036 3.96335 20.8385C4.18483 20.9443 4.42629 20.9994 4.67085 21C5.0622 20.999 5.4406 20.8569 5.73918 20.5988L5.75501 20.5852L8.33334 18.28H19.3333C19.7754 18.28 20.1993 18.1009 20.5118 17.7821C20.8244 17.4633 21 17.0309 21 16.58V5.7C21 5.24913 20.8244 4.81673 20.5118 4.49792C20.1993 4.17911 19.7754 4 19.3333 4ZM19 16.24H8.20834C7.81598 16.24 7.4362 16.3811 7.13584 16.6387L7.12001 16.6523L5.00001 18.5469V6.04H19V16.24Z" fill="#6F6F6F"/>
</svg>
