<svg width="15" height="13" viewBox="0 0 15 13" fill="none" xmlns="http://www.w3.org/2000/svg">
<path d="M9.61107 0.719781L14.2984 5.96941C14.3623 6.03906 14.413 6.12177 14.4476 6.21281C14.4822 6.30386 14.5 6.40145 14.5 6.5C14.5 6.59856 14.4822 6.69615 14.4476 6.78719C14.413 6.87823 14.3623 6.96095 14.2984 7.0306L9.61108 12.2802C9.48208 12.4209 9.30712 12.5 9.12468 12.5C8.94225 12.5 8.76729 12.4209 8.63829 12.2802C8.5093 12.1395 8.43682 11.9486 8.43682 11.7496C8.43682 11.5506 8.5093 11.3598 8.63829 11.219L12.1526 7.24996L0.937477 7.24996C0.755147 7.24996 0.580284 7.17095 0.451357 7.0303C0.32243 6.88966 0.25 6.6989 0.25 6.5C0.25 6.3011 0.32243 6.11035 0.451357 5.9697C0.580284 5.82906 0.755147 5.75004 0.937477 5.75004L12.1526 5.75004L8.63829 1.78097C8.50929 1.64025 8.43682 1.44939 8.43682 1.25038C8.43682 1.05136 8.50929 0.860504 8.63829 0.719781C8.76729 0.579059 8.94225 0.500002 9.12468 0.500002C9.30712 0.500002 9.48208 0.579059 9.61107 0.719781Z" fill="white"/>
</svg>
