<svg width="20" height="21" viewBox="0 0 20 21" fill="none" xmlns="http://www.w3.org/2000/svg">
<path d="M10 0.5C4.47719 0.5 0 4.97719 0 10.5C0 16.0231 4.47719 20.5 10 20.5C15.5231 20.5 20 16.0231 20 10.5C20 4.97719 15.5231 0.5 10 0.5ZM10 19.2697C5.17531 19.2697 1.25 15.3247 1.25 10.5C1.25 5.67527 5.17531 1.74996 10 1.74996C14.8247 1.74996 18.75 5.67529 18.75 10.5C18.75 15.3246 14.8247 19.2697 10 19.2697ZM14.375 9.875H10.625V6.125C10.625 5.78 10.345 5.5 10 5.5C9.655 5.5 9.375 5.78 9.375 6.125V9.875H5.625C5.28 9.875 5 10.155 5 10.5C5 10.845 5.28 11.125 5.625 11.125H9.375V14.875C9.375 15.22 9.655 15.5 10 15.5C10.345 15.5 10.625 15.22 10.625 14.875V11.125H14.375C14.72 11.125 15 10.845 15 10.5C15 10.155 14.72 9.875 14.375 9.875Z" fill="#CDCDCD"/>
</svg>
