<svg width="12" height="13" viewBox="0 0 12 13" fill="none" xmlns="http://www.w3.org/2000/svg">
<path d="M9.64214 11.7329L11.1587 6.36692C11.1825 6.28286 11.1864 6.19444 11.1703 6.1086C11.1541 6.02277 11.1182 5.94185 11.0655 5.87223C11.0127 5.8026 10.9445 5.74615 10.8663 5.70732C10.7881 5.66849 10.7019 5.64833 10.6145 5.64844H7.37232C7.32584 5.64844 7.27995 5.63795 7.23809 5.61776C7.19622 5.59757 7.15946 5.56819 7.13052 5.53182C7.10158 5.49544 7.08123 5.45301 7.07096 5.40768C7.0607 5.36235 7.0608 5.31528 7.07125 5.26999L7.21246 4.65883C7.34181 4.09822 7.38333 3.52067 7.3356 2.94735L7.30962 2.63584C7.28178 2.30165 7.13639 1.98814 6.89926 1.75102C6.68235 1.53406 6.38815 1.41216 6.08137 1.41211H6.01358C5.82803 1.41211 5.65717 1.51265 5.56736 1.67476L4.8164 3.02615C4.47974 3.63223 3.9779 4.13025 3.36927 4.46227L1.48862 5.48746C1.39946 5.53611 1.32507 5.6079 1.27328 5.69528C1.22149 5.78266 1.19422 5.88238 1.19434 5.98395V11.5793C1.19434 11.7291 1.25385 11.8728 1.35978 11.9787C1.4657 12.0846 1.60937 12.1441 1.75918 12.1441H9.09848C9.22147 12.1441 9.34109 12.1039 9.43916 12.0297C9.53723 11.9555 9.60869 11.8513 9.64214 11.7329Z" stroke="white" stroke-width="1.19245" stroke-linecap="round" stroke-linejoin="round"/>
</svg>
