<svg width="36" height="36" viewBox="0 0 36 36" fill="none" xmlns="http://www.w3.org/2000/svg">
<circle cx="18" cy="18" r="18" fill="#595959"/>
<path d="M23.7857 18.9623H18.9643V23.7838C18.9643 24.0395 18.8627 24.2848 18.6819 24.4656C18.501 24.6465 18.2557 24.748 18 24.748C17.7443 24.748 17.499 24.6465 17.3181 24.4656C17.1373 24.2848 17.0357 24.0395 17.0357 23.7838V18.9623H12.2143C11.9585 18.9623 11.7133 18.8607 11.5324 18.6799C11.3516 18.4991 11.25 18.2538 11.25 17.998C11.25 17.7423 11.3516 17.497 11.5324 17.3162C11.7133 17.1354 11.9585 17.0338 12.2143 17.0338H17.0357V12.2123C17.0357 11.9566 17.1373 11.7113 17.3181 11.5305C17.499 11.3496 17.7443 11.248 18 11.248C18.2557 11.248 18.501 11.3496 18.6819 11.5305C18.8627 11.7113 18.9643 11.9566 18.9643 12.2123V17.0338H23.7857C24.0415 17.0338 24.2867 17.1354 24.4676 17.3162C24.6484 17.497 24.75 17.7423 24.75 17.998C24.75 18.2538 24.6484 18.4991 24.4676 18.6799C24.2867 18.8607 24.0415 18.9623 23.7857 18.9623Z" fill="white"/>
</svg>
