<svg width="36" height="36" viewBox="0 0 36 36" fill="none" xmlns="http://www.w3.org/2000/svg">
<path d="M27 19.4971H19.5V26.9971C19.5 27.3949 19.342 27.7764 19.0607 28.0577C18.7794 28.339 18.3978 28.4971 18 28.4971C17.6022 28.4971 17.2206 28.339 16.9393 28.0577C16.658 27.7764 16.5 27.3949 16.5 26.9971V19.4971H9C8.60218 19.4971 8.22064 19.339 7.93934 19.0577C7.65804 18.7764 7.5 18.3949 7.5 17.9971C7.5 17.5992 7.65804 17.2177 7.93934 16.9364C8.22064 16.6551 8.60218 16.4971 9 16.4971H16.5V8.99707C16.5 8.59925 16.658 8.21771 16.9393 7.93641C17.2206 7.65511 17.6022 7.49707 18 7.49707C18.3978 7.49707 18.7794 7.65511 19.0607 7.93641C19.342 8.21771 19.5 8.59925 19.5 8.99707V16.4971H27C27.3978 16.4971 27.7794 16.6551 28.0607 16.9364C28.342 17.2177 28.5 17.5992 28.5 17.9971C28.5 18.3949 28.342 18.7764 28.0607 19.0577C27.7794 19.339 27.3978 19.4971 27 19.4971Z" fill="white"/>
</svg>
