<svg width="20" height="21" viewBox="0 0 20 21" fill="none" xmlns="http://www.w3.org/2000/svg">
<path d="M5 10.5C5 10.1548 5.27982 9.875 5.625 9.875H14.375C14.7202 9.875 15 10.1548 15 10.5C15 10.8452 14.7202 11.125 14.375 11.125H5.625C5.27982 11.125 5 10.8452 5 10.5Z" fill="black"/>
<path d="M10 0.5C4.47719 0.5 0 4.97719 0 10.5C0 16.0231 4.47719 20.5 10 20.5C15.5231 20.5 20 16.0231 20 10.5C20 4.97719 15.5231 0.5 10 0.5ZM10 19.2697C5.17531 19.2697 1.25 15.3247 1.25 10.5C1.25 5.67527 5.17531 1.74996 10 1.74996C14.8247 1.74996 18.75 5.67529 18.75 10.5C18.75 15.3246 14.8247 19.2697 10 19.2697Z" fill="black"/>
</svg>
