<svg width="16" height="16" viewBox="0 0 16 16" fill="none" xmlns="http://www.w3.org/2000/svg">
<path d="M12.967 14.579L14.9808 7.454C15.0123 7.34239 15.0175 7.22498 14.996 7.11101C14.9745 6.99704 14.9269 6.8896 14.8569 6.79715C14.7868 6.70469 14.6963 6.62974 14.5924 6.57818C14.4885 6.52662 14.3741 6.49986 14.2581 6.5H9.95313C9.89141 6.5 9.83049 6.48608 9.7749 6.45927C9.71931 6.43246 9.67049 6.39345 9.63207 6.34515C9.59365 6.29686 9.56662 6.24051 9.55299 6.18032C9.53937 6.12013 9.5395 6.05764 9.55338 5.9975L9.74088 5.186C9.91263 4.44163 9.96775 3.67475 9.90438 2.9135L9.86988 2.49988C9.83292 2.05613 9.63986 1.63986 9.325 1.325C9.03699 1.03693 8.64635 0.875062 8.239 0.875H8.149C7.90263 0.875 7.67575 1.0085 7.5565 1.22375L6.55938 3.01813C6.11237 3.82288 5.44602 4.48415 4.63788 4.925L2.14075 6.28625C2.02236 6.35085 1.92358 6.44618 1.85482 6.5622C1.78605 6.67822 1.74984 6.81063 1.75 6.9455V14.375C1.75 14.5739 1.82902 14.7647 1.96967 14.9053C2.11032 15.046 2.30109 15.125 2.5 15.125H12.2451C12.4084 15.125 12.5673 15.0716 12.6975 14.9731C12.8277 14.8745 12.9226 14.7361 12.967 14.579Z" stroke="#6F6F6F" stroke-width="1.58333" stroke-linecap="round" stroke-linejoin="round"/>
</svg>
