<svg xmlns="http://www.w3.org/2000/svg" width="25" height="24" viewBox="0 0 25 24" fill="none">
<path fill-rule="evenodd" clip-rule="evenodd" d="M17.3305 15.2923C18.5178 13.761 19.0774 11.8346 18.8954 9.9052C18.7133 7.97576 17.8034 6.18816 16.3507 4.90607C14.8979 3.62398 13.0115 2.94371 11.0752 3.00365C9.13888 3.06359 7.29812 3.85924 5.9274 5.22874C4.55549 6.59918 3.75755 8.44139 3.6962 10.3799C3.63485 12.3185 4.31471 14.2075 5.59722 15.662C6.87973 17.1165 8.66839 18.0271 10.5987 18.2081C12.529 18.3892 14.4556 17.8271 15.986 16.6364L16.027 16.6792L20.066 20.7209C20.1545 20.8094 20.2595 20.8796 20.3751 20.9275C20.4907 20.9753 20.6146 21 20.7397 21C20.8648 21 20.9887 20.9753 21.1043 20.9275C21.2199 20.8796 21.3249 20.8094 21.4133 20.7209C21.5018 20.6324 21.572 20.5273 21.6199 20.4117C21.6677 20.296 21.6924 20.1721 21.6924 20.0469C21.6924 19.9218 21.6677 19.7978 21.6199 19.6822C21.572 19.5666 21.5018 19.4615 21.4133 19.373L17.3733 15.3323C17.3594 15.3186 17.3451 15.3053 17.3305 15.2923ZM15.3538 6.57658C15.8914 7.1057 16.3189 7.73606 16.6118 8.43131C16.9046 9.12655 17.057 9.87293 17.0601 10.6274C17.0631 11.3818 16.9169 12.1294 16.6297 12.827C16.3425 13.5246 15.9201 14.1585 15.3868 14.6919C14.8536 15.2254 14.22 15.648 13.5227 15.9353C12.8253 16.2226 12.078 16.3689 11.3239 16.3658C10.5697 16.3628 9.82367 16.2104 9.1287 15.9174C8.43373 15.6244 7.80362 15.1967 7.27471 14.6589C6.21773 13.5841 5.6281 12.1351 5.63423 10.6274C5.64037 9.11967 6.24178 7.67547 7.30747 6.60936C8.37316 5.54325 9.81679 4.94159 11.3239 4.93545C12.831 4.92931 14.2795 5.51919 15.3538 6.57658Z" fill="#DFDFDF"/>
</svg>