<svg width="25" height="25" viewBox="0 0 25 25" fill="none" xmlns="http://www.w3.org/2000/svg">
<g clip-path="url(#clip0_122_36)">
<mask id="mask0_122_36" style="mask-type:luminance" maskUnits="userSpaceOnUse" x="0" y="1" width="24" height="24">
<path d="M0.984863 1.43164H23.9531V24.4H0.984863V1.43164Z" fill="white"/>
</mask>
<g mask="url(#mask0_122_36)">
<path d="M4.43008 1.43164H20.5079C20.5643 1.43164 20.6206 1.43301 20.677 1.43576C20.7333 1.4385 20.7895 1.44269 20.8456 1.44818C20.9018 1.45373 20.9577 1.46066 21.0135 1.4689C21.0692 1.47719 21.1248 1.4868 21.1801 1.49779C21.2354 1.50883 21.2903 1.52119 21.3451 1.53486C21.3997 1.54858 21.4541 1.56362 21.508 1.57997C21.562 1.59632 21.6155 1.61398 21.6686 1.63302C21.7217 1.65199 21.7743 1.67227 21.8264 1.69386C21.8784 1.71545 21.93 1.73829 21.981 1.76238C22.0319 1.78653 22.0823 1.81186 22.132 1.83845C22.1817 1.86503 22.2308 1.8928 22.2791 1.92175C22.3275 1.95077 22.3751 1.98091 22.422 2.01224C22.4689 2.04357 22.5149 2.07602 22.5602 2.10959C22.6055 2.14322 22.65 2.17786 22.6935 2.21368C22.7372 2.24943 22.7798 2.28625 22.8216 2.32413C22.8634 2.36195 22.9042 2.40082 22.9441 2.4407C22.984 2.48057 23.0228 2.52139 23.0606 2.5632C23.0985 2.60494 23.1353 2.64763 23.1711 2.69125C23.2069 2.7348 23.2416 2.77924 23.2752 2.82454C23.3088 2.86984 23.3412 2.9159 23.3725 2.96276C23.4039 3.00969 23.434 3.0573 23.463 3.10567C23.492 3.15403 23.5197 3.20308 23.5463 3.25281C23.5729 3.30249 23.5983 3.35284 23.6224 3.40383C23.6465 3.45481 23.6693 3.50636 23.6909 3.5584C23.7125 3.61051 23.7328 3.66311 23.7518 3.71622C23.7707 3.76926 23.7885 3.8228 23.8048 3.87678C23.8212 3.9307 23.8362 3.98505 23.8499 4.03972C23.8636 4.09444 23.8759 4.14942 23.887 4.20471C23.898 4.26 23.9076 4.31554 23.9159 4.37133C23.9241 4.42711 23.931 4.48303 23.9366 4.53919C23.9421 4.59529 23.9463 4.65152 23.949 4.7078C23.9518 4.76415 23.9531 4.8205 23.9531 4.87685V20.9547C23.9531 21.0111 23.9518 21.0674 23.949 21.1238C23.9463 21.18 23.9421 21.2363 23.9366 21.2924C23.931 21.3485 23.9241 21.4044 23.9159 21.4602C23.9076 21.516 23.898 21.5716 23.887 21.6268C23.8759 21.6821 23.8636 21.7371 23.8499 21.7918C23.8362 21.8465 23.8212 21.9009 23.8048 21.9548C23.7885 22.0088 23.7707 22.0623 23.7518 22.1153C23.7328 22.1684 23.7125 22.221 23.6909 22.2732C23.6693 22.3252 23.6465 22.3767 23.6224 22.4277C23.5983 22.4787 23.5729 22.5291 23.5463 22.5788C23.5197 22.6285 23.492 22.6775 23.463 22.7259C23.434 22.7743 23.4039 22.8219 23.3725 22.8688C23.3412 22.9157 23.3088 22.9617 23.2752 23.007C23.2416 23.0523 23.2069 23.0968 23.1711 23.1403C23.1353 23.1839 23.0985 23.2266 23.0606 23.2684C23.0228 23.3102 22.984 23.351 22.9441 23.3909C22.9042 23.4307 22.8634 23.4696 22.8216 23.5074C22.7798 23.5453 22.7372 23.5821 22.6935 23.6179C22.65 23.6537 22.6055 23.6883 22.5602 23.722C22.5149 23.7555 22.4689 23.788 22.422 23.8193C22.3751 23.8506 22.3275 23.8808 22.2791 23.9098C22.2308 23.9388 22.1817 23.9665 22.132 23.9931C22.0823 24.0197 22.0319 24.045 21.981 24.0692C21.93 24.0933 21.8784 24.1161 21.8264 24.1377C21.7743 24.1593 21.7217 24.1796 21.6686 24.1985C21.6155 24.2176 21.562 24.2352 21.508 24.2516C21.4541 24.2679 21.3997 24.283 21.3451 24.2967C21.2903 24.3104 21.2354 24.3227 21.1801 24.3338C21.1248 24.3447 21.0692 24.3544 21.0135 24.3627C20.9577 24.3709 20.9018 24.3778 20.8456 24.3834C20.7895 24.3889 20.7333 24.393 20.677 24.3958C20.6206 24.3985 20.5643 24.4 20.5079 24.4H4.43008C4.37373 24.4 4.31738 24.3985 4.26103 24.3958C4.20474 24.393 4.14851 24.3889 4.09241 24.3834C4.03625 24.3778 3.98034 24.3709 3.92455 24.3627C3.86876 24.3544 3.81322 24.3447 3.75793 24.3338C3.70264 24.3227 3.64767 24.3104 3.59294 24.2967C3.53827 24.283 3.48392 24.2679 3.43 24.2516C3.37603 24.2352 3.32248 24.2176 3.26944 24.1985C3.21634 24.1796 3.16373 24.1593 3.11162 24.1377C3.05958 24.1161 3.00803 24.0933 2.95705 24.0692C2.90607 24.045 2.85571 24.0197 2.80597 23.9931C2.7563 23.9665 2.70725 23.9388 2.65889 23.9098C2.61053 23.8808 2.56291 23.8506 2.51599 23.8193C2.46912 23.788 2.42307 23.7555 2.37776 23.722C2.33246 23.6883 2.28803 23.6537 2.24441 23.6179C2.20085 23.5821 2.15817 23.5453 2.11642 23.5074C2.07461 23.4696 2.0338 23.4307 1.99392 23.3909C1.95405 23.351 1.91517 23.3102 1.87729 23.2684C1.83947 23.2266 1.80266 23.1839 1.7669 23.1403C1.73108 23.0968 1.69645 23.0523 1.66281 23.007C1.62924 22.9617 1.59679 22.9157 1.56546 22.8688C1.53414 22.8219 1.50399 22.7743 1.47498 22.7259C1.44602 22.6775 1.41825 22.6285 1.39167 22.5788C1.36509 22.5291 1.33975 22.4787 1.3156 22.4277C1.29151 22.3767 1.26867 22.3252 1.24708 22.2732C1.22549 22.221 1.20521 22.1684 1.18624 22.1153C1.16721 22.0623 1.14955 22.0088 1.1332 21.9548C1.11685 21.9009 1.10181 21.8465 1.08808 21.7918C1.07441 21.7371 1.06206 21.6821 1.05101 21.6268C1.04003 21.5716 1.03042 21.516 1.02212 21.4602C1.01382 21.4044 1.00695 21.3485 1.0014 21.2924C0.995909 21.2363 0.991728 21.18 0.988982 21.1238C0.986236 21.0674 0.984863 21.0111 0.984863 20.9547V4.87685C0.984863 4.8205 0.986236 4.76415 0.988982 4.7078C0.991728 4.65152 0.995909 4.59529 1.0014 4.53919C1.00695 4.48303 1.01382 4.42711 1.02212 4.37133C1.03042 4.31554 1.04003 4.26 1.05101 4.20471C1.06206 4.14942 1.07441 4.09444 1.08808 4.03972C1.10181 3.98505 1.11685 3.9307 1.1332 3.87678C1.14955 3.8228 1.16721 3.76926 1.18624 3.71622C1.20521 3.66311 1.22549 3.61051 1.24708 3.5584C1.26867 3.50636 1.29151 3.45481 1.3156 3.40383C1.33975 3.35284 1.36509 3.30249 1.39167 3.25281C1.41825 3.20308 1.44602 3.15403 1.47498 3.10567C1.50399 3.0573 1.53414 3.00969 1.56546 2.96276C1.59679 2.9159 1.62924 2.86984 1.66281 2.82454C1.69645 2.77924 1.73108 2.7348 1.7669 2.69125C1.80266 2.64763 1.83947 2.60494 1.87729 2.5632C1.91517 2.52139 1.95405 2.48057 1.99392 2.4407C2.0338 2.40082 2.07461 2.36195 2.11642 2.32413C2.15817 2.28625 2.20085 2.24943 2.24441 2.21368C2.28803 2.17786 2.33246 2.14322 2.37776 2.10959C2.42307 2.07602 2.46912 2.04357 2.51599 2.01224C2.56291 1.98091 2.61053 1.95077 2.65889 1.92175C2.70725 1.8928 2.7563 1.86503 2.80597 1.83845C2.85571 1.81186 2.90607 1.78653 2.95705 1.76238C3.00803 1.73829 3.05958 1.71545 3.11162 1.69386C3.16373 1.67227 3.21634 1.65199 3.26944 1.63302C3.32248 1.61398 3.37603 1.59632 3.43 1.57997C3.48392 1.56362 3.53827 1.54858 3.59294 1.53486C3.64767 1.52119 3.70264 1.50883 3.75793 1.49779C3.81322 1.4868 3.86876 1.47719 3.92455 1.4689C3.98034 1.46066 4.03625 1.45373 4.09241 1.44818C4.14851 1.44269 4.20474 1.4385 4.26103 1.43576C4.31738 1.43301 4.37373 1.43164 4.43008 1.43164Z" fill="white"/>
</g>
<path d="M18.3008 19.3757C20.3195 17.4915 21.2167 14.3513 20.6784 11.3457H12.6484V14.6654H17.2241C17.0447 15.742 16.4166 16.6392 15.5195 17.2224L18.3008 19.3757Z" fill="#4285F4"/>
<path d="M5.02222 16.7294C5.09573 16.8741 5.17323 17.0166 5.25473 17.157C5.33629 17.2974 5.42172 17.4353 5.51102 17.5708C5.60038 17.7063 5.69342 17.8392 5.79027 17.9695C5.88712 18.0998 5.98753 18.2271 6.09162 18.3518C6.19564 18.4763 6.3031 18.5979 6.41406 18.7164C6.52495 18.8349 6.63914 18.9501 6.75659 19.0622C6.87403 19.1742 6.99453 19.2829 7.11809 19.3881C7.24165 19.4934 7.36807 19.595 7.49744 19.6931C7.62674 19.7912 7.75872 19.8856 7.89338 19.9762C8.02805 20.0668 8.16515 20.1535 8.30475 20.2364C8.44428 20.3193 8.58606 20.3981 8.73008 20.473C8.87411 20.5478 9.02013 20.6186 9.16815 20.6852C9.31617 20.7518 9.46594 20.8142 9.61752 20.8723C9.76903 20.9304 9.92211 20.9842 10.0767 21.0337C10.2313 21.0832 10.3871 21.1283 10.5443 21.1689C10.7014 21.2096 10.8595 21.2458 11.0187 21.2776C11.1779 21.3093 11.3378 21.3365 11.4986 21.3592C11.6593 21.3819 11.8205 21.4 11.9823 21.4136C12.144 21.4271 12.306 21.4362 12.4683 21.4405C12.6305 21.445 12.7928 21.4448 12.955 21.44C13.1173 21.4353 13.2792 21.4259 13.441 21.412C13.6026 21.3981 13.7638 21.3796 13.9245 21.3566C14.0852 21.3336 14.2451 21.306 14.4042 21.2739C14.5633 21.2418 14.7214 21.2053 14.8784 21.1643C15.0355 21.1233 15.1912 21.0779 15.3458 21.0281C15.5002 20.9783 15.6531 20.9241 15.8046 20.8657C15.956 20.8072 16.1056 20.7445 16.2535 20.6776C16.4014 20.6107 16.5473 20.5397 16.6911 20.4645C16.835 20.3893 16.9766 20.3102 17.116 20.227C17.2553 20.1438 17.3923 20.0567 17.5267 19.9659C17.6612 19.875 17.793 19.7803 17.9221 19.6819C18.0512 19.5836 18.1775 19.4816 18.3008 19.3762L15.5195 17.2229C13.1419 18.7929 9.19424 18.2098 7.84839 14.5312L5.02222 16.7294Z" fill="#34A853"/>
<path d="M7.84844 14.5306C7.48956 13.409 7.48956 12.3773 7.84844 11.2558L5.02227 9.05762C3.9905 11.1212 3.67648 14.0371 5.02227 16.7287L7.84844 14.5306Z" fill="#FBBC02"/>
<path d="M7.84839 11.2562C8.83536 8.16089 13.0522 6.36649 15.8784 9.0132L18.3457 6.59077C14.8466 3.22631 8.02786 3.36085 5.02222 9.05806L7.84839 11.2562Z" fill="#EA4335"/>
</g>
<defs>
<clipPath id="clip0_122_36">
<rect width="23.9628" height="23.9628" fill="white" transform="translate(0.488403 0.934814)"/>
</clipPath>
</defs>
</svg>
